<?xml version="1.0" encoding="utf-8"?>
<!-- Generator: Adobe Illustrator 26.0.1, SVG Export Plug-In . SVG Version: 6.00 Build 0)  -->
<svg version="1.1" id="Capa_1" xmlns="http://www.w3.org/2000/svg" xmlns:xlink="http://www.w3.org/1999/xlink" x="0px" y="0px"
	 viewBox="0 0 32 32" style="enable-background:new 0 0 32 32;" xml:space="preserve">
<style type="text/css">
	.st0{fill:#FFFFFF;}
</style>
<g>
	<g>
		<g>
			<g>
				<path class="st0" d="M16,32c-0.1,0-0.1,0-0.2-0.1c-2-3.3-1.5-7-0.8-8.7c0.6-1.3,1.4-2.6,2.1-3.9c0.5-0.9,1-1.7,1.4-2.5
					c1-1.8,0.1-3.3-0.6-4.4c-0.7-1,0.6-4,1-4.8c0.4-0.6,0.5-1.1,0.3-1.5c-0.1-0.2-0.4-0.3-0.6-0.3c-0.2,0-0.5,0-0.7,0.1
					c-0.3,0.1-0.7,0.2-1.3,0.2c-0.4,0-0.8-0.1-1.1-0.1c-0.9-0.2-1.5-0.3-2,1c-0.5,1-0.8,1.6-1.1,2c-0.3,0.5-0.5,0.8-0.6,1.2
					c-0.1,0.5,0.5,0.9,1.2,1.3c0.2,0.1,0.4,0.2,0.5,0.3c0.1,0.1,0.3,0.3,0.3,0.3c0.1,0.1,0.1,0.2,0,0.3c-0.1,0.1-0.2,0.1-0.3,0
					c0,0-0.2-0.2-0.3-0.2c-0.1-0.1-0.3-0.2-0.5-0.3c-0.7-0.4-1.7-0.9-1.5-1.8c0.1-0.5,0.4-0.9,0.7-1.4c0.3-0.5,0.7-1,1.1-2
					c0.7-1.6,1.6-1.4,2.6-1.2c0.3,0.1,0.6,0.1,1,0.1c0.5,0,0.9-0.1,1.2-0.2c0.3,0,0.5-0.1,0.8-0.1c0.5,0,0.8,0.2,1,0.5
					c0.2,0.3,0.3,0.9-0.3,1.9c-0.6,1-1.5,3.7-1.1,4.3C19,13.3,20,15,18.9,17c-0.4,0.8-0.9,1.6-1.4,2.5c-0.7,1.3-1.5,2.6-2.1,3.9
					c-0.4,0.9-0.6,2.2-0.6,3.5c0,1.2,0.3,3,1.4,4.8c0,0.1,0,0.3-0.1,0.3C16.1,32,16,32,16,32z"/>
			</g>
			<g>
				<path class="st0" d="M16,32c0,0-0.1,0-0.1,0c-0.1-0.1-0.1-0.2,0-0.3l0,0c0,0,0.7-1.1,1.1-2.7c0.4-1.5,0.5-3.8-0.7-6.2
					c-1.6-3.2-2.5-5.2-2.8-6.7c-0.3-1.4-0.1-2.3,0.6-3.1c0.3-0.3,0.5-0.5,0.7-0.6c0.5-0.3,0.8-0.5,0.7-1.5c0-0.5-0.3-0.7-0.5-1
					C14.3,9.4,14.1,9,14.6,8c0.1-0.2,0.2-0.4,0.3-0.6c0.7-1.2,1-1.9,0.4-5.1c-0.2-1.2,0.3-1.8,0.6-2c0.5-0.4,1.3-0.3,1.8,0
					c0.5,0.4,0.7,1,0.6,1.6c-0.1,0.6,0,1,0,1.3c0,0,0,0.1,0,0.2c0,0.5-0.5,1.5-1.1,1.6c-0.2,0-0.5,0-0.5,0c-0.1,0-0.2-0.1-0.2-0.2
					s0.1-0.2,0.2-0.2s0.3,0,0.4,0c0.3,0,0.7-0.8,0.7-1.1c0,0,0-0.1,0-0.1c0-0.3-0.1-0.8,0-1.5c0.1-0.6-0.2-1-0.4-1.1
					c-0.4-0.3-1-0.3-1.3,0c-0.4,0.3-0.5,0.8-0.4,1.5c0.6,3.4,0.2,4.1-0.5,5.4c-0.1,0.2-0.2,0.4-0.3,0.6c-0.4,0.8-0.2,1,0.1,1.3
					c0.3,0.2,0.6,0.5,0.7,1.3c0.1,1.3-0.4,1.6-0.9,2c-0.2,0.1-0.4,0.3-0.6,0.5c-1,1.1-1,2.9,2.3,9.2c1.3,2.6,1.1,5,0.8,6.6
					c-0.4,1.7-1.1,2.8-1.2,2.9C16.1,31.9,16.1,32,16,32z"/>
			</g>
			<g>
				<path class="st0" d="M17.8,32c0,0-0.1,0-0.1,0c-0.1,0-0.1-0.1-0.1-0.2c0-1.8,0.5-3.5,1.5-5.1c0.9-1.5,2.2-2.6,3.8-3.4
					c0.1,0,0.2,0,0.2,0c0.1,0,0.1,0.1,0.1,0.2c0,1.8-0.5,3.6-1.5,5.1c-0.9,1.5-2.2,2.6-3.8,3.4C17.8,32,17.8,32,17.8,32z M18,31.7
					L18,31.7L18,31.7z M22.6,23.8c-2.7,1.5-4.5,4.4-4.6,7.5C20.8,29.8,22.5,27,22.6,23.8z M22.9,23.7L22.9,23.7L22.9,23.7z"/>
			</g>
			<g>
				<path class="st0" d="M14.2,32C14.2,32,14.1,32,14.2,32c-1.6-0.8-2.9-2-3.9-3.5c-1-1.5-1.5-3.2-1.5-5.1c0-0.1,0-0.2,0.1-0.2
					c0.1,0,0.2,0,0.2,0c1.5,0.8,2.8,2,3.8,3.4c1,1.5,1.5,3.2,1.5,5.1C14.4,31.8,14.4,31.9,14.2,32C14.3,32,14.2,32,14.2,32z
					 M14.3,31.5L14.3,31.5L14.3,31.5z M9.3,23.8c0.1,3.1,1.9,6,4.6,7.5C13.8,28.2,12.1,25.3,9.3,23.8z M9,23.7L9,23.7L9,23.7z
					 M9.3,23.4L9.3,23.4L9.3,23.4z"/>
			</g>
		</g>
	</g>
</g>
</svg>
