<svg xmlns="http://www.w3.org/2000/svg" xmlns:xlink="http://www.w3.org/1999/xlink" width="80" height="80" viewBox="0 0 80 80">
  <defs>
    <clipPath id="clip-path">
      <rect id="Rectángulo_267" data-name="Rectángulo 267" width="50.381" height="48.253" fill="#064d5e"/>
    </clipPath>
    <clipPath id="clip-icono_md_2">
      <rect width="80" height="80"/>
    </clipPath>
  </defs>
  <g id="icono_md_2" clip-path="url(#clip-icono_md_2)">
    <g id="Grupo_650" data-name="Grupo 650" transform="translate(-555.5 -1486.199)">
      <g id="Grupo_615" data-name="Grupo 615" transform="translate(561.5 1492.199)">
        <ellipse id="Elipse_2" data-name="Elipse 2" cx="33.679" cy="33.679" rx="33.679" ry="33.679" transform="translate(0 0)" fill="#fff"/>
      </g>
      <g id="Grupo_629" data-name="Grupo 629" transform="translate(570.31 1501.752)">
        <g id="Grupo_628" data-name="Grupo 628" clip-path="url(#clip-path)">
          <path id="Trazado_347" data-name="Trazado 347" d="M25.191,6.531A17.616,17.616,0,1,0,37.627,11.69,17.6,17.6,0,0,0,25.191,6.531Zm0,33.359a15.78,15.78,0,1,1,11.141-4.622A15.763,15.763,0,0,1,25.191,39.89Zm7.254-21.166h0a.916.916,0,0,1,.166,1.285L23.991,31.2a.914.914,0,0,1-.726.357h0a.918.918,0,0,1-.726-.36l-4.769-6.236h0a.917.917,0,0,1,1.456-1.114l4.043,5.287L31.159,18.89h0a.915.915,0,0,1,1.286-.166ZM47.862,28.5c1.181-1.229,2.518-2.623,2.518-4.369s-1.338-3.14-2.518-4.369a7.748,7.748,0,0,1-1.825-2.405,8.038,8.038,0,0,1,.047-3.152c.232-1.735.471-3.53-.513-4.883S42.784,7.625,41.052,7.31h0a7.935,7.935,0,0,1-2.98-.913,7.883,7.883,0,0,1-1.759-2.524c-.839-1.563-1.7-3.18-3.336-3.709C31.412-.345,29.8.431,28.232,1.18h0A8.115,8.115,0,0,1,25.19,2.214,8.125,8.125,0,0,1,22.148,1.18C20.585.431,18.97-.344,17.4.164c-1.631.529-2.5,2.146-3.336,3.709A7.879,7.879,0,0,1,12.31,6.4a7.952,7.952,0,0,1-2.98.913c-1.733.315-3.524.641-4.52,2.009-.985,1.352-.745,3.147-.513,4.883h0a8.04,8.04,0,0,1,.047,3.153,7.748,7.748,0,0,1-1.825,2.405C1.338,20.988,0,22.381,0,24.127s1.338,3.14,2.518,4.369A7.748,7.748,0,0,1,4.344,30.9,8.042,8.042,0,0,1,4.3,34.054c-.231,1.735-.471,3.53.513,4.883S7.6,40.63,9.329,40.945h0a7.943,7.943,0,0,1,2.98.913,7.884,7.884,0,0,1,1.759,2.524c.839,1.563,1.7,3.18,3.336,3.709,1.564.509,3.18-.267,4.744-1.016h0a8.113,8.113,0,0,1,3.042-1.034,8.107,8.107,0,0,1,3.042,1.034,9.042,9.042,0,0,0,3.688,1.178,3.373,3.373,0,0,0,1.055-.163c1.631-.529,2.5-2.146,3.336-3.709a7.875,7.875,0,0,1,1.759-2.524,7.944,7.944,0,0,1,2.98-.913c1.733-.315,3.524-.641,4.52-2.009.984-1.352.745-3.147.513-4.883h0a8.042,8.042,0,0,1-.047-3.153A7.756,7.756,0,0,1,47.862,28.5Zm-3.569,1.839h0a9.2,9.2,0,0,0-.027,3.961c.184,1.378.374,2.8-.178,3.561-.563.774-1.987,1.033-3.365,1.283a9.1,9.1,0,0,0-3.731,1.234,9.018,9.018,0,0,0-2.3,3.14c-.667,1.244-1.356,2.53-2.286,2.832-.867.28-2.147-.332-3.385-.926h0a9.3,9.3,0,0,0-3.835-1.213,9.3,9.3,0,0,0-3.835,1.214c-1.237.594-2.518,1.205-3.385.926-.93-.3-1.619-1.588-2.286-2.832h0a9.013,9.013,0,0,0-2.3-3.14,9.1,9.1,0,0,0-3.731-1.234c-1.377-.251-2.8-.51-3.365-1.283S5.93,35.674,6.114,34.3a9.2,9.2,0,0,0-.027-3.961,8.874,8.874,0,0,0-2.247-3.108c-.987-1.029-2.007-2.091-2.007-3.1s1.02-2.071,2.007-3.1a8.873,8.873,0,0,0,2.247-3.108,9.2,9.2,0,0,0,.027-3.961c-.184-1.378-.374-2.8.178-3.561.563-.774,1.987-1.033,3.365-1.283A9.1,9.1,0,0,0,13.389,7.88a9.017,9.017,0,0,0,2.3-3.14c.667-1.244,1.356-2.53,2.286-2.832.864-.281,2.146.331,3.385.926a9.3,9.3,0,0,0,3.835,1.214,9.3,9.3,0,0,0,3.835-1.214c1.238-.593,2.519-1.205,3.385-.926.93.3,1.619,1.588,2.286,2.832h0a9.013,9.013,0,0,0,2.3,3.14,9.1,9.1,0,0,0,3.731,1.234c1.377.251,2.8.51,3.365,1.283s.363,2.184.178,3.562a9.2,9.2,0,0,0,.027,3.961,8.874,8.874,0,0,0,2.247,3.108c.987,1.028,2.007,2.091,2.007,3.1s-1.02,2.071-2.007,3.1a8.87,8.87,0,0,0-2.247,3.109Z" transform="translate(0 -0.001)" fill="#064d5e"/>
        </g>
      </g>
    </g>
  </g>
</svg>
