<?xml version="1.0" encoding="utf-8"?>
<!-- Generator: Adobe Illustrator 26.0.1, SVG Export Plug-In . SVG Version: 6.00 Build 0)  -->
<svg version="1.1" id="Capa_1" xmlns="http://www.w3.org/2000/svg" xmlns:xlink="http://www.w3.org/1999/xlink" x="0px" y="0px"
	 viewBox="0 0 232 33" style="enable-background:new 0 0 232 33;" xml:space="preserve">
<style type="text/css">
	.st0{fill:#032B47;}
</style>
<path class="st0" d="M30.5,0v33h-5.9V5.4l-8,27.5h-3.9l-8-27.6V33H0V0h8.8l6.7,23.8L22,0H30.5z"/>
<path class="st0" d="M75,0l8.6,33h-5.9l-2-8.4h-9.8l-2,8.4h-5.5l9.2-33H75z M66.7,20.9h8.1L70.7,3.8L66.7,20.9z"/>
<path class="st0" d="M118.9,0v33h-5.8V0H118.9z"/>
<path class="st0" d="M174,16c0,11.3-4,17-12,17c-4.4,0-7.5-1.5-9.3-4.4s-2.8-6.9-2.8-12c0-5,0.9-9,2.9-12c1.9-3,5-4.5,9.2-4.6
	C170,0,174,5.3,174,16z M166.9,26c0.9-3.1,1.3-6.4,1.2-9.6c0.1-3.2-0.3-6.3-1.2-9.4c-0.7-2.7-3.5-4.3-6.3-3.6
	c-1.7,0.5-3.1,1.8-3.6,3.6c-0.9,3-1.3,6.2-1.2,9.3c-0.1,3.3,0.3,6.5,1.1,9.7c0.8,2.7,3.6,4.3,6.4,3.5C165.1,29,166.4,27.7,166.9,26
	L166.9,26z"/>
<path class="st0" d="M228.1,15c-1.1,1.6-2.8,2.7-4.7,3.2L232,33h-6.4l-8.9-15.7c-0.2-0.3-0.3-0.6-0.3-1c2.5,0,4.3-0.6,5.5-1.7
	s1.8-2.9,1.8-5.2c0.1-1.6-0.4-3.2-1.5-4.4c-1.3-1.1-3-1.6-4.6-1.5c-1.1,0-2.1,0.1-3.2,0.2V33h-5.8V0.4c3.9-0.3,7-0.4,9.4-0.4
	c7.8,0,11.8,3.1,11.8,9.2C229.8,11.3,229.2,13.3,228.1,15z"/>
</svg>
