<?xml version="1.0" encoding="utf-8"?>
<!-- Generator: Adobe Illustrator 26.0.1, SVG Export Plug-In . SVG Version: 6.00 Build 0)  -->
<svg version="1.1" id="Capa_1" xmlns="http://www.w3.org/2000/svg" xmlns:xlink="http://www.w3.org/1999/xlink" x="0px" y="0px"
	 viewBox="0 0 267.6 70.5" style="enable-background:new 0 0 267.6 70.5;" xml:space="preserve">
<style type="text/css">
	.st0{fill:#0833A2;}
	.st1{opacity:0.94;fill:#0833A2;}
	.st2{fill:#C6C6C6;}
</style>
<g>
	<g>
		<path class="st0" d="M65.2,18.1c5.1,0,10.6,3,10.6,9.5c0,6.7-5.5,9.6-10.3,9.6h-9.4v-0.3l1.7-0.2V18.5l-1.7-0.2v-0.3H65.2z
			 M70.7,27.6c0-6.9-2.6-9-5.9-9h-2.5v18h3C68.6,36.6,70.7,34.3,70.7,27.6z"/>
		<path class="st0" d="M108.7,31.9l-3.5,4.6c-0.3,0.2-1.5,0.3-2.1,0.4h0c0,0-0.1,0-0.1,0c-0.1,0-0.1,0-0.2,0c0,0-0.1,0-0.1,0
			c0,0,0,0-0.1,0c-3.2-0.2-4.7-3.1-4.7-9.1c0,0,0-0.1,0-0.1v0c0,0,0-0.1,0-0.1c0-5.9,1.4-8.9,4.6-9.1c0,0,0,0,0.1,0c0,0,0,0,0.1,0
			c0,0,0.1,0,0.1,0c0,0,0.1,0,0.2,0c0,0,0.1,0,0.1,0h0c0.6,0,1.7,0.1,2.1,0.4l3.5,4.6h0.2c0,0,0.3-2.8,0.3-4.3
			c-1.5-0.7-3.7-1.1-5.6-1.2c0,0,0,0,0,0c-0.2,0-0.3,0-0.5,0c0,0-0.1,0-0.1,0c-6.1,0-10.1,3.8-10.1,9.7c0,0,0,0.1,0,0.1
			c0,0,0,0.1,0,0.1c0.1,5.9,4.1,9.7,10.1,9.7c0.2,0,0.4,0,0.6,0c0,0,0,0,0,0c1.9-0.1,4.1-0.5,5.6-1.2c0-1.6-0.3-4.3-0.3-4.3H108.7z"
			/>
		<path class="st0" d="M183,18.1h8v0.3l-1.7,0.2v12.9c0,3.8-2.7,6.1-6.8,6.1c-1.7,0-4.8-1.2-4.8-1.2l0.2-5.6h0.2l4.2,6.2
			c0.1,0.1,0.2,0.1,0.4,0.1c1.4,0,2.1-1.2,2.1-4.9V18.5l-1.7-0.2V18.1z"/>
		<polygon class="st0" points="86.5,18.5 86.5,36.8 88.2,36.9 88.2,37.2 80.3,37.2 80.3,36.9 82,36.8 82,18.5 80.3,18.3 80.3,18.1 
			88.2,18.1 88.2,18.3 		"/>
		<path class="st0" d="M195.2,27.6c0-5.8,4.1-9.9,9.9-9.9c5.8,0,9.8,4.1,9.8,9.9c0,5.8-4,9.8-9.8,9.8
			C199.2,37.4,195.2,33.4,195.2,27.6z M209.8,27.6c0-6.5-1.5-9.2-4.7-9.2c-3.3,0-4.7,2.8-4.7,9.2s1.4,9.2,4.7,9.2
			C208.3,36.9,209.8,34.1,209.8,27.6z"/>
		<path class="st0" d="M220,27.6c0-5.8,4.1-9.9,9.9-9.9c5.8,0,9.8,4.1,9.8,9.9c0,5.8-4,9.8-9.8,9.8C224.1,37.4,220,33.4,220,27.6z
			 M234.6,27.6c0-6.5-1.5-9.2-4.7-9.2c-3.3,0-4.7,2.8-4.7,9.2s1.4,9.2,4.7,9.2C233.2,36.9,234.6,34.1,234.6,27.6z"/>
		<path class="st0" d="M27.9,36.8V18.5l1.7-0.2v-0.3h-6l-6.5,13.8l-6.3-13.8H4.6v0.3l1.7,0.2v17.4l-2.5,1.1v0.3h5.7v-0.3l-2.5-1.1
			V20.1l7.5,16.7h1.3l7.6-16.5v16.4l-1.7,0.2v0.3h8v-0.3L27.9,36.8z"/>
		<path class="st0" d="M147.7,36.8V18.5l1.7-0.2v-0.3h-6l-6.5,13.8l-6.3-13.8h-6.2v0.3l1.7,0.2v17.4l-2.5,1.1v0.3h5.7v-0.3l-2.5-1.1
			V20.1l7.5,16.7h1.3l7.6-16.5v16.4l-1.7,0.2v0.3h8v-0.3L147.7,36.8z"/>
		<polygon class="st0" points="49.8,31.9 46.3,36.6 41.1,36.6 41.1,27.9 44.9,27.9 46,30.3 46.3,30.3 46.3,24.9 46,24.9 44.9,27.3 
			41.1,27.3 41.1,18.6 46.3,18.6 49.8,23.3 50,23.3 50.3,18.1 34.8,18.1 34.8,18.3 36.5,18.5 36.5,36.8 34.8,36.9 34.8,37.2 
			50.3,37.2 50,31.9 		"/>
		<path class="st1" d="M262.1,36.8l-3.5-9c2.1-0.7,3.5-2.2,3.5-4.2c0-0.1,0-0.5,0-0.6c0-2.7-2.3-4.2-5.3-4.7c-0.6-0.1-1.3-0.1-2-0.1
			h-2.5h-1.7h-6.3v0.3l1.7,0.2v18.3l-1.7,0.2v0.3h8v-0.3l-1.7-0.2V18.6h3.3c0.5,0,1,0.1,1.4,0.2c1.1,0.4,2,1.3,2.2,3c0,0,0,0,0,0
			c0.1,0.4,0.1,0.9,0.1,1.4c0,0.5,0,0.9-0.1,1.3c0,0,0,0,0,0c-0.3,1.7-1.1,2.6-2.2,3c-0.4,0.1-0.9,0.2-1.4,0.2h-2.5v0.6h2.7l3.2,8.4
			l-1.7,0.2v0.3h8.3v-0.3L262.1,36.8z"/>
		<g>
			<polygon class="st0" points="171.6,36.8 164.4,18.1 163,18.1 162.4,18.1 155.3,35.9 152.8,36.9 152.8,37.2 154.8,37.2 
				155.5,37.2 158.5,37.2 158.5,36.9 156,35.9 161.3,22.5 166.7,36.8 165,36.9 165,37.2 173.3,37.2 173.3,36.9 			"/>
			<polygon class="st0" points="165.9,30 165.9,30.6 158.8,30.6 159.1,30 			"/>
		</g>
	</g>
	<g>
		<path class="st2" d="M57.8,52.6h-4.1v-5.9h4.1v0.9h-2.9v1.6h2.8V50h-2.8v1.7h2.9V52.6z"/>
		<path class="st2" d="M61.4,51c0.1,0.5,0.6,0.9,1.4,0.9c0.8,0,1.3-0.4,1.3-0.8c0-0.4-0.3-0.7-1.1-0.9L62.2,50
			c-1.2-0.3-1.7-0.8-1.7-1.6c0-1.1,1-1.8,2.3-1.8c1.4,0,2.3,0.7,2.3,1.8h-1.1c-0.1-0.6-0.5-0.9-1.3-0.9c-0.7,0-1.2,0.3-1.2,0.8
			c0,0.4,0.3,0.6,1.1,0.8l0.7,0.2c1.3,0.3,1.8,0.8,1.8,1.7c0,1.1-1,1.8-2.5,1.8c-1.4,0-2.4-0.7-2.4-1.8H61.4z"/>
		<path class="st2" d="M70.3,46.7c1.2,0,2.1,0.8,2.1,2s-0.9,2-2.2,2H69v2h-1.1v-5.9H70.3z M69,49.8h1c0.8,0,1.3-0.4,1.3-1.1
			c0-0.7-0.5-1.1-1.3-1.1h-1V49.8z"/>
		<path class="st2" d="M79.1,52.6H75v-5.9h4.1v0.9h-2.9v1.6h2.8V50h-2.8v1.7h2.9V52.6z"/>
		<path class="st2" d="M81.6,49.7c0-1.9,1.1-3.1,2.9-3.1c1.5,0,2.6,0.9,2.7,2.1h-1.1c-0.1-0.7-0.8-1.2-1.6-1.2
			c-1.1,0-1.8,0.8-1.8,2.2c0,1.3,0.7,2.2,1.8,2.2c0.8,0,1.4-0.4,1.6-1.1h1.1c-0.2,1.3-1.2,2-2.7,2C82.7,52.7,81.6,51.6,81.6,49.7z"
			/>
		<path class="st2" d="M89.8,52.6v-5.9H91v5.9H89.8z"/>
		<path class="st2" d="M97.4,51.1h-2.3l-0.5,1.5h-1.2l2.2-5.9h1.3l2.2,5.9h-1.2L97.4,51.1z M95.4,50.3h1.8l-0.9-2.5h0L95.4,50.3z"/>
		<path class="st2" d="M105.5,52.6h-4v-5.9h1.1v5h2.8V52.6z"/>
		<path class="st2" d="M108.1,52.6v-5.9h1.1v5.9H108.1z"/>
		<path class="st2" d="M114.4,46.7c1.9,0,3,1.1,3,3s-1.1,3-3,3h-2.3v-5.9H114.4z M113.2,51.7h1.1c1.3,0,2-0.7,2-2.1
			c0-1.3-0.7-2.1-2-2.1h-1.1V51.7z"/>
		<path class="st2" d="M123.4,51.1h-2.3l-0.5,1.5h-1.2l2.2-5.9h1.3l2.2,5.9h-1.2L123.4,51.1z M121.3,50.3h1.8l-0.9-2.5h0L121.3,50.3
			z"/>
		<path class="st2" d="M129.8,46.7c1.9,0,3,1.1,3,3s-1.1,3-3,3h-2.3v-5.9H129.8z M128.7,51.7h1.1c1.3,0,2-0.7,2-2.1
			c0-1.3-0.7-2.1-2-2.1h-1.1V51.7z"/>
		<path class="st2" d="M139.5,52.6h-4.1v-5.9h4.1v0.9h-2.9v1.6h2.8V50h-2.8v1.7h2.9V52.6z"/>
		<path class="st2" d="M143.1,51c0.1,0.5,0.6,0.9,1.4,0.9c0.8,0,1.3-0.4,1.3-0.8c0-0.4-0.3-0.7-1.1-0.9l-0.8-0.2
			c-1.2-0.3-1.7-0.8-1.7-1.6c0-1.1,1-1.8,2.3-1.8c1.4,0,2.3,0.7,2.3,1.8h-1.1c-0.1-0.6-0.5-0.9-1.3-0.9c-0.7,0-1.2,0.3-1.2,0.8
			c0,0.4,0.3,0.6,1.1,0.8l0.7,0.2c1.3,0.3,1.8,0.8,1.8,1.7c0,1.1-1,1.8-2.5,1.8c-1.4,0-2.4-0.7-2.4-1.8H143.1z"/>
		<path class="st2" d="M157.2,52.6h-4.1v-5.9h4.1v0.9h-2.9v1.6h2.8V50h-2.8v1.7h2.9V52.6z"/>
		<path class="st2" d="M160.7,51c0.1,0.5,0.6,0.9,1.4,0.9c0.8,0,1.3-0.4,1.3-0.8c0-0.4-0.3-0.7-1.1-0.9l-0.8-0.2
			c-1.2-0.3-1.7-0.8-1.7-1.6c0-1.1,1-1.8,2.3-1.8c1.4,0,2.3,0.7,2.3,1.8h-1.1c-0.1-0.6-0.5-0.9-1.3-0.9c-0.7,0-1.2,0.3-1.2,0.8
			c0,0.4,0.3,0.6,1.1,0.8l0.7,0.2c1.3,0.3,1.8,0.8,1.8,1.7c0,1.1-1,1.8-2.5,1.8c-1.4,0-2.4-0.7-2.4-1.8H160.7z"/>
		<path class="st2" d="M168.7,52.6v-5h-1.9v-0.9h4.9v0.9h-1.9v5H168.7z"/>
		<path class="st2" d="M178.3,52.6h-4.1v-5.9h4.1v0.9h-2.9v1.6h2.8V50h-2.8v1.7h2.9V52.6z M175.9,46.2l1-1.2h1.1l-1.1,1.2H175.9z"/>
		<path class="st2" d="M182.6,52.6v-5h-1.9v-0.9h4.9v0.9h-1.9v5H182.6z"/>
		<path class="st2" d="M188.1,52.6v-5.9h1.1v5.9H188.1z"/>
		<path class="st2" d="M191.9,49.7c0-1.9,1.1-3.1,2.9-3.1c1.5,0,2.6,0.9,2.7,2.1h-1.1c-0.1-0.7-0.8-1.2-1.6-1.2
			c-1.1,0-1.8,0.8-1.8,2.2c0,1.3,0.7,2.2,1.8,2.2c0.8,0,1.4-0.4,1.6-1.1h1.1c-0.2,1.3-1.2,2-2.7,2C193,52.7,191.9,51.6,191.9,49.7z"
			/>
		<path class="st2" d="M203.6,51.1h-2.3l-0.5,1.5h-1.2l2.2-5.9h1.3l2.2,5.9h-1.2L203.6,51.1z M201.5,50.3h1.8l-0.9-2.5h0L201.5,50.3
			z"/>
		<path class="st2" d="M208.5,51c0.1,0.5,0.6,0.9,1.4,0.9c0.8,0,1.3-0.4,1.3-0.8c0-0.4-0.3-0.7-1.1-0.9l-0.8-0.2
			c-1.2-0.3-1.7-0.8-1.7-1.6c0-1.1,1-1.8,2.3-1.8c1.4,0,2.3,0.7,2.3,1.8h-1.1c-0.1-0.6-0.5-0.9-1.3-0.9c-0.7,0-1.2,0.3-1.2,0.8
			c0,0.4,0.3,0.6,1.1,0.8l0.7,0.2c1.3,0.3,1.8,0.8,1.8,1.7c0,1.1-1,1.8-2.5,1.8c-1.4,0-2.4-0.7-2.4-1.8H208.5z"/>
	</g>
</g>
</svg>
