<?xml version="1.0" encoding="utf-8"?>
<!-- Generator: Adobe Illustrator 26.0.1, SVG Export Plug-In . SVG Version: 6.00 Build 0)  -->
<svg version="1.1" id="Capa_1" xmlns="http://www.w3.org/2000/svg" xmlns:xlink="http://www.w3.org/1999/xlink" x="0px" y="0px"
	 viewBox="0 0 108.8 55" style="enable-background:new 0 0 108.8 55;" xml:space="preserve">
<style type="text/css">
	.st0{fill:#04357F;}
	.st1{fill:#606060;}
</style>
<g>
	<g>
		<path class="st0" d="M60.6,0.3c4.9,0,10.1,3,10.1,9.5c0,6.7-5.2,9.6-9.8,9.6h-8.9v-0.3l1.6-0.2V0.7L52,0.5V0.3H60.6z M65.9,9.9
			c0-6.9-2.5-9-5.6-9h-2.4v18c1.3,0,1.8,0,2.8,0C63.9,18.9,65.9,16.5,65.9,9.9z"/>
		<path class="st0" d="M106.2,13.8h0.2l0.2,4.3c-1.5,0.9-3.7,1.7-5.9,1.7c-5.9,0-9.6-4-9.6-9.8c0-6,3.8-9.9,9.7-9.9
			c2,0,4.2,0.6,5.8,1.3l-0.2,4.6h-0.2l-3.4-5c-0.4-0.2-1.6-0.3-2.1-0.3c-3.3,0-4.7,2.9-4.7,9.1c0,6.5,1.5,9.3,4.6,9.3
			c0.6,0,1.9,0,2.2-0.2L106.2,13.8z"/>
		<polygon class="st0" points="45.3,13.8 41.9,18.9 36.9,18.9 36.9,10.2 40.5,10.2 41.6,12.7 41.9,12.7 41.9,7 41.6,7 40.5,9.6 
			36.9,9.6 36.9,0.8 41.9,0.8 45.2,5.9 45.4,5.9 45.6,0.3 31,0.3 31,0.5 32.6,0.7 32.6,19 31,19.2 31,19.4 45.6,19.4 45.4,13.8 		
			"/>
		<path class="st0" d="M22.9,19l1.6,0.2v0.3h-7.5v-0.3l1.6-0.2V2.6h0l-7.2,16.5h-1.3L3.1,2.4h0V18l2.7,1.1v0.3H0v-0.3L2.5,18V0.7
			L0.3,0.5V0.3h6.5l5.9,13.9L19,0.3h5.6v0.3l-1.6,0.1V19z"/>
		<path class="st0" d="M78.8,19V0.7l-1.6-0.1V0.3h7.5v0.3L83,0.7V19l1.6,0.1v0.3h-7.5v-0.3L78.8,19z"/>
		<g>
			<path class="st0" d="M22.9,45.4l1.6,0.2v0.3h-7.5v-0.3l1.6-0.2V29h0l-7.2,16.5h-1.3L3.1,28.8h0v15.7l2.7,1.1v0.3H0v-0.3l2.5-1.1
				V27.1l-2.2-0.1v-0.3h6.5l5.9,13.9L19,26.7h5.6v0.3l-1.6,0.1V45.4z"/>
			<path class="st0" d="M67,36.3c0-5.8,3.8-9.9,9.4-9.9c5.5,0,9.4,4.1,9.4,9.9c0,5.8-3.8,9.8-9.4,9.8C70.9,46.1,67,42.1,67,36.3z
				 M80.9,36.3c0-6.5-1.4-9.2-4.5-9.2c-3.1,0-4.5,2.7-4.5,9.2s1.4,9.2,4.5,9.2C79.5,45.4,80.9,42.8,80.9,36.3z"/>
			<path class="st0" d="M55.9,45.4V27.1l-1.6-0.1v-0.3h7.5v0.3l-1.6,0.1v18.4l1.6,0.1v0.3h-7.5v-0.3L55.9,45.4z"/>
			<path class="st0" d="M107.6,45.4l-4.2-9.1c1.8-0.8,3.1-2.2,3.1-4.2v-0.6c0-3.2-3.2-4.9-7-4.9H91v0.3l1.6,0.1v18.4L91,45.6v0.3
				h7.5v-0.3l-1.6-0.2V27.3h1.8c0.5,0,0.9,0.1,1.3,0.2c1.1,0.4,2,1.4,2.2,3.1c0,0,0,0,0,0c0.1,0.3,0.1,0.7,0.1,1.1c0,0,0,0,0,0.1v0
				c0,0,0,0.1,0,0.1c0,0.4,0,0.8-0.1,1.1c0,0,0,0,0,0c0,0.2-0.1,0.3-0.1,0.5c-0.3,1.5-1.1,2.3-2.1,2.7c-0.2,0.1-0.5,0.1-0.7,0.2
				c-0.1,0-0.3,0-0.4,0l0.2,0.5l3.9,8.5l-1.6,0.2v0.3h7.5v-0.3L107.6,45.4z"/>
			<polygon class="st0" points="47.4,45.4 40.6,26.7 38.9,26.7 32.1,44.5 29.8,45.6 29.8,45.9 35.3,45.9 35.3,45.6 32.8,44.5 
				37.7,31.1 42.9,45.4 40.8,45.6 40.8,45.9 49,45.9 49,45.6 			"/>
		</g>
	</g>
	<g>
		<path class="st1" d="M0.4,54.9v-4.2h2.7v0.6h-2v1.2H3v0.6H1.1v1.3h2v0.6H0.4z"/>
		<path class="st1" d="M6.5,55c-0.3,0-0.6-0.1-0.8-0.2c-0.2-0.1-0.4-0.3-0.6-0.5c-0.1-0.2-0.2-0.4-0.2-0.7h0.8c0,0.1,0,0.3,0.1,0.4
			c0.1,0.1,0.2,0.2,0.3,0.3c0.1,0.1,0.3,0.1,0.4,0.1c0.1,0,0.3,0,0.4-0.1c0.1,0,0.2-0.1,0.2-0.2s0.1-0.2,0.1-0.3
			c0-0.1,0-0.2-0.1-0.3C7,53.4,7,53.3,6.9,53.3c-0.1-0.1-0.2-0.1-0.4-0.2C6.3,53.1,6.2,53,6,53c-0.3-0.1-0.6-0.3-0.7-0.4
			C5.1,52.4,5,52.1,5,51.8c0-0.2,0.1-0.5,0.2-0.6c0.1-0.2,0.3-0.3,0.5-0.4c0.2-0.1,0.5-0.1,0.7-0.1c0.3,0,0.5,0,0.7,0.1
			c0.2,0.1,0.4,0.2,0.5,0.4c0.1,0.2,0.2,0.4,0.2,0.6H7.1c0-0.1,0-0.2-0.1-0.3c-0.1-0.1-0.1-0.2-0.2-0.2c-0.1-0.1-0.2-0.1-0.4-0.1
			c-0.1,0-0.2,0-0.3,0.1c-0.1,0-0.2,0.1-0.2,0.2c-0.1,0.1-0.1,0.2-0.1,0.3c0,0.1,0,0.2,0.1,0.3c0.1,0.1,0.1,0.1,0.2,0.2
			c0.1,0.1,0.2,0.1,0.3,0.1c0.1,0,0.3,0.1,0.4,0.1c0.2,0.1,0.4,0.2,0.6,0.2c0.2,0.1,0.3,0.2,0.4,0.4C7.9,53.3,8,53.5,8,53.8
			c0,0.2-0.1,0.4-0.2,0.6c-0.1,0.2-0.3,0.3-0.5,0.4C7.1,54.9,6.8,55,6.5,55z"/>
		<path class="st1" d="M9.9,54.9v-4.2h1.5c0.3,0,0.6,0.1,0.8,0.2c0.2,0.1,0.4,0.3,0.5,0.5c0.1,0.2,0.2,0.4,0.2,0.7
			c0,0.2-0.1,0.4-0.2,0.6c-0.1,0.2-0.3,0.3-0.5,0.5c-0.2,0.1-0.5,0.2-0.8,0.2h-0.8v1.6H9.9z M10.6,52.7h0.7c0.3,0,0.5-0.1,0.6-0.2
			c0.1-0.1,0.2-0.3,0.2-0.5c0-0.2-0.1-0.4-0.2-0.5c-0.1-0.1-0.3-0.2-0.6-0.2h-0.7V52.7z"/>
		<path class="st1" d="M14.7,54.9v-4.2h2.7v0.6h-2v1.2h1.8v0.6h-1.8v1.3h2v0.6H14.7z"/>
		<path class="st1" d="M21.2,55c-0.4,0-0.8-0.1-1.1-0.3c-0.3-0.2-0.5-0.4-0.7-0.8c-0.2-0.3-0.2-0.7-0.2-1.1c0-0.4,0.1-0.8,0.2-1.1
			c0.2-0.3,0.4-0.6,0.7-0.8c0.3-0.2,0.7-0.3,1.1-0.3c0.5,0,0.9,0.1,1.2,0.4s0.5,0.6,0.6,1h-0.8c-0.1-0.2-0.2-0.4-0.3-0.6
			c-0.2-0.1-0.4-0.2-0.7-0.2c-0.3,0-0.5,0.1-0.7,0.2c-0.2,0.1-0.3,0.3-0.4,0.5c-0.1,0.2-0.2,0.5-0.2,0.8c0,0.3,0.1,0.6,0.2,0.8
			c0.1,0.2,0.2,0.4,0.4,0.5c0.2,0.1,0.4,0.2,0.7,0.2c0.3,0,0.5-0.1,0.7-0.2c0.2-0.1,0.3-0.3,0.3-0.5H23c-0.1,0.4-0.3,0.8-0.6,1
			C22.1,54.9,21.7,55,21.2,55z"/>
		<path class="st1" d="M24.9,54.9v-4.2h0.7v4.2H24.9z"/>
		<path class="st1" d="M27.4,54.9l1.5-4.2h0.8l1.5,4.2h-0.8l-1.2-3.4l-1.2,3.4H27.4z M28.1,53.9l0.2-0.6h2.1l0.2,0.6H28.1z"/>
		<path class="st1" d="M33.1,54.9v-4.2h0.7v3.6h1.9v0.6H33.1z"/>
		<path class="st1" d="M37.6,54.9v-4.2h0.7v4.2H37.6z"/>
		<path class="st1" d="M40.3,54.9v-4.2h1.4c0.5,0,0.9,0.1,1.2,0.3c0.3,0.2,0.6,0.4,0.7,0.7c0.2,0.3,0.2,0.7,0.2,1.1
			c0,0.4-0.1,0.8-0.2,1.1c-0.2,0.3-0.4,0.6-0.7,0.7c-0.3,0.2-0.7,0.3-1.2,0.3H40.3z M41.1,54.3h0.6c0.4,0,0.7-0.1,0.9-0.2
			c0.2-0.1,0.4-0.3,0.5-0.5c0.1-0.2,0.1-0.5,0.1-0.8c0-0.3,0-0.6-0.1-0.8c-0.1-0.2-0.2-0.4-0.5-0.5c-0.2-0.1-0.5-0.2-0.9-0.2h-0.6
			V54.3z"/>
		<path class="st1" d="M45.2,54.9l1.5-4.2h0.8l1.5,4.2h-0.8l-1.2-3.4l-1.2,3.4H45.2z M45.9,53.9l0.2-0.6h2.1l0.2,0.6H45.9z"/>
		<path class="st1" d="M50.8,54.9v-4.2h1.4c0.5,0,0.9,0.1,1.2,0.3c0.3,0.2,0.6,0.4,0.7,0.7c0.2,0.3,0.2,0.7,0.2,1.1
			c0,0.4-0.1,0.8-0.2,1.1c-0.2,0.3-0.4,0.6-0.7,0.7c-0.3,0.2-0.7,0.3-1.2,0.3H50.8z M51.6,54.3h0.6c0.4,0,0.7-0.1,0.9-0.2
			c0.2-0.1,0.4-0.3,0.5-0.5s0.1-0.5,0.1-0.8c0-0.3,0-0.6-0.1-0.8s-0.2-0.4-0.5-0.5c-0.2-0.1-0.5-0.2-0.9-0.2h-0.6V54.3z"/>
		<path class="st1" d="M56.3,54.9v-4.2H59v0.6h-2v1.2h1.8v0.6H57v1.3h2v0.6H56.3z"/>
		<path class="st1" d="M62.3,55c-0.3,0-0.6-0.1-0.8-0.2s-0.4-0.3-0.6-0.5c-0.1-0.2-0.2-0.4-0.2-0.7h0.8c0,0.1,0,0.3,0.1,0.4
			c0.1,0.1,0.2,0.2,0.3,0.3c0.1,0.1,0.3,0.1,0.4,0.1c0.1,0,0.3,0,0.4-0.1c0.1,0,0.2-0.1,0.2-0.2C63,54,63,53.9,63,53.8
			c0-0.1,0-0.2-0.1-0.3c-0.1-0.1-0.1-0.2-0.3-0.2c-0.1-0.1-0.2-0.1-0.4-0.2c-0.1,0-0.3-0.1-0.4-0.1c-0.3-0.1-0.6-0.3-0.7-0.4
			c-0.2-0.2-0.3-0.4-0.3-0.7c0-0.2,0.1-0.5,0.2-0.6c0.1-0.2,0.3-0.3,0.5-0.4c0.2-0.1,0.5-0.1,0.7-0.1c0.3,0,0.5,0,0.7,0.1
			s0.4,0.2,0.5,0.4s0.2,0.4,0.2,0.6h-0.8c0-0.1,0-0.2-0.1-0.3c-0.1-0.1-0.1-0.2-0.2-0.2c-0.1-0.1-0.2-0.1-0.4-0.1
			c-0.1,0-0.2,0-0.3,0.1c-0.1,0-0.2,0.1-0.2,0.2c-0.1,0.1-0.1,0.2-0.1,0.3c0,0.1,0,0.2,0.1,0.3c0,0.1,0.1,0.1,0.2,0.2
			c0.1,0.1,0.2,0.1,0.3,0.1c0.1,0,0.3,0.1,0.4,0.1c0.2,0.1,0.4,0.2,0.6,0.2c0.2,0.1,0.3,0.2,0.4,0.4c0.1,0.2,0.2,0.4,0.2,0.6
			c0,0.2-0.1,0.4-0.2,0.6s-0.3,0.3-0.5,0.4C62.9,54.9,62.7,55,62.3,55z"/>
		<path class="st1" d="M68.4,54.9v-4.2h2.7v0.6h-2v1.2h1.8v0.6h-1.8v1.3h2v0.6H68.4z"/>
		<path class="st1" d="M74.4,55c-0.3,0-0.6-0.1-0.8-0.2c-0.2-0.1-0.4-0.3-0.6-0.5c-0.1-0.2-0.2-0.4-0.2-0.7h0.8c0,0.1,0,0.3,0.1,0.4
			c0.1,0.1,0.2,0.2,0.3,0.3c0.1,0.1,0.3,0.1,0.4,0.1c0.1,0,0.3,0,0.4-0.1c0.1,0,0.2-0.1,0.2-0.2c0.1-0.1,0.1-0.2,0.1-0.3
			c0-0.1,0-0.2-0.1-0.3c-0.1-0.1-0.1-0.2-0.3-0.2c-0.1-0.1-0.2-0.1-0.4-0.2c-0.1,0-0.3-0.1-0.4-0.1c-0.3-0.1-0.6-0.3-0.7-0.4
			c-0.2-0.2-0.3-0.4-0.3-0.7c0-0.2,0.1-0.5,0.2-0.6c0.1-0.2,0.3-0.3,0.5-0.4c0.2-0.1,0.5-0.1,0.7-0.1c0.3,0,0.5,0,0.7,0.1
			c0.2,0.1,0.4,0.2,0.5,0.4s0.2,0.4,0.2,0.6H75c0-0.1,0-0.2-0.1-0.3c-0.1-0.1-0.1-0.2-0.2-0.2c-0.1-0.1-0.2-0.1-0.4-0.1
			c-0.1,0-0.2,0-0.3,0.1c-0.1,0-0.2,0.1-0.2,0.2c-0.1,0.1-0.1,0.2-0.1,0.3c0,0.1,0,0.2,0.1,0.3c0,0.1,0.1,0.1,0.2,0.2
			s0.2,0.1,0.3,0.1c0.1,0,0.3,0.1,0.4,0.1c0.2,0.1,0.4,0.2,0.6,0.2c0.2,0.1,0.3,0.2,0.4,0.4c0.1,0.2,0.2,0.4,0.2,0.6
			c0,0.2-0.1,0.4-0.2,0.6c-0.1,0.2-0.3,0.3-0.5,0.4C75,54.9,74.8,55,74.4,55z"/>
		<path class="st1" d="M78.7,54.9v-3.6h-1.2v-0.6h3.2v0.6h-1.2v3.6H78.7z"/>
		<path class="st1" d="M82.5,54.9v-4.2h2.7v0.6h-2v1.2H85v0.6h-1.8v1.3h2v0.6H82.5z M83.2,50.5L83.1,50l1.3-0.8l0.1,0.6L83.2,50.5z"
			/>
		<path class="st1" d="M88.1,54.9v-3.6h-1.2v-0.6h3.2v0.6h-1.2v3.6H88.1z"/>
		<path class="st1" d="M91.9,54.9v-4.2h0.7v4.2H91.9z"/>
		<path class="st1" d="M96.5,55c-0.4,0-0.8-0.1-1.1-0.3c-0.3-0.2-0.5-0.4-0.7-0.8c-0.2-0.3-0.2-0.7-0.2-1.1c0-0.4,0.1-0.8,0.2-1.1
			c0.2-0.3,0.4-0.6,0.7-0.8c0.3-0.2,0.7-0.3,1.1-0.3c0.5,0,0.9,0.1,1.2,0.4c0.3,0.2,0.5,0.6,0.6,1h-0.8c-0.1-0.2-0.2-0.4-0.3-0.6
			c-0.2-0.1-0.4-0.2-0.7-0.2c-0.3,0-0.5,0.1-0.7,0.2c-0.2,0.1-0.3,0.3-0.4,0.5c-0.1,0.2-0.2,0.5-0.2,0.8c0,0.3,0.1,0.6,0.2,0.8
			c0.1,0.2,0.2,0.4,0.4,0.5c0.2,0.1,0.4,0.2,0.7,0.2c0.3,0,0.5-0.1,0.7-0.2c0.2-0.1,0.3-0.3,0.3-0.5h0.8c-0.1,0.4-0.3,0.8-0.6,1
			C97.4,54.9,97,55,96.5,55z"/>
		<path class="st1" d="M99.9,54.9l1.5-4.2h0.8l1.5,4.2H103l-1.2-3.4l-1.2,3.4H99.9z M100.6,53.9l0.2-0.6h2.1l0.2,0.6H100.6z"/>
		<path class="st1" d="M106.9,55c-0.3,0-0.6-0.1-0.8-0.2c-0.2-0.1-0.4-0.3-0.6-0.5s-0.2-0.4-0.2-0.7h0.8c0,0.1,0,0.3,0.1,0.4
			c0.1,0.1,0.2,0.2,0.3,0.3c0.1,0.1,0.3,0.1,0.4,0.1c0.1,0,0.3,0,0.4-0.1c0.1,0,0.2-0.1,0.2-0.2c0.1-0.1,0.1-0.2,0.1-0.3
			c0-0.1,0-0.2-0.1-0.3c-0.1-0.1-0.1-0.2-0.3-0.2c-0.1-0.1-0.2-0.1-0.4-0.2c-0.1,0-0.3-0.1-0.4-0.1c-0.3-0.1-0.6-0.3-0.7-0.4
			c-0.2-0.2-0.3-0.4-0.3-0.7c0-0.2,0.1-0.5,0.2-0.6c0.1-0.2,0.3-0.3,0.5-0.4c0.2-0.1,0.5-0.1,0.7-0.1c0.3,0,0.5,0,0.7,0.1
			c0.2,0.1,0.4,0.2,0.5,0.4s0.2,0.4,0.2,0.6h-0.8c0-0.1,0-0.2-0.1-0.3s-0.1-0.2-0.2-0.2c-0.1-0.1-0.2-0.1-0.4-0.1
			c-0.1,0-0.2,0-0.3,0.1c-0.1,0-0.2,0.1-0.2,0.2c-0.1,0.1-0.1,0.2-0.1,0.3c0,0.1,0,0.2,0.1,0.3c0,0.1,0.1,0.1,0.2,0.2
			c0.1,0.1,0.2,0.1,0.3,0.1c0.1,0,0.3,0.1,0.4,0.1c0.2,0.1,0.4,0.2,0.6,0.2c0.2,0.1,0.3,0.2,0.4,0.4c0.1,0.2,0.2,0.4,0.2,0.6
			c0,0.2-0.1,0.4-0.2,0.6c-0.1,0.2-0.3,0.3-0.5,0.4C107.5,54.9,107.3,55,106.9,55z"/>
	</g>
</g>
</svg>
