<?xml version="1.0" encoding="utf-8"?>
<!-- Generator: Adobe Illustrator 26.0.1, SVG Export Plug-In . SVG Version: 6.00 Build 0)  -->
<svg version="1.1" id="Capa_1" xmlns="http://www.w3.org/2000/svg" xmlns:xlink="http://www.w3.org/1999/xlink" x="0px" y="0px"
	 viewBox="0 0 267.6 112" style="enable-background:new 0 0 267.6 112;" xml:space="preserve">
<style type="text/css">
	.st0{fill:#04357F;}
	.st1{fill:#606060;}
</style>
<g>
	<g>
		<g>
			<path class="st0" d="M131.1,68c-0.2,0-0.3-0.1-0.4-0.2c-4.3-7.1-3.3-15-1.7-18.5c1.3-2.7,2.9-5.6,4.5-8.4
				c1.1-1.9,2.1-3.7,2.9-5.3c2-3.8,0.3-7-1.4-9.4c-1.5-2.1,1.2-8.6,2.3-10.3c0.8-1.3,1-2.4,0.7-3.1c-0.3-0.5-0.9-0.6-1.2-0.6
				c-0.5,0-1,0.1-1.5,0.2c-0.7,0.2-1.5,0.4-2.9,0.4c-0.8,0-1.6-0.2-2.3-0.3c-1.9-0.4-3.1-0.7-4.3,2c-1,2.1-1.8,3.4-2.4,4.3
				c-0.6,0.9-1.1,1.6-1.3,2.6c-0.3,1,1,1.8,2.6,2.7c0.4,0.2,0.8,0.4,1.1,0.7c0.3,0.2,0.7,0.6,0.7,0.7c0.2,0.2,0.2,0.5-0.1,0.7
				c-0.2,0.2-0.5,0.2-0.7-0.1c-0.1-0.1-0.4-0.4-0.5-0.5c-0.2-0.2-0.6-0.4-1-0.6c-1.5-0.8-3.6-2-3.1-3.8c0.3-1.1,0.8-1.9,1.5-2.9
				c0.6-1,1.4-2.2,2.4-4.2c1.6-3.4,3.5-3,5.4-2.5c0.7,0.2,1.4,0.3,2.1,0.3c1.2,0,1.9-0.2,2.6-0.3c0.5-0.1,1.1-0.3,1.7-0.3
				c0.9,0,1.7,0.4,2.1,1.1c0.4,0.7,0.6,2-0.7,4.1c-1.3,2.2-3.2,7.9-2.3,9.2c1.7,2.4,3.8,6.1,1.5,10.4c-0.8,1.6-1.9,3.4-3,5.3
				c-1.6,2.8-3.2,5.6-4.5,8.3c-0.9,1.9-1.4,4.6-1.3,7.4c0.1,2.5,0.6,6.3,2.9,10.2c0.1,0.2,0.1,0.5-0.2,0.7
				C131.3,68,131.2,68,131.1,68z"/>
		</g>
		<g>
			<path class="st0" d="M131.1,68c-0.1,0-0.2,0-0.3-0.1c-0.2-0.2-0.3-0.5-0.1-0.7l0,0c0,0,1.5-2.3,2.4-5.8c0.8-3.2,1.1-8.1-1.5-13.3
				c-3.5-6.8-5.4-11.2-6-14.3c-0.6-2.9-0.3-4.9,1.2-6.5c0.5-0.6,1.1-0.9,1.5-1.3c1-0.7,1.6-1.1,1.4-3.2c-0.1-1.1-0.6-1.6-1.2-2
				c-1-0.8-1.6-1.6-0.4-3.9c0.2-0.5,0.5-0.9,0.7-1.3c1.4-2.6,2.2-4,0.9-10.9c-0.5-2.6,0.6-3.8,1.3-4.3c1.1-0.7,2.7-0.7,3.9,0.1
				c1.1,0.8,1.6,2,1.3,3.5c-0.3,1.3-0.1,2.2,0,2.7c0,0.1,0,0.3,0.1,0.4c0.1,1-1.2,3.2-2.4,3.4c-0.4,0.1-1,0-1.1,0
				c-0.3,0-0.5-0.2-0.5-0.5c0-0.3,0.2-0.5,0.5-0.5c0.2,0,0.6,0,0.9,0c0.5-0.1,1.6-1.8,1.5-2.3c0-0.1,0-0.2,0-0.3
				c-0.1-0.6-0.3-1.7,0-3.1c0.3-1.4-0.4-2.1-0.9-2.4c-0.8-0.6-2-0.6-2.8-0.1c-0.9,0.6-1.2,1.7-0.9,3.2c1.4,7.2,0.5,8.8-1,11.5
				c-0.2,0.4-0.5,0.8-0.7,1.3c-0.9,1.7-0.5,2.1,0.2,2.7c0.6,0.5,1.4,1.2,1.5,2.7c0.3,2.7-0.8,3.4-1.9,4.1c-0.5,0.3-0.9,0.6-1.4,1.1
				c-2.2,2.4-2.1,6.1,4.9,19.7c2.8,5.5,2.4,10.6,1.6,14c-0.9,3.6-2.4,6-2.5,6.1C131.4,67.9,131.3,68,131.1,68z"/>
		</g>
		<g>
			<path class="st0" d="M134.9,68c-0.1,0-0.2,0-0.3-0.1c-0.1-0.1-0.2-0.3-0.2-0.4c0-3.8,1.1-7.5,3.1-10.7c2-3.1,4.7-5.7,8-7.3
				c0.2-0.1,0.3-0.1,0.5,0c0.2,0.1,0.2,0.3,0.2,0.4c0,3.8-1.1,7.5-3.1,10.7c-2,3.1-4.7,5.7-8,7.3C135.1,68,135,68,134.9,68z
				 M135.4,67.5C135.4,67.5,135.4,67.5,135.4,67.5C135.4,67.5,135.4,67.5,135.4,67.5z M145.3,50.7c-5.9,3.3-9.6,9.3-9.9,16
				C141.3,63.4,145,57.4,145.3,50.7z M146,50.3C146,50.3,146,50.3,146,50.3C146,50.3,146,50.3,146,50.3z"/>
		</g>
		<g>
			<path class="st0" d="M127.3,68c-0.1,0-0.2,0-0.2-0.1c-3.3-1.7-6.1-4.2-8-7.3c-2-3.2-3.1-6.9-3.1-10.7c0-0.2,0.1-0.3,0.2-0.4
				c0.2-0.1,0.3-0.1,0.5,0c3.3,1.7,6.1,4.2,8,7.3c2,3.2,3.1,6.9,3.1,10.7c0,0.2-0.1,0.3-0.2,0.4C127.5,68,127.4,68,127.3,68z
				 M127.6,67.1L127.6,67.1L127.6,67.1z M117,50.7c0.3,6.7,4,12.7,9.9,16C126.5,60,122.8,54,117,50.7z M116.3,50.3
				C116.3,50.3,116.3,50.3,116.3,50.3C116.3,50.3,116.3,50.3,116.3,50.3z M117,49.9C117,49.9,117,49.9,117,49.9
				C117,49.9,117,49.9,117,49.9z"/>
		</g>
	</g>
	<g>
		<g>
			<path class="st0" d="M75.2,78.3c5.2,0,10.7,3.2,10.7,10.1c0,7.2-5.6,10.3-10.4,10.3H66v-0.3l1.7-0.2V78.7L66,78.5v-0.3H75.2z
				 M80.8,88.5c0-7.3-2.6-9.6-6-9.6h-2.5v19.2c1.4,0,1.9,0,3,0C78.7,98.1,80.8,95.6,80.8,88.5z"/>
			<path class="st0" d="M121.2,92.6h0.2l0.2,4.5c-1.5,0.9-3.9,1.8-6.3,1.8c-6.3,0-10.2-4.3-10.2-10.5c0-6.4,4.1-10.5,10.3-10.5
				c2.1,0,4.5,0.6,6.2,1.4l-0.2,4.9h-0.2l-3.6-5.3c-0.4-0.3-1.7-0.3-2.3-0.3c-3.5,0-5,3.1-5,9.6c0,6.9,1.6,9.9,4.9,9.9
				c0.6,0,2,0,2.4-0.3L121.2,92.6z"/>
			<path class="st0" d="M163,98.2l1.7,0.2v0.3h-8v-0.3l1.7-0.2V80.8h0l-7.7,17.6h-1.4l-7.5-17.9h0v16.7l2.8,1.2v0.3h-6.1v-0.3
				l2.7-1.2V78.7l-2.3-0.1v-0.3h6.9l6.3,14.8l6.6-14.8h5.9v0.3l-1.7,0.1V98.2z"/>
			<polygon class="st0" points="60,92.6 56.4,98.1 51.1,98.1 51.1,88.8 54.9,88.8 56.1,91.5 56.4,91.5 56.4,85.4 56.1,85.4 
				54.9,88.2 51.1,88.2 51.1,78.9 56.4,78.9 60,84.3 60.2,84.3 60.4,78.3 44.8,78.3 44.8,78.5 46.6,78.7 46.6,98.2 44.8,98.4 
				44.8,98.7 60.4,98.7 60.2,92.6 			"/>
			<path class="st0" d="M37.5,98.2l1.7,0.2v0.3h-8v-0.3l1.7-0.2V80.8h0l-7.7,17.6h-1.4l-7.5-17.9h0v16.7l2.8,1.2v0.3h-6.1v-0.3
				l2.7-1.2V78.7l-2.3-0.1v-0.3h6.9L26.6,93l6.6-14.8h5.9v0.3l-1.7,0.1V98.2z"/>
			<path class="st0" d="M210,88.5c0-6.2,4.1-10.5,10-10.5c5.9,0,10,4.4,10,10.5c0,6.2-4.1,10.5-10,10.5C214,99,210,94.7,210,88.5z
				 M224.7,88.5c0-6.9-1.5-9.8-4.8-9.8c-3.3,0-4.8,2.9-4.8,9.8c0,6.9,1.5,9.8,4.8,9.8C223.2,98.2,224.7,95.4,224.7,88.5z"/>
			<path class="st0" d="M198.1,98.2V78.7l-1.7-0.1v-0.3h8v0.3l-1.7,0.1v19.6l1.7,0.1v0.3h-8v-0.3L198.1,98.2z"/>
			<path class="st0" d="M93.2,98.2V78.7l-1.7-0.1v-0.3h8v0.3l-1.7,0.1v19.6l1.7,0.1v0.3h-8v-0.3L93.2,98.2z"/>
			<path class="st0" d="M253.2,98.2l-4.4-9.7c2-0.8,3.3-2.3,3.3-4.4v-0.7c0-3.4-3.4-5.2-7.4-5.2h-9.1v0.3l1.7,0.1v19.6l-1.7,0.2v0.3
				h8v-0.3l-1.7-0.2V78.9h1.9c0.5,0,1,0.1,1.4,0.2c1.2,0.4,2.1,1.5,2.4,3.3c0,0,0,0,0,0c0.1,0.4,0.1,0.8,0.1,1.2c0,0,0,0,0,0.1v0
				c0,0,0,0.1,0,0.1c0,0.4,0,0.8-0.1,1.2c0,0,0,0,0,0c0,0.2-0.1,0.3-0.1,0.5c-0.4,1.5-1.2,2.4-2.3,2.8c-0.2,0.1-0.5,0.1-0.8,0.2
				c-0.2,0-0.3,0-0.5,0l0.3,0.6l4.1,9l-1.7,0.2v0.3h8v-0.3L253.2,98.2z"/>
			<polygon class="st0" points="189.1,98.2 181.8,78.3 180,78.3 172.8,97.2 170.3,98.4 170.3,98.7 176.2,98.7 176.2,98.4 
				173.4,97.2 178.7,83 184.3,98.2 182,98.4 182,98.7 190.8,98.7 190.8,98.4 			"/>
		</g>
		<g>
			<path class="st1" d="M59.3,111.9v-5.8H63v0.8h-2.7v1.7h2.5v0.8h-2.5v1.7H63v0.8H59.3z"/>
			<path class="st1" d="M67.7,112c-0.4,0-0.8-0.1-1.1-0.2c-0.3-0.1-0.6-0.4-0.8-0.6c-0.2-0.3-0.3-0.6-0.3-1h1.1c0,0.2,0,0.4,0.1,0.5
				c0.1,0.2,0.2,0.3,0.4,0.4c0.2,0.1,0.4,0.1,0.6,0.1c0.2,0,0.4,0,0.5-0.1c0.1-0.1,0.3-0.2,0.3-0.3c0.1-0.1,0.1-0.3,0.1-0.4
				c0-0.2,0-0.3-0.1-0.5c-0.1-0.1-0.2-0.2-0.4-0.3c-0.1-0.1-0.3-0.2-0.5-0.2c-0.2-0.1-0.4-0.1-0.6-0.2c-0.5-0.2-0.8-0.4-1-0.6
				c-0.2-0.2-0.3-0.6-0.3-1c0-0.3,0.1-0.6,0.2-0.9c0.2-0.2,0.4-0.4,0.7-0.6c0.3-0.1,0.6-0.2,1-0.2c0.4,0,0.7,0.1,1,0.2
				c0.3,0.1,0.5,0.3,0.7,0.6c0.2,0.2,0.3,0.5,0.3,0.9h-1.1c0-0.1,0-0.3-0.1-0.4s-0.2-0.2-0.3-0.3c-0.1-0.1-0.3-0.1-0.5-0.1
				c-0.2,0-0.3,0-0.4,0.1c-0.1,0.1-0.2,0.1-0.3,0.2c-0.1,0.1-0.1,0.2-0.1,0.4c0,0.2,0,0.3,0.1,0.4c0.1,0.1,0.2,0.2,0.3,0.3
				c0.1,0.1,0.3,0.1,0.5,0.2c0.2,0.1,0.4,0.1,0.6,0.2c0.3,0.1,0.5,0.2,0.8,0.3c0.2,0.1,0.4,0.3,0.6,0.5c0.1,0.2,0.2,0.5,0.2,0.8
				c0,0.3-0.1,0.6-0.2,0.8c-0.2,0.3-0.4,0.5-0.7,0.6C68.5,111.9,68.1,112,67.7,112z"/>
			<path class="st1" d="M72.3,111.9v-5.8h2.1c0.5,0,0.8,0.1,1.2,0.2c0.3,0.2,0.5,0.4,0.7,0.6c0.1,0.3,0.2,0.6,0.2,0.9
				c0,0.3-0.1,0.6-0.2,0.9c-0.1,0.3-0.4,0.5-0.7,0.6c-0.3,0.2-0.7,0.2-1.2,0.2h-1.1v2.2H72.3z M73.3,108.8h1c0.4,0,0.7-0.1,0.8-0.3
				c0.2-0.2,0.3-0.4,0.3-0.7c0-0.3-0.1-0.5-0.3-0.7c-0.2-0.2-0.5-0.3-0.8-0.3h-1V108.8z"/>
			<path class="st1" d="M79,111.9v-5.8h3.7v0.8H80v1.7h2.5v0.8H80v1.7h2.7v0.8H79z"/>
			<path class="st1" d="M88,112c-0.6,0-1.1-0.1-1.5-0.4c-0.4-0.3-0.7-0.6-1-1.1c-0.2-0.4-0.3-1-0.3-1.6c0-0.6,0.1-1.1,0.3-1.6
				c0.2-0.4,0.5-0.8,1-1.1c0.4-0.3,0.9-0.4,1.5-0.4c0.7,0,1.3,0.2,1.7,0.5s0.7,0.8,0.8,1.4h-1.1c-0.1-0.3-0.2-0.6-0.5-0.8
				c-0.2-0.2-0.6-0.3-1-0.3c-0.4,0-0.7,0.1-0.9,0.3c-0.3,0.2-0.5,0.4-0.6,0.7c-0.1,0.3-0.2,0.7-0.2,1.1s0.1,0.8,0.2,1.1
				c0.1,0.3,0.3,0.6,0.6,0.7c0.3,0.2,0.6,0.3,0.9,0.3c0.4,0,0.7-0.1,1-0.3c0.2-0.2,0.4-0.4,0.5-0.7h1.1c-0.1,0.6-0.4,1-0.8,1.4
				C89.2,111.8,88.7,112,88,112z"/>
			<path class="st1" d="M93.1,111.9v-5.8h1v5.8H93.1z"/>
			<path class="st1" d="M96.6,111.9l2.1-5.8h1.1l2.1,5.8h-1.1l-1.6-4.6l-1.6,4.6H96.6z M97.5,110.5l0.3-0.8h2.9l0.3,0.8H97.5z"/>
			<path class="st1" d="M104.4,111.9v-5.8h1v5h2.6v0.8H104.4z"/>
			<path class="st1" d="M110.6,111.9v-5.8h1v5.8H110.6z"/>
			<path class="st1" d="M114.4,111.9v-5.8h1.9c0.7,0,1.2,0.1,1.7,0.4c0.4,0.2,0.8,0.6,1,1c0.2,0.4,0.3,0.9,0.3,1.5
				c0,0.6-0.1,1.1-0.3,1.5c-0.2,0.4-0.5,0.8-1,1c-0.4,0.2-1,0.4-1.7,0.4H114.4z M115.4,111.1h0.8c0.5,0,0.9-0.1,1.2-0.2
				c0.3-0.2,0.5-0.4,0.6-0.7c0.1-0.3,0.2-0.7,0.2-1.1c0-0.4-0.1-0.8-0.2-1.1c-0.1-0.3-0.3-0.5-0.6-0.7c-0.3-0.2-0.7-0.3-1.2-0.3
				h-0.8V111.1z"/>
			<path class="st1" d="M121.1,111.9l2.1-5.8h1.1l2.1,5.8h-1.1l-1.6-4.6l-1.6,4.6H121.1z M122,110.5l0.3-0.8h2.9l0.3,0.8H122z"/>
			<path class="st1" d="M128.9,111.9v-5.8h1.9c0.7,0,1.2,0.1,1.7,0.4c0.4,0.2,0.8,0.6,1,1c0.2,0.4,0.3,0.9,0.3,1.5
				c0,0.6-0.1,1.1-0.3,1.5c-0.2,0.4-0.5,0.8-1,1c-0.4,0.2-1,0.4-1.7,0.4H128.9z M129.9,111.1h0.8c0.5,0,0.9-0.1,1.2-0.2
				c0.3-0.2,0.5-0.4,0.6-0.7c0.1-0.3,0.2-0.7,0.2-1.1c0-0.4-0.1-0.8-0.2-1.1s-0.3-0.5-0.6-0.7c-0.3-0.2-0.7-0.3-1.2-0.3h-0.8V111.1z
				"/>
			<path class="st1" d="M136.3,111.9v-5.8h3.7v0.8h-2.7v1.7h2.5v0.8h-2.5v1.7h2.7v0.8H136.3z"/>
			<path class="st1" d="M144.7,112c-0.4,0-0.8-0.1-1.1-0.2c-0.3-0.1-0.6-0.4-0.8-0.6c-0.2-0.3-0.3-0.6-0.3-1h1.1
				c0,0.2,0,0.4,0.1,0.5c0.1,0.2,0.2,0.3,0.4,0.4c0.2,0.1,0.4,0.1,0.6,0.1c0.2,0,0.4,0,0.5-0.1c0.1-0.1,0.3-0.2,0.3-0.3
				c0.1-0.1,0.1-0.3,0.1-0.4c0-0.2,0-0.3-0.1-0.5c-0.1-0.1-0.2-0.2-0.4-0.3c-0.1-0.1-0.3-0.2-0.5-0.2c-0.2-0.1-0.4-0.1-0.6-0.2
				c-0.5-0.2-0.8-0.4-1-0.6c-0.2-0.2-0.3-0.6-0.3-1c0-0.3,0.1-0.6,0.2-0.9c0.2-0.2,0.4-0.4,0.7-0.6c0.3-0.1,0.6-0.2,1-0.2
				c0.4,0,0.7,0.1,1,0.2c0.3,0.1,0.5,0.3,0.7,0.6c0.2,0.2,0.3,0.5,0.3,0.9h-1.1c0-0.1,0-0.3-0.1-0.4c-0.1-0.1-0.2-0.2-0.3-0.3
				c-0.1-0.1-0.3-0.1-0.5-0.1c-0.2,0-0.3,0-0.4,0.1c-0.1,0.1-0.2,0.1-0.3,0.2c-0.1,0.1-0.1,0.2-0.1,0.4c0,0.2,0,0.3,0.1,0.4
				c0.1,0.1,0.2,0.2,0.3,0.3c0.1,0.1,0.3,0.1,0.5,0.2c0.2,0.1,0.4,0.1,0.6,0.2c0.3,0.1,0.5,0.2,0.8,0.3c0.2,0.1,0.4,0.3,0.6,0.5
				c0.1,0.2,0.2,0.5,0.2,0.8c0,0.3-0.1,0.6-0.2,0.8s-0.4,0.5-0.7,0.6C145.5,111.9,145.1,112,144.7,112z"/>
			<path class="st1" d="M153,111.9v-5.8h3.7v0.8H154v1.7h2.5v0.8H154v1.7h2.7v0.8H153z"/>
			<path class="st1" d="M161.4,112c-0.4,0-0.8-0.1-1.1-0.2c-0.3-0.1-0.6-0.4-0.8-0.6c-0.2-0.3-0.3-0.6-0.3-1h1.1
				c0,0.2,0,0.4,0.1,0.5c0.1,0.2,0.2,0.3,0.4,0.4c0.2,0.1,0.4,0.1,0.6,0.1c0.2,0,0.4,0,0.5-0.1c0.1-0.1,0.3-0.2,0.3-0.3
				c0.1-0.1,0.1-0.3,0.1-0.4c0-0.2,0-0.3-0.1-0.5c-0.1-0.1-0.2-0.2-0.4-0.3c-0.1-0.1-0.3-0.2-0.5-0.2c-0.2-0.1-0.4-0.1-0.6-0.2
				c-0.5-0.2-0.8-0.4-1-0.6c-0.2-0.2-0.3-0.6-0.3-1c0-0.3,0.1-0.6,0.2-0.9c0.2-0.2,0.4-0.4,0.7-0.6c0.3-0.1,0.6-0.2,1-0.2
				c0.4,0,0.7,0.1,1,0.2c0.3,0.1,0.5,0.3,0.7,0.6c0.2,0.2,0.3,0.5,0.3,0.9h-1.1c0-0.1,0-0.3-0.1-0.4c-0.1-0.1-0.2-0.2-0.3-0.3
				c-0.1-0.1-0.3-0.1-0.5-0.1c-0.2,0-0.3,0-0.4,0.1c-0.1,0.1-0.2,0.1-0.3,0.2c-0.1,0.1-0.1,0.2-0.1,0.4c0,0.2,0,0.3,0.1,0.4
				c0.1,0.1,0.2,0.2,0.3,0.3c0.1,0.1,0.3,0.1,0.5,0.2c0.2,0.1,0.4,0.1,0.6,0.2c0.3,0.1,0.5,0.2,0.8,0.3c0.2,0.1,0.4,0.3,0.6,0.5
				c0.1,0.2,0.2,0.5,0.2,0.8c0,0.3-0.1,0.6-0.2,0.8s-0.4,0.5-0.7,0.6C162.2,111.9,161.9,112,161.4,112z"/>
			<path class="st1" d="M167.3,111.9v-5h-1.7v-0.8h4.4v0.8h-1.7v5H167.3z"/>
			<path class="st1" d="M172.5,111.9v-5.8h3.7v0.8h-2.7v1.7h2.5v0.8h-2.5v1.7h2.7v0.8H172.5z M173.5,105.8l-0.1-0.7l1.8-1l0.1,0.8
				L173.5,105.8z"/>
			<path class="st1" d="M180.3,111.9v-5h-1.7v-0.8h4.4v0.8h-1.7v5H180.3z"/>
			<path class="st1" d="M185.4,111.9v-5.8h1v5.8H185.4z"/>
			<path class="st1" d="M191.8,112c-0.6,0-1.1-0.1-1.5-0.4c-0.4-0.3-0.7-0.6-1-1.1c-0.2-0.4-0.3-1-0.3-1.6c0-0.6,0.1-1.1,0.3-1.6
				c0.2-0.4,0.5-0.8,1-1.1c0.4-0.3,0.9-0.4,1.5-0.4c0.7,0,1.3,0.2,1.7,0.5c0.4,0.3,0.7,0.8,0.8,1.4h-1.1c-0.1-0.3-0.2-0.6-0.5-0.8
				c-0.2-0.2-0.6-0.3-1-0.3c-0.4,0-0.7,0.1-0.9,0.3c-0.3,0.2-0.5,0.4-0.6,0.7c-0.1,0.3-0.2,0.7-0.2,1.1s0.1,0.8,0.2,1.1
				c0.1,0.3,0.3,0.6,0.6,0.7c0.3,0.2,0.6,0.3,0.9,0.3c0.4,0,0.7-0.1,1-0.3c0.2-0.2,0.4-0.4,0.5-0.7h1.1c-0.1,0.6-0.4,1-0.8,1.4
				C193.1,111.8,192.5,112,191.8,112z"/>
			<path class="st1" d="M196.5,111.9l2.1-5.8h1.1l2.1,5.8h-1.1l-1.6-4.6l-1.6,4.6H196.5z M197.4,110.5l0.3-0.8h2.9l0.3,0.8H197.4z"
				/>
			<path class="st1" d="M206.2,112c-0.4,0-0.8-0.1-1.1-0.2c-0.3-0.1-0.6-0.4-0.8-0.6c-0.2-0.3-0.3-0.6-0.3-1h1.1
				c0,0.2,0,0.4,0.1,0.5c0.1,0.2,0.2,0.3,0.4,0.4c0.2,0.1,0.4,0.1,0.6,0.1c0.2,0,0.4,0,0.5-0.1c0.1-0.1,0.3-0.2,0.3-0.3
				c0.1-0.1,0.1-0.3,0.1-0.4c0-0.2,0-0.3-0.1-0.5c-0.1-0.1-0.2-0.2-0.4-0.3c-0.1-0.1-0.3-0.2-0.5-0.2c-0.2-0.1-0.4-0.1-0.6-0.2
				c-0.5-0.2-0.8-0.4-1-0.6c-0.2-0.2-0.3-0.6-0.3-1c0-0.3,0.1-0.6,0.2-0.9c0.2-0.2,0.4-0.4,0.7-0.6c0.3-0.1,0.6-0.2,1-0.2
				c0.4,0,0.7,0.1,1,0.2c0.3,0.1,0.5,0.3,0.7,0.6c0.2,0.2,0.3,0.5,0.3,0.9h-1.1c0-0.1,0-0.3-0.1-0.4c-0.1-0.1-0.2-0.2-0.3-0.3
				c-0.1-0.1-0.3-0.1-0.5-0.1c-0.2,0-0.3,0-0.4,0.1c-0.1,0.1-0.2,0.1-0.3,0.2c-0.1,0.1-0.1,0.2-0.1,0.4c0,0.2,0,0.3,0.1,0.4
				c0.1,0.1,0.2,0.2,0.3,0.3c0.1,0.1,0.3,0.1,0.5,0.2c0.2,0.1,0.4,0.1,0.6,0.2c0.3,0.1,0.5,0.2,0.8,0.3c0.2,0.1,0.4,0.3,0.6,0.5
				c0.1,0.2,0.2,0.5,0.2,0.8c0,0.3-0.1,0.6-0.2,0.8s-0.4,0.5-0.7,0.6C207.1,111.9,206.7,112,206.2,112z"/>
		</g>
	</g>
</g>
</svg>
