<?xml version="1.0" encoding="utf-8"?>
<!-- Generator: Adobe Illustrator 26.0.1, SVG Export Plug-In . SVG Version: 6.00 Build 0)  -->
<svg version="1.1" id="Capa_1" xmlns="http://www.w3.org/2000/svg" xmlns:xlink="http://www.w3.org/1999/xlink" x="0px" y="0px"
	 viewBox="0 0 241.4 34" style="enable-background:new 0 0 241.4 34;" xml:space="preserve">
<style type="text/css">
	.st0{fill:#04357F;}
	.st1{fill:#606060;}
</style>
<g>
	<g>
		<path class="st0" d="M62.1,0.3c5.2,0,10.7,3.2,10.7,10.1c0,7.2-5.6,10.3-10.4,10.3H53v-0.3l1.7-0.2V0.7L53,0.6V0.3H62.1z
			 M67.7,10.5c0-7.3-2.6-9.6-6-9.6h-2.5v19.2c1.4,0,1.9,0,3,0C65.6,20.1,67.7,17.6,67.7,10.5z"/>
		<path class="st0" d="M108.1,14.7h0.2l0.2,4.5c-1.5,0.9-3.9,1.8-6.3,1.8C95.9,21,92,16.7,92,10.5C92,4.1,96.1,0,102.4,0
			c2.1,0,4.5,0.6,6.2,1.4l-0.2,4.9h-0.2L104.5,1c-0.4-0.3-1.7-0.3-2.3-0.3c-3.5,0-5,3.1-5,9.6c0,6.9,1.6,9.9,4.9,9.9
			c0.6,0,2,0,2.4-0.3L108.1,14.7z"/>
		<path class="st0" d="M149.9,20.3l1.7,0.2v0.3h-8v-0.3l1.7-0.2V2.8h0l-7.7,17.6h-1.4l-7.5-17.9h0v16.7l2.8,1.2v0.3h-6.1v-0.3
			l2.7-1.2V0.7l-2.3-0.1V0.3h6.9l6.3,14.8l6.6-14.8h5.9v0.3l-1.7,0.1V20.3z"/>
		<polygon class="st0" points="47,14.7 43.4,20.1 38,20.1 38,10.9 41.9,10.9 43.1,13.6 43.4,13.6 43.4,7.4 43.1,7.4 41.9,10.3 
			38,10.3 38,0.9 43.4,0.9 46.9,6.3 47.1,6.3 47.4,0.3 31.8,0.3 31.8,0.6 33.5,0.7 33.5,20.3 31.8,20.4 31.8,20.7 47.4,20.7 
			47.1,14.7 		"/>
		<path class="st0" d="M24.5,20.3l1.7,0.2v0.3h-8v-0.3l1.7-0.2V2.8h0l-7.7,17.6h-1.4L3.3,2.5h0v16.7l2.8,1.2v0.3H0v-0.3l2.7-1.2V0.7
			L0.3,0.6V0.3h6.9l6.3,14.8l6.6-14.8h5.9v0.3l-1.7,0.1V20.3z"/>
		<path class="st0" d="M196.9,10.5c0-6.2,4.1-10.5,10-10.5c5.9,0,10,4.4,10,10.5c0,6.2-4.1,10.5-10,10.5
			C201,21,196.9,16.7,196.9,10.5z M211.7,10.5c0-6.9-1.5-9.8-4.8-9.8c-3.3,0-4.8,2.9-4.8,9.8s1.5,9.8,4.8,9.8
			C210.2,20.3,211.7,17.4,211.7,10.5z"/>
		<path class="st0" d="M185.1,20.3V0.7l-1.7-0.1V0.3h8v0.3l-1.7,0.1v19.6l1.7,0.1v0.3h-8v-0.3L185.1,20.3z"/>
		<path class="st0" d="M80.2,20.3V0.7l-1.7-0.1V0.3h8v0.3l-1.7,0.1v19.6l1.7,0.1v0.3h-8v-0.3L80.2,20.3z"/>
		<path class="st0" d="M240.2,20.3l-4.4-9.7c2-0.8,3.3-2.3,3.3-4.4V5.5c0-3.4-3.4-5.2-7.4-5.2h-9.1v0.3l1.7,0.1v19.6l-1.7,0.2v0.3h8
			v-0.3l-1.7-0.2V0.9h1.9c0.5,0,1,0.1,1.4,0.2c1.2,0.4,2.1,1.5,2.4,3.3c0,0,0,0,0,0c0.1,0.4,0.1,0.8,0.1,1.2c0,0,0,0,0,0.1v0
			c0,0,0,0.1,0,0.1c0,0.4,0,0.8-0.1,1.2c0,0,0,0,0,0c0,0.2-0.1,0.3-0.1,0.5c-0.4,1.5-1.2,2.4-2.3,2.8c-0.2,0.1-0.5,0.1-0.8,0.2
			c-0.2,0-0.3,0-0.5,0l0.3,0.6l4.1,9l-1.7,0.2v0.3h8v-0.3L240.2,20.3z"/>
		<polygon class="st0" points="176,20.3 168.7,0.3 166.9,0.3 159.7,19.2 157.3,20.4 157.3,20.7 163.1,20.7 163.1,20.4 160.4,19.2 
			165.7,5 171.2,20.3 168.9,20.4 168.9,20.7 177.7,20.7 177.7,20.4 		"/>
	</g>
	<g>
		<path class="st1" d="M46.2,33.9v-5.8H50v0.8h-2.7v1.7h2.5v0.8h-2.5v1.7H50v0.8H46.2z"/>
		<path class="st1" d="M54.6,34c-0.4,0-0.8-0.1-1.1-0.2c-0.3-0.1-0.6-0.4-0.8-0.6c-0.2-0.3-0.3-0.6-0.3-1h1.1c0,0.2,0,0.4,0.1,0.5
			c0.1,0.2,0.2,0.3,0.4,0.4c0.2,0.1,0.4,0.1,0.6,0.1c0.2,0,0.4,0,0.5-0.1c0.1-0.1,0.3-0.2,0.3-0.3c0.1-0.1,0.1-0.3,0.1-0.4
			c0-0.2,0-0.3-0.1-0.5c-0.1-0.1-0.2-0.2-0.4-0.3c-0.1-0.1-0.3-0.2-0.5-0.2c-0.2-0.1-0.4-0.1-0.6-0.2c-0.5-0.2-0.8-0.4-1-0.6
			c-0.2-0.2-0.3-0.6-0.3-1c0-0.3,0.1-0.6,0.2-0.9c0.2-0.2,0.4-0.4,0.7-0.6c0.3-0.1,0.6-0.2,1-0.2c0.4,0,0.7,0.1,1,0.2
			c0.3,0.1,0.5,0.3,0.7,0.6s0.3,0.5,0.3,0.9h-1.1c0-0.1,0-0.3-0.1-0.4c-0.1-0.1-0.2-0.2-0.3-0.3c-0.1-0.1-0.3-0.1-0.5-0.1
			c-0.2,0-0.3,0-0.4,0.1c-0.1,0.1-0.2,0.1-0.3,0.2c-0.1,0.1-0.1,0.2-0.1,0.4c0,0.2,0,0.3,0.1,0.4c0.1,0.1,0.2,0.2,0.3,0.3
			c0.1,0.1,0.3,0.1,0.5,0.2c0.2,0.1,0.4,0.1,0.6,0.2c0.3,0.1,0.5,0.2,0.8,0.3c0.2,0.1,0.4,0.3,0.6,0.5c0.1,0.2,0.2,0.5,0.2,0.8
			c0,0.3-0.1,0.6-0.2,0.8c-0.2,0.3-0.4,0.5-0.7,0.6C55.4,34,55.1,34,54.6,34z"/>
		<path class="st1" d="M59.3,33.9v-5.8h2.1c0.5,0,0.8,0.1,1.2,0.2c0.3,0.2,0.5,0.4,0.7,0.6c0.1,0.3,0.2,0.6,0.2,0.9
			c0,0.3-0.1,0.6-0.2,0.9c-0.1,0.3-0.4,0.5-0.7,0.6c-0.3,0.2-0.7,0.2-1.2,0.2h-1.1v2.2H59.3z M60.3,30.9h1c0.4,0,0.7-0.1,0.8-0.3
			c0.2-0.2,0.3-0.4,0.3-0.7c0-0.3-0.1-0.5-0.3-0.7C62,29,61.7,29,61.3,29h-1V30.9z"/>
		<path class="st1" d="M65.9,33.9v-5.8h3.7v0.8h-2.7v1.7h2.5v0.8h-2.5v1.7h2.7v0.8H65.9z"/>
		<path class="st1" d="M74.9,34c-0.6,0-1.1-0.1-1.5-0.4c-0.4-0.3-0.7-0.6-1-1.1c-0.2-0.4-0.3-1-0.3-1.6c0-0.6,0.1-1.1,0.3-1.6
			c0.2-0.4,0.5-0.8,1-1.1c0.4-0.3,0.9-0.4,1.5-0.4c0.7,0,1.3,0.2,1.7,0.5s0.7,0.8,0.8,1.4h-1.1c-0.1-0.3-0.2-0.6-0.5-0.8
			c-0.2-0.2-0.6-0.3-1-0.3c-0.4,0-0.7,0.1-0.9,0.3c-0.3,0.2-0.5,0.4-0.6,0.7c-0.1,0.3-0.2,0.7-0.2,1.1c0,0.4,0.1,0.8,0.2,1.1
			c0.1,0.3,0.3,0.6,0.6,0.7c0.3,0.2,0.6,0.3,0.9,0.3c0.4,0,0.7-0.1,1-0.3c0.2-0.2,0.4-0.4,0.5-0.7h1.1c-0.1,0.6-0.4,1-0.8,1.4
			C76.2,33.9,75.6,34,74.9,34z"/>
		<path class="st1" d="M80.1,33.9v-5.8h1v5.8H80.1z"/>
		<path class="st1" d="M83.5,33.9l2.1-5.8h1.1l2.1,5.8h-1.1l-1.6-4.6l-1.6,4.6H83.5z M84.4,32.6l0.3-0.8h2.9l0.3,0.8H84.4z"/>
		<path class="st1" d="M91.3,33.9v-5.8h1v5h2.6v0.8H91.3z"/>
		<path class="st1" d="M97.5,33.9v-5.8h1v5.8H97.5z"/>
		<path class="st1" d="M101.3,33.9v-5.8h1.9c0.7,0,1.2,0.1,1.7,0.4c0.4,0.2,0.8,0.6,1,1c0.2,0.4,0.3,0.9,0.3,1.5
			c0,0.6-0.1,1.1-0.3,1.5c-0.2,0.4-0.5,0.8-1,1c-0.4,0.2-1,0.4-1.7,0.4H101.3z M102.3,33.1h0.8c0.5,0,0.9-0.1,1.2-0.2
			c0.3-0.2,0.5-0.4,0.6-0.7c0.1-0.3,0.2-0.7,0.2-1.1c0-0.4-0.1-0.8-0.2-1.1c-0.1-0.3-0.3-0.5-0.6-0.7c-0.3-0.2-0.7-0.3-1.2-0.3h-0.8
			V33.1z"/>
		<path class="st1" d="M108,33.9l2.1-5.8h1.1l2.1,5.8h-1.1l-1.6-4.6l-1.6,4.6H108z M108.9,32.6l0.3-0.8h2.9l0.3,0.8H108.9z"/>
		<path class="st1" d="M115.8,33.9v-5.8h1.9c0.7,0,1.2,0.1,1.7,0.4c0.4,0.2,0.8,0.6,1,1c0.2,0.4,0.3,0.9,0.3,1.5
			c0,0.6-0.1,1.1-0.3,1.5c-0.2,0.4-0.5,0.8-1,1c-0.4,0.2-1,0.4-1.7,0.4H115.8z M116.8,33.1h0.8c0.5,0,0.9-0.1,1.2-0.2
			c0.3-0.2,0.5-0.4,0.6-0.7c0.1-0.3,0.2-0.7,0.2-1.1c0-0.4-0.1-0.8-0.2-1.1c-0.1-0.3-0.3-0.5-0.6-0.7c-0.3-0.2-0.7-0.3-1.2-0.3h-0.8
			V33.1z"/>
		<path class="st1" d="M123.3,33.9v-5.8h3.7v0.8h-2.7v1.7h2.5v0.8h-2.5v1.7h2.7v0.8H123.3z"/>
		<path class="st1" d="M131.6,34c-0.4,0-0.8-0.1-1.1-0.2c-0.3-0.1-0.6-0.4-0.8-0.6c-0.2-0.3-0.3-0.6-0.3-1h1.1c0,0.2,0,0.4,0.1,0.5
			c0.1,0.2,0.2,0.3,0.4,0.4s0.4,0.1,0.6,0.1c0.2,0,0.4,0,0.5-0.1c0.1-0.1,0.3-0.2,0.3-0.3c0.1-0.1,0.1-0.3,0.1-0.4
			c0-0.2,0-0.3-0.1-0.5c-0.1-0.1-0.2-0.2-0.4-0.3c-0.1-0.1-0.3-0.2-0.5-0.2c-0.2-0.1-0.4-0.1-0.6-0.2c-0.5-0.2-0.8-0.4-1-0.6
			c-0.2-0.2-0.3-0.6-0.3-1c0-0.3,0.1-0.6,0.2-0.9c0.2-0.2,0.4-0.4,0.7-0.6c0.3-0.1,0.6-0.2,1-0.2c0.4,0,0.7,0.1,1,0.2
			c0.3,0.1,0.5,0.3,0.7,0.6s0.3,0.5,0.3,0.9h-1.1c0-0.1,0-0.3-0.1-0.4c-0.1-0.1-0.2-0.2-0.3-0.3c-0.1-0.1-0.3-0.1-0.5-0.1
			c-0.2,0-0.3,0-0.4,0.1c-0.1,0.1-0.2,0.1-0.3,0.2s-0.1,0.2-0.1,0.4c0,0.2,0,0.3,0.1,0.4c0.1,0.1,0.2,0.2,0.3,0.3
			c0.1,0.1,0.3,0.1,0.5,0.2c0.2,0.1,0.4,0.1,0.6,0.2c0.3,0.1,0.5,0.2,0.8,0.3c0.2,0.1,0.4,0.3,0.6,0.5c0.1,0.2,0.2,0.5,0.2,0.8
			c0,0.3-0.1,0.6-0.2,0.8c-0.2,0.3-0.4,0.5-0.7,0.6C132.5,34,132.1,34,131.6,34z"/>
		<path class="st1" d="M140,33.9v-5.8h3.7v0.8H141v1.7h2.5v0.8H141v1.7h2.7v0.8H140z"/>
		<path class="st1" d="M148.3,34c-0.4,0-0.8-0.1-1.1-0.2c-0.3-0.1-0.6-0.4-0.8-0.6c-0.2-0.3-0.3-0.6-0.3-1h1.1c0,0.2,0,0.4,0.1,0.5
			c0.1,0.2,0.2,0.3,0.4,0.4s0.4,0.1,0.6,0.1c0.2,0,0.4,0,0.5-0.1c0.1-0.1,0.3-0.2,0.3-0.3c0.1-0.1,0.1-0.3,0.1-0.4
			c0-0.2,0-0.3-0.1-0.5c-0.1-0.1-0.2-0.2-0.4-0.3c-0.1-0.1-0.3-0.2-0.5-0.2c-0.2-0.1-0.4-0.1-0.6-0.2c-0.5-0.2-0.8-0.4-1-0.6
			c-0.2-0.2-0.3-0.6-0.3-1c0-0.3,0.1-0.6,0.2-0.9c0.2-0.2,0.4-0.4,0.7-0.6c0.3-0.1,0.6-0.2,1-0.2c0.4,0,0.7,0.1,1,0.2
			c0.3,0.1,0.5,0.3,0.7,0.6s0.3,0.5,0.3,0.9h-1.1c0-0.1,0-0.3-0.1-0.4c-0.1-0.1-0.2-0.2-0.3-0.3c-0.1-0.1-0.3-0.1-0.5-0.1
			c-0.2,0-0.3,0-0.4,0.1c-0.1,0.1-0.2,0.1-0.3,0.2s-0.1,0.2-0.1,0.4c0,0.2,0,0.3,0.1,0.4c0.1,0.1,0.2,0.2,0.3,0.3
			c0.1,0.1,0.3,0.1,0.5,0.2c0.2,0.1,0.4,0.1,0.6,0.2c0.3,0.1,0.5,0.2,0.8,0.3c0.2,0.1,0.4,0.3,0.6,0.5c0.1,0.2,0.2,0.5,0.2,0.8
			c0,0.3-0.1,0.6-0.2,0.8c-0.2,0.3-0.4,0.5-0.7,0.6C149.2,34,148.8,34,148.3,34z"/>
		<path class="st1" d="M154.3,33.9v-5h-1.7v-0.8h4.4v0.8h-1.7v5H154.3z"/>
		<path class="st1" d="M159.4,33.9v-5.8h3.7v0.8h-2.7v1.7h2.5v0.8h-2.5v1.7h2.7v0.8H159.4z M160.4,27.8l-0.1-0.7l1.8-1l0.1,0.8
			L160.4,27.8z"/>
		<path class="st1" d="M167.2,33.9v-5h-1.7v-0.8h4.4v0.8h-1.7v5H167.2z"/>
		<path class="st1" d="M172.4,33.9v-5.8h1v5.8H172.4z"/>
		<path class="st1" d="M178.8,34c-0.6,0-1.1-0.1-1.5-0.4c-0.4-0.3-0.7-0.6-1-1.1c-0.2-0.4-0.3-1-0.3-1.6c0-0.6,0.1-1.1,0.3-1.6
			c0.2-0.4,0.5-0.8,1-1.1c0.4-0.3,0.9-0.4,1.5-0.4c0.7,0,1.3,0.2,1.7,0.5c0.4,0.3,0.7,0.8,0.8,1.4h-1.1c-0.1-0.3-0.2-0.6-0.5-0.8
			c-0.2-0.2-0.6-0.3-1-0.3c-0.4,0-0.7,0.1-0.9,0.3c-0.3,0.2-0.5,0.4-0.6,0.7c-0.1,0.3-0.2,0.7-0.2,1.1c0,0.4,0.1,0.8,0.2,1.1
			c0.1,0.3,0.3,0.6,0.6,0.7c0.3,0.2,0.6,0.3,0.9,0.3c0.4,0,0.7-0.1,1-0.3c0.2-0.2,0.4-0.4,0.5-0.7h1.1c-0.1,0.6-0.4,1-0.8,1.4
			C180,33.9,179.5,34,178.8,34z"/>
		<path class="st1" d="M183.4,33.9l2.1-5.8h1.1l2.1,5.8h-1.1l-1.6-4.6l-1.6,4.6H183.4z M184.4,32.6l0.3-0.8h2.9l0.3,0.8H184.4z"/>
		<path class="st1" d="M193.2,34c-0.4,0-0.8-0.1-1.1-0.2c-0.3-0.1-0.6-0.4-0.8-0.6c-0.2-0.3-0.3-0.6-0.3-1h1.1c0,0.2,0,0.4,0.1,0.5
			c0.1,0.2,0.2,0.3,0.4,0.4s0.4,0.1,0.6,0.1c0.2,0,0.4,0,0.5-0.1c0.1-0.1,0.3-0.2,0.3-0.3c0.1-0.1,0.1-0.3,0.1-0.4
			c0-0.2,0-0.3-0.1-0.5c-0.1-0.1-0.2-0.2-0.4-0.3c-0.1-0.1-0.3-0.2-0.5-0.2c-0.2-0.1-0.4-0.1-0.6-0.2c-0.5-0.2-0.8-0.4-1-0.6
			c-0.2-0.2-0.3-0.6-0.3-1c0-0.3,0.1-0.6,0.2-0.9c0.2-0.2,0.4-0.4,0.7-0.6c0.3-0.1,0.6-0.2,1-0.2c0.4,0,0.7,0.1,1,0.2
			c0.3,0.1,0.5,0.3,0.7,0.6s0.3,0.5,0.3,0.9H194c0-0.1,0-0.3-0.1-0.4c-0.1-0.1-0.2-0.2-0.3-0.3c-0.1-0.1-0.3-0.1-0.5-0.1
			c-0.2,0-0.3,0-0.4,0.1c-0.1,0.1-0.2,0.1-0.3,0.2s-0.1,0.2-0.1,0.4c0,0.2,0,0.3,0.1,0.4c0.1,0.1,0.2,0.2,0.3,0.3
			c0.1,0.1,0.3,0.1,0.5,0.2c0.2,0.1,0.4,0.1,0.6,0.2c0.3,0.1,0.5,0.2,0.8,0.3c0.2,0.1,0.4,0.3,0.6,0.5c0.1,0.2,0.2,0.5,0.2,0.8
			c0,0.3-0.1,0.6-0.2,0.8c-0.2,0.3-0.4,0.5-0.7,0.6C194,34,193.6,34,193.2,34z"/>
	</g>
</g>
</svg>
