<?xml version="1.0" encoding="utf-8"?>
<!-- Generator: Adobe Illustrator 26.0.1, SVG Export Plug-In . SVG Version: 6.00 Build 0)  -->
<svg version="1.1" id="Capa_1" xmlns="http://www.w3.org/2000/svg" xmlns:xlink="http://www.w3.org/1999/xlink" x="0px" y="0px"
	 viewBox="0 0 255.1 81.9" style="enable-background:new 0 0 255.1 81.9;" xml:space="preserve">
<style type="text/css">
	.st0{enable-background:new    ;}
	.st1{fill:#032B47;}
</style>
<g class="st0">
	<path class="st1" d="M18.7,76.1H16v-12l-4.2,10.3h-3L4.7,64.2v12H2V60.7h4l4.3,10.8l4.3-10.8h4V76.1z"/>
	<path class="st1" d="M35.2,73.6v2.6H23.9V60.7h11.1v2.6h-8.4v3.8h8v2.6h-8v4H35.2z"/>
	<path class="st1" d="M53.5,68.4c0,4.7-3.4,7.7-8,7.7h-5.9V60.7h5.9C50.1,60.7,53.5,63.7,53.5,68.4z M50.6,68.4c0-3.1-2-5.1-5.2-5.1
		h-3.1v10.3h3.1C48.6,73.6,50.6,71.6,50.6,68.4z"/>
	<path class="st1" d="M60.6,76.1h-2.8V60.7h2.8V76.1z"/>
	<path class="st1" d="M64.9,68.4c0-4.7,3.4-8,8-8c2.9,0,5.2,1.3,6.5,3L77,65c-0.9-1.2-2.4-1.9-4.1-1.9c-3,0-5.1,2.2-5.1,5.4
		c0,3.2,2.1,5.4,5.1,5.4c1.8,0,3.3-0.7,4.3-2.2l2.3,1.6c-1.4,2.1-3.9,3.2-6.6,3.2C68.3,76.4,64.9,73.1,64.9,68.4z"/>
	<path class="st1" d="M86.6,76.1h-2.8V60.7h2.8V76.1z"/>
	<path class="st1" d="M104.7,60.7v15.4h-2.5l-7.7-10.5v10.5h-2.7V60.7h2.5l7.7,10.6V60.7H104.7z"/>
	<path class="st1" d="M119.7,72.4H113l-1.4,3.7h-3l6.2-15.4h3.2l6.2,15.4h-3L119.7,72.4z M118.7,69.8l-2.4-6.2l-2.4,6.2H118.7z"/>
	<path class="st1" d="M146.5,73.6v2.6h-11.3V60.7h11.1v2.6H138v3.8h8v2.6h-8v4H146.5z"/>
	<path class="st1" d="M149.8,74.4l1.3-2.3c1.3,1,3.5,1.7,5.3,1.7c1.9,0,3.1-0.7,3.1-2c0-1.5-1.6-1.7-3.3-2c-4.6-0.9-5.9-2-5.9-4.4
		c0-3.9,3.5-5,6.4-5c2.1,0,3.9,0.6,5.5,1.5l-1.3,2.3c-1.4-0.9-2.8-1.3-4.3-1.3c-2.2,0-3.3,0.8-3.3,2.1c0,1.1,0.8,1.6,3.5,2
		c2,0.4,5.8,1,5.8,4.5c0,2.9-2.4,4.7-6.1,4.7C153.6,76.4,150.9,75.2,149.8,74.4z"/>
	<path class="st1" d="M178.4,63.3h-5v12.9h-2.8V63.3h-5v-2.6h12.7V63.3z"/>
	<path class="st1" d="M193.6,73.6v2.6h-11.3V60.7h11.1v2.6h-8.4v3.8h8v2.6h-8v4H193.6z M188.9,58.9h-2.4l2.3-3.5h3L188.9,58.9z"/>
	<path class="st1" d="M209.3,63.3h-5v12.9h-2.8V63.3h-5v-2.6h12.7V63.3z"/>
	<path class="st1" d="M215.9,76.1h-2.8V60.7h2.8V76.1z"/>
</g>
<g class="st0">
	<path class="st1" d="M220.3,68.4c0-4.7,3.4-8,8-8c2.9,0,5.2,1.3,6.5,3l-2.3,1.5c-0.9-1.2-2.4-1.9-4.1-1.9c-3,0-5.1,2.2-5.1,5.4
		c0,3.2,2.1,5.4,5.1,5.4c1.8,0,3.3-0.7,4.3-2.2l2.3,1.6c-1.4,2.1-3.9,3.2-6.6,3.2C223.6,76.4,220.3,73.1,220.3,68.4z"/>
</g>
<g class="st0">
	<path class="st1" d="M248.8,72.4h-6.8l-1.4,3.7h-3l6.2-15.4h3.2l6.2,15.4h-3L248.8,72.4z M247.8,69.8l-2.4-6.2l-2.4,6.2H247.8z"/>
</g>
<path class="st1" d="M3.6,54.7V0h14.1L33,40.3h0.3L48.4,0h13v54.7H50.1V13.3h-0.2L34.6,54.7h-8.7L10.7,13.3h-0.2v41.4H3.6z"/>
<path class="st1" d="M72.1,54.7L90.2,0h12.9l17,54.7h-12.3l-4.7-15.3h-19l-5,15.3H72.1z M85.8,34.1h15.7L94,8.3h-0.2L85.8,34.1z"/>
<path class="st1" d="M130.8,54.7V0h11.6v54.7H130.8z"/>
<path class="st1" d="M159.2,47.4c-4.2-4.9-6.2-11.5-6.2-20s2.1-15.2,6.2-20.1C163.4,2.4,169.3,0,177,0s13.7,2.5,17.9,7.4
	c4.2,4.9,6.3,11.6,6.3,20c0,8.4-2.1,15.1-6.3,20c-4.2,4.9-10.2,7.3-17.9,7.3S163.3,52.3,159.2,47.4z M186,43.8
	c1.8-3.4,2.7-8.9,2.7-16.4c0-7.6-0.9-13-2.8-16.4c-1.8-3.4-4.8-5.1-9-5.1c-3.7-0.2-7.2,1.8-8.8,5.1c-1.8,3.4-2.7,8.9-2.7,16.4
	s0.9,13,2.7,16.4c1.8,3.4,4.7,5.1,8.9,5.1C181.1,48.9,184.1,47.2,186,43.8z"/>
<path class="st1" d="M251.5,17.7v-0.5c0-5.4-1.7-9.7-5.2-12.7c-1.9-1.6-4.2-2.8-6.6-3.5c-2.6-0.7-5.2-1-7.8-1h-20v54.7h11.6V34.8
	h4.5l10.3,19.9h13.4l-11.9-20.9c2.4-0.7,4.7-1.9,6.6-3.5C249.8,27.3,251.5,23.1,251.5,17.7z M237.2,26.6c-1,1.4-2.4,2.3-4.1,2.6l0,0
	c-0.7,0.1-1.4,0.1-2.1,0.1h-7.6V5.5h7.3c0.8,0,1.6,0.1,2.3,0.2l0,0c1.7,0.3,3.1,1.2,4.1,2.6c1.2,1.9,1.9,4.9,1.9,9.1
	S238.4,24.7,237.2,26.6L237.2,26.6z"/>
</svg>
