<svg id="Capa_1" data-name="Capa 1" xmlns="http://www.w3.org/2000/svg" viewBox="0 0 255.14 81.93"><defs><style>.cls-1{font-size:22.03px;font-family:Typold-Medium, Typold;font-weight:500;letter-spacing:0.06em;}.cls-1,.cls-3{fill:#032b47;}.cls-2{letter-spacing:0.06em;}</style></defs><text class="cls-1" transform="translate(0 76.14)">MEDICINA ESTÉTI<tspan class="cls-2" x="219.18" y="0">C</tspan><tspan x="237.09" y="0">A</tspan></text><path class="cls-3" d="M3.59,54.71V0H17.65L33,40.32h.34L48.38,0h13V54.71H50.06V13.3h-.25L34.57,54.71H25.9L10.66,13.3h-.25V54.71Z"/><path class="cls-3" d="M72.05,54.71,90.23,0h12.88l17,54.71H107.83l-4.72-15.32h-19l-5,15.32ZM85.77,34.09h15.74L94,8.33h-.17Z"/><path class="cls-3" d="M130.75,54.71V0h11.61V54.71Z"/><path class="cls-3" d="M159.23,47.42Q153,40.11,153,27.4t6.24-20.06Q165.47,0,177,0t17.9,7.38q6.31,7.38,6.32,20t-6.32,20q-6.31,7.35-17.9,7.34T159.23,47.42ZM186,43.83q2.75-5.1,2.74-16.43T185.93,11q-2.77-5.14-9-5.14A9.28,9.28,0,0,0,168.12,11q-2.73,5.13-2.73,16.39t2.69,16.43q2.68,5.1,8.88,5.09T186,43.83Z"/><path class="cls-3" d="M251.54,17.68v-.51q0-8.16-5.22-12.67A17.44,17.44,0,0,0,239.68,1a28.14,28.14,0,0,0-7.84-1h-20V54.71h11.62V34.85h4.46l10.27,19.86h13.38L239.68,33.85a17.44,17.44,0,0,0,6.64-3.5Q251.54,25.84,251.54,17.68Zm-14.38,8.88a6.17,6.17,0,0,1-4.08,2.59h0a13.57,13.57,0,0,1-2.09.14h-7.55V5.47h7.3a11.32,11.32,0,0,1,2.34.23h0a6.17,6.17,0,0,1,4.08,2.59c1.24,1.85,1.87,4.89,1.9,9.14S238.4,24.71,237.16,26.56Z"/></svg>