<?xml version="1.0" encoding="utf-8"?>
<!-- Generator: Adobe Illustrator 26.0.1, SVG Export Plug-In . SVG Version: 6.00 Build 0)  -->
<svg version="1.1" id="Capa_1" xmlns="http://www.w3.org/2000/svg" xmlns:xlink="http://www.w3.org/1999/xlink" x="0px" y="0px"
	 viewBox="0 0 212.2 52" style="enable-background:new 0 0 212.2 52;" xml:space="preserve">
<style type="text/css">
	.st0{fill:#172D55;}
</style>
<g>
	<g>
		<path class="st0" d="M5.8,51.9H0.9v-8.5h4.8v1.1H2.2v2.6h3.1v1.1H2.2v2.6h3.6V51.9z"/>
		<path class="st0" d="M14.9,49.6c0,0.7-0.3,1.3-0.8,1.8c-0.5,0.4-1.2,0.6-2.1,0.6c-0.9,0-1.7-0.2-2.3-0.5v-1.3
			c0.7,0.5,1.4,0.7,2.3,0.7c0.5,0,0.8-0.1,1.1-0.3c0.3-0.2,0.4-0.5,0.4-0.9c0-0.2-0.1-0.4-0.2-0.6s-0.3-0.3-0.5-0.4
			c-0.2-0.1-0.5-0.2-0.8-0.4c-0.2-0.1-0.4-0.2-0.5-0.2c-0.1,0-0.2-0.1-0.4-0.2c-0.2-0.1-0.4-0.2-0.4-0.3c-0.1-0.1-0.2-0.2-0.4-0.3
			C10.1,47,10,46.9,10,46.7c-0.1-0.1-0.1-0.3-0.2-0.5c-0.1-0.2-0.1-0.4-0.1-0.6c0-0.7,0.3-1.3,0.8-1.7c0.5-0.4,1.2-0.6,2-0.6
			c0.8,0,1.4,0.1,2,0.4V45c-0.6-0.4-1.2-0.5-1.9-0.5c-0.5,0-0.8,0.1-1.1,0.3c-0.3,0.2-0.4,0.5-0.4,0.8c0,0.3,0.1,0.6,0.4,0.8
			c0.3,0.2,0.7,0.4,1.2,0.7c0.4,0.2,0.6,0.3,0.8,0.4c0.2,0.1,0.4,0.3,0.7,0.5c0.3,0.2,0.4,0.4,0.6,0.7
			C14.9,48.9,14.9,49.2,14.9,49.6z"/>
		<path class="st0" d="M21.5,48.9h-1.2v3H19v-8.5h2.4c1,0,1.7,0.3,2.3,0.8c0.6,0.5,0.9,1.2,0.9,2c0,0.8-0.3,1.5-0.9,2
			C23.1,48.6,22.4,48.9,21.5,48.9z M21.4,44.5h-1.1v3.3h1.1c0.6,0,1.1-0.2,1.4-0.5c0.3-0.3,0.5-0.7,0.5-1.2c0-0.5-0.2-0.9-0.5-1.2
			C22.5,44.6,22,44.5,21.4,44.5z"/>
		<path class="st0" d="M33.3,51.9h-4.9v-8.5h4.8v1.1h-3.5v2.6h3.1v1.1h-3.1v2.6h3.6V51.9z"/>
		<path class="st0" d="M43.6,51.5C43,51.8,42.3,52,41.4,52c-1.3,0-2.3-0.4-3.1-1.2c-0.8-0.8-1.2-1.8-1.2-3.2c0-1.3,0.4-2.3,1.2-3.1
			c0.8-0.8,1.8-1.2,3.1-1.2c0.9,0,1.6,0.2,2.2,0.5V45c-0.4-0.2-0.7-0.3-1-0.4c-0.3-0.1-0.7-0.1-1.1-0.1c-0.8,0-1.6,0.3-2.1,0.9
			c-0.6,0.6-0.8,1.3-0.8,2.3c0,1,0.3,1.7,0.8,2.3c0.6,0.6,1.3,0.9,2.2,0.9c0.8,0,1.5-0.2,2.1-0.6V51.5z"/>
		<path class="st0" d="M48.9,51.9h-1.3v-8.5h1.3V51.9z"/>
		<path class="st0" d="M54.2,51.9h-1.4l2.9-8.5h1.7l2.9,8.5H59l-0.7-2.1h-3.4L54.2,51.9z M55.4,48.3l-0.1,0.4H58l-0.1-0.4
			c-0.3-1-0.6-1.8-0.8-2.5c-0.2-0.7-0.3-1.1-0.4-1.2l-0.1-0.2C56.5,44.8,56.1,46.1,55.4,48.3z"/>
		<path class="st0" d="M69,51.9h-4.8v-8.5h1.3v7.3H69V51.9z"/>
		<path class="st0" d="M74.2,51.9h-1.3v-8.5h1.3V51.9z"/>
		<path class="st0" d="M81.3,51.9h-2.7v-8.5h2.6c1.3,0,2.3,0.4,3.1,1.2c0.8,0.8,1.2,1.8,1.2,3c0,1.3-0.4,2.3-1.1,3.1
			C83.7,51.5,82.6,51.9,81.3,51.9z M81.2,44.5h-1.3v6.3h1.3c1,0,1.7-0.3,2.2-0.9c0.5-0.6,0.8-1.4,0.8-2.3c0-0.9-0.3-1.6-0.8-2.2
			C82.9,44.8,82.2,44.5,81.2,44.5z"/>
		<path class="st0" d="M90.4,51.9H89l2.9-8.5h1.7l2.9,8.5h-1.4l-0.7-2.1h-3.4L90.4,51.9z M91.6,48.3l-0.1,0.4h2.7L94,48.3
			c-0.3-1-0.6-1.8-0.8-2.5c-0.2-0.7-0.3-1.1-0.4-1.2l-0.1-0.2C92.7,44.8,92.3,46.1,91.6,48.3z"/>
		<path class="st0" d="M103,51.9h-2.7v-8.5h2.6c1.3,0,2.3,0.4,3.1,1.2c0.8,0.8,1.2,1.8,1.2,3c0,1.3-0.4,2.3-1.1,3.1
			C105.4,51.5,104.4,51.9,103,51.9z M103,44.5h-1.3v6.3h1.3c1,0,1.7-0.3,2.2-0.9c0.5-0.6,0.8-1.4,0.8-2.3c0-0.9-0.3-1.6-0.8-2.2
			C104.6,44.8,103.9,44.5,103,44.5z"/>
		<path class="st0" d="M116.2,51.9h-4.9v-8.5h4.8v1.1h-3.5v2.6h3.1v1.1h-3.1v2.6h3.6V51.9z"/>
		<path class="st0" d="M125.3,49.6c0,0.7-0.3,1.3-0.8,1.8c-0.5,0.4-1.2,0.6-2.1,0.6c-0.9,0-1.7-0.2-2.3-0.5v-1.3
			c0.7,0.5,1.4,0.7,2.3,0.7c0.5,0,0.8-0.1,1.1-0.3c0.3-0.2,0.4-0.5,0.4-0.9c0-0.2-0.1-0.4-0.2-0.6s-0.3-0.3-0.5-0.4
			c-0.2-0.1-0.5-0.2-0.8-0.4c-0.2-0.1-0.4-0.2-0.5-0.2c-0.1,0-0.2-0.1-0.4-0.2c-0.2-0.1-0.4-0.2-0.4-0.3c-0.1-0.1-0.2-0.2-0.4-0.3
			c-0.1-0.1-0.2-0.3-0.3-0.4c-0.1-0.1-0.1-0.3-0.2-0.5c-0.1-0.2-0.1-0.4-0.1-0.6c0-0.7,0.3-1.3,0.8-1.7c0.5-0.4,1.2-0.6,2-0.6
			c0.8,0,1.4,0.1,2,0.4V45c-0.6-0.4-1.2-0.5-1.9-0.5c-0.5,0-0.8,0.1-1.1,0.3c-0.3,0.2-0.4,0.5-0.4,0.8c0,0.3,0.1,0.6,0.4,0.8
			c0.3,0.2,0.7,0.4,1.2,0.7c0.4,0.2,0.6,0.3,0.8,0.4c0.2,0.1,0.4,0.3,0.7,0.5c0.3,0.2,0.4,0.4,0.6,0.7
			C125.2,48.9,125.3,49.2,125.3,49.6z"/>
		<path class="st0" d="M139.7,51.9h-4.9v-8.5h4.8v1.1h-3.5v2.6h3.1v1.1h-3.1v2.6h3.6V51.9z"/>
		<path class="st0" d="M148.8,49.6c0,0.7-0.3,1.3-0.8,1.8c-0.5,0.4-1.2,0.6-2.1,0.6c-0.9,0-1.7-0.2-2.3-0.5v-1.3
			c0.7,0.5,1.4,0.7,2.3,0.7c0.5,0,0.8-0.1,1.1-0.3c0.3-0.2,0.4-0.5,0.4-0.9c0-0.2-0.1-0.4-0.2-0.6s-0.3-0.3-0.5-0.4
			c-0.2-0.1-0.5-0.2-0.8-0.4c-0.2-0.1-0.4-0.2-0.5-0.2c-0.1,0-0.2-0.1-0.4-0.2c-0.2-0.1-0.4-0.2-0.4-0.3c-0.1-0.1-0.2-0.2-0.4-0.3
			c-0.1-0.1-0.2-0.3-0.3-0.4c-0.1-0.1-0.1-0.3-0.2-0.5c-0.1-0.2-0.1-0.4-0.1-0.6c0-0.7,0.3-1.3,0.8-1.7c0.5-0.4,1.2-0.6,2-0.6
			c0.8,0,1.4,0.1,2,0.4V45c-0.6-0.4-1.2-0.5-1.9-0.5c-0.5,0-0.8,0.1-1.1,0.3c-0.3,0.2-0.4,0.5-0.4,0.8c0,0.3,0.1,0.6,0.4,0.8
			c0.3,0.2,0.7,0.4,1.2,0.7c0.4,0.2,0.6,0.3,0.8,0.4c0.2,0.1,0.4,0.3,0.7,0.5c0.3,0.2,0.4,0.4,0.6,0.7
			C148.8,48.9,148.8,49.2,148.8,49.6z"/>
		<path class="st0" d="M158,44.5h-2.2v7.4h-1.3v-7.4h-2.2v-1.1h5.7V44.5z"/>
		<path class="st0" d="M166.6,51.9h-4.9v-8.5h4.8v1.1H163v2.6h3.1v1.1H163v2.6h3.6V51.9z M164.8,42.8h-1.1l1.2-2h1.4L164.8,42.8z"/>
		<path class="st0" d="M175.8,44.5h-2.2v7.4h-1.3v-7.4H170v-1.1h5.7V44.5z"/>
		<path class="st0" d="M180.9,51.9h-1.3v-8.5h1.3V51.9z"/>
		<path class="st0" d="M191.5,51.5c-0.5,0.3-1.2,0.5-2.2,0.5c-1.3,0-2.3-0.4-3.1-1.2c-0.8-0.8-1.2-1.8-1.2-3.2
			c0-1.3,0.4-2.3,1.2-3.1c0.8-0.8,1.8-1.2,3.1-1.2c0.9,0,1.6,0.2,2.2,0.5V45c-0.4-0.2-0.7-0.3-1-0.4c-0.3-0.1-0.7-0.1-1.1-0.1
			c-0.8,0-1.6,0.3-2.1,0.9c-0.6,0.6-0.8,1.3-0.8,2.3c0,1,0.3,1.7,0.8,2.3c0.6,0.6,1.3,0.9,2.2,0.9c0.8,0,1.5-0.2,2.1-0.6V51.5z"/>
		<path class="st0" d="M196.3,51.9h-1.4l2.9-8.5h1.7l2.9,8.5h-1.4l-0.7-2.1H197L196.3,51.9z M197.5,48.3l-0.1,0.4h2.7l-0.1-0.4
			c-0.3-1-0.6-1.8-0.8-2.5c-0.2-0.7-0.3-1.1-0.4-1.2l-0.1-0.2C198.6,44.8,198.2,46.1,197.5,48.3z"/>
		<path class="st0" d="M211.3,49.6c0,0.7-0.3,1.3-0.8,1.8c-0.5,0.4-1.2,0.6-2.1,0.6c-0.9,0-1.7-0.2-2.3-0.5v-1.3
			c0.7,0.5,1.4,0.7,2.3,0.7c0.5,0,0.8-0.1,1.1-0.3c0.3-0.2,0.4-0.5,0.4-0.9c0-0.2-0.1-0.4-0.2-0.6s-0.3-0.3-0.5-0.4
			c-0.2-0.1-0.5-0.2-0.8-0.4c-0.2-0.1-0.4-0.2-0.5-0.2c-0.1,0-0.2-0.1-0.4-0.2c-0.2-0.1-0.4-0.2-0.4-0.3s-0.2-0.2-0.4-0.3
			c-0.1-0.1-0.2-0.3-0.3-0.4c-0.1-0.1-0.1-0.3-0.2-0.5c-0.1-0.2-0.1-0.4-0.1-0.6c0-0.7,0.3-1.3,0.8-1.7c0.5-0.4,1.2-0.6,2-0.6
			c0.8,0,1.4,0.1,2,0.4V45c-0.6-0.4-1.2-0.5-1.9-0.5c-0.5,0-0.8,0.1-1.1,0.3c-0.3,0.2-0.4,0.5-0.4,0.8c0,0.3,0.1,0.6,0.4,0.8
			c0.3,0.2,0.7,0.4,1.2,0.7c0.4,0.2,0.6,0.3,0.8,0.4c0.2,0.1,0.4,0.3,0.7,0.5c0.3,0.2,0.4,0.4,0.6,0.7
			C211.3,48.9,211.3,49.2,211.3,49.6z"/>
	</g>
	<g>
		<path class="st0" d="M209.4,33.8l2.8,0.3v0.5h-13.3v-0.5l3.4-0.3l-7.9-14.9h-4.3v15l3.9,0.3v0.5h-13.8v-0.5l3.5-0.3V1.2l-3.5-0.2
			V0.5h14.5c6.4,0,12,2.9,12,8.6c0,5.2-4.8,8.2-10.5,9.1v0.1c1.8,0.2,2.9,0.4,4.6,0.8L209.4,33.8z M190.1,1.5v16.4h5.2
			c3.4-1.7,5.3-3.6,5.3-8.2c0-6.4-3.3-8.2-6.9-8.2H190.1z"/>
		<path class="st0" d="M148.8,0c9.2,0,17.2,7.3,17.2,17.5s-8,17.5-17.2,17.5c-9.2,0-17.2-7.3-17.2-17.5C131.6,7.3,139.7,0,148.8,0z
			 M148.8,34.6c6.5,0,10.2-6,10.2-17.1s-3.8-17.1-10.2-17.1s-10.2,6-10.2,17.1C138.5,28.6,142.3,34.6,148.8,34.6z"/>
		<path class="st0" d="M105.6,33.8V1.2l-3.5-0.2V0.5h13.3v0.5L112,1.2v32.6l3.5,0.3v0.5h-13.3v-0.5L105.6,33.8z"/>
		<path class="st0" d="M40.6,33.8l3.5,0.3v0.5H30.8v-0.5l3.5-0.3V5.5h-0.5L20.6,34.1h-2.2L6.4,5H5.9v27.1l5.2,2v0.5H0v-0.5l5.2-2
			V1.2L0,0.9V0.5h12.6l10.2,24.7L34.2,0.5h9.9v0.5l-3.5,0.2V33.8z"/>
		<polygon class="st0" points="74.7,0.5 72.4,0.5 60.2,32.1 55.9,34.1 55.9,34.6 65.5,34.6 65.5,34.1 61.3,32.1 70.8,7.3 80.6,33.8 
			76.3,34.1 76.3,34.6 90.3,34.6 90.3,34.1 87.1,33.8 		"/>
	</g>
</g>
</svg>
