<svg id="Capa_1" data-name="Capa 1" xmlns="http://www.w3.org/2000/svg" viewBox="0 0 255.14 81.93"><defs><style>.cls-1{font-size:22.03px;font-family:Typold-Medium, Typold;font-weight:500;letter-spacing:0.06em;}.cls-1,.cls-3{fill:#032b47;}.cls-2{letter-spacing:0.06em;}</style></defs><text class="cls-1" transform="translate(0 76.14)">MEDICINA ESTÉTI<tspan class="cls-2" x="219.18" y="0">C</tspan><tspan x="237.09" y="0">A</tspan></text><path class="cls-3" d="M54.08,39.38V12.8c0-1,0-1.83.1-2.63,0-.36.06-.71.09-1.05a22.29,22.29,0,0,1,.37-2.33A22.86,22.86,0,0,1,56.87,1H46.71L45,4.82,36.84,23l-1.57,3.48-6,13.43L29,39.3,23.38,26.51l-4.23-9.67L12.26,1H.5v.14a10.42,10.42,0,0,1,2,1.07h0A9.73,9.73,0,0,1,5.17,5l.29.49A18.71,18.71,0,0,1,6.62,7.93L7.3,9.44l4.48,10.1,3.08,7,4.29,9.67,6.33,14.27h2.16L29,47.51,36.84,30l1.56-3.48L46,9.58l.15-.33V39.38c0,1.55,0,2.87-.15,4.06a18.61,18.61,0,0,1-1,4.76A27.93,27.93,0,0,1,43.3,52H56.87a20.63,20.63,0,0,1-2.69-9.13C54.11,41.82,54.08,40.69,54.08,39.38Z"/><path class="cls-3" d="M9.31,43.18a5.22,5.22,0,0,1,0,7.3A5,5,0,0,1,5.65,52,5,5,0,0,1,2,50.48a5.19,5.19,0,0,1,0-7.3,5,5,0,0,1,3.65-1.5A5,5,0,0,1,9.31,43.18Z"/><path class="cls-3" d="M70.45,52h0c3.34-3.48,4.6-6.75,6.62-12.11L91.68.49H94.6l14.89,40.15c2.23,6,3.9,8.83,6.33,11.34h-14c1.18-2,1.11-6.54-.77-11.69l-2.5-6.82H82.28l-1.18,3.2c-3.06,8.21-1.32,13,.14,15.31H70.45ZM97.52,30.69,90.43,11.48l-7.1,19.21Z"/><path class="cls-3" d="M125.15,52c2.3-4.31,2.78-6.82,2.78-12.59V13.64c0-5.78-.48-8.28-2.78-12.6h13.57c-2.3,4.32-2.78,6.82-2.78,12.6V39.39c0,5.77.48,8.28,2.78,12.59H125.15Z"/><path class="cls-3" d="M149.09,26.58C149.09,11.83,162.17,0,175.25,0s26.3,11.83,26.3,26.58S188.33,53,175.25,53,149.09,41.33,149.09,26.58Zm43.42,0c0-13.36-6.54-23.8-17.26-23.8s-17.12,10.51-17.12,23.8,6.41,23.66,17.12,23.66S192.51,39.94,192.51,26.58Z"/><path class="cls-3" d="M225.49,52H211.92c2.23-4.31,2.79-6.89,2.79-12.59V13.64c0-5.78-.56-8.28-2.79-12.6h17.75c12.59,0,17.6,5,17.6,12.53,0,5.84-3.06,10.72-9.81,13.08l8,15.66c3,5.84,4.46,7.86,8.08,9.67H241.29L229.11,28.11h-6.4V39.39c0,5.77.49,8.28,2.78,12.59ZM222.71,3.9V25.33h5.43c8.63,0,10.78-5.71,10.78-11.48,0-6.2-2.43-10-10.78-10C227.23,3.83,225.42,3.83,222.71,3.9Z"/></svg>