<?xml version="1.0" encoding="utf-8"?>
<!-- Generator: Adobe Illustrator 26.0.1, SVG Export Plug-In . SVG Version: 6.00 Build 0)  -->
<svg version="1.1" id="Capa_1" xmlns="http://www.w3.org/2000/svg" xmlns:xlink="http://www.w3.org/1999/xlink" x="0px" y="0px"
	 viewBox="0 0 108.8 55" style="enable-background:new 0 0 108.8 55;" xml:space="preserve">
<style type="text/css">
	.st0{fill:#0833A2;}
	.st1{opacity:0.94;fill:#0833A2;}
	.st2{fill:#C6C6C6;}
</style>
<g>
	<g>
		<g>
			<path class="st0" d="M61.1,5.4c3.9,0,8.1,2.3,8.1,7.3c0,5.2-4.2,7.4-7.9,7.4h-7.3v-0.2l1.3-0.1V5.7l-1.3-0.1V5.4H61.1z
				 M65.4,12.7c0-5.3-2-6.9-4.6-6.9h-1.9v13.8h2.3C63.8,19.6,65.4,17.9,65.4,12.7z"/>
			<path class="st0" d="M94.6,16l-2.7,3.5c-0.3,0.2-1.2,0.3-1.6,0.3h0c0,0-0.1,0-0.1,0c0,0-0.1,0-0.1,0c0,0,0,0-0.1,0c0,0,0,0-0.1,0
				c-2.5-0.1-3.6-2.4-3.6-7c0,0,0-0.1,0-0.1v0c0,0,0-0.1,0-0.1c0-4.6,1.1-6.8,3.5-7c0,0,0,0,0.1,0c0,0,0,0,0.1,0c0,0,0,0,0.1,0
				c0,0,0.1,0,0.1,0c0,0,0.1,0,0.1,0h0c0.5,0,1.3,0.1,1.6,0.3l2.7,3.5h0.2c0,0,0.2-2.2,0.2-3.3c-1.2-0.5-2.8-0.9-4.3-0.9
				c0,0,0,0,0,0c-0.1,0-0.3,0-0.4,0c0,0,0,0-0.1,0c-4.7,0-7.8,3-7.8,7.5c0,0,0,0,0,0.1c0,0,0,0.1,0,0.1c0,4.5,3.1,7.5,7.8,7.5
				c0.2,0,0.3,0,0.5,0c0,0,0,0,0,0c1.5-0.1,3.1-0.4,4.3-0.9c0-1.2-0.2-3.3-0.2-3.3H94.6z"/>
			<polygon class="st0" points="77.5,5.7 77.5,19.8 78.9,19.9 78.9,20.1 72.7,20.1 72.7,19.9 74,19.8 74,5.7 72.7,5.6 72.7,5.4 
				78.9,5.4 78.9,5.6 			"/>
			<path class="st0" d="M32.4,19.8V5.7l1.3-0.1V5.4H29L24,16L19.2,5.4h-4.8v0.2l1.3,0.1v13.4l-1.9,0.8v0.2h4.4v-0.2l-1.9-0.8V6.9
				L22,19.8h1l5.8-12.7v12.6l-1.3,0.1v0.2h6.1v-0.2L32.4,19.8z"/>
			<polygon class="st0" points="49.2,16 46.5,19.6 42.5,19.6 42.5,12.9 45.5,12.9 46.3,14.8 46.5,14.8 46.5,10.7 46.3,10.7 
				45.5,12.5 42.5,12.5 42.5,5.8 46.5,5.8 49.2,9.4 49.4,9.4 49.6,5.4 37.7,5.4 37.7,5.6 39,5.7 39,19.8 37.7,19.9 37.7,20.1 
				49.6,20.1 49.4,16 			"/>
		</g>
		<g>
			<path class="st0" d="M46.2,25.7h6.1v0.2L51,26.1V36c0,2.9-2.1,4.7-5.2,4.7c-1.3,0-3.7-1-3.7-1l0.2-4.3h0.2l3.2,4.8
				c0.1,0,0.2,0.1,0.3,0.1c1.1,0,1.6-1,1.6-3.8V26.1l-1.3-0.1V25.7z"/>
			<path class="st0" d="M55.6,33.1c0-4.5,3.1-7.6,7.6-7.6c4.5,0,7.6,3.1,7.6,7.6c0,4.5-3.1,7.5-7.6,7.5
				C58.7,40.7,55.6,37.6,55.6,33.1z M66.8,33.1c0-5-1.1-7.1-3.6-7.1c-2.5,0-3.6,2.1-3.6,7.1s1.1,7.1,3.6,7.1
				C65.7,40.2,66.8,38.1,66.8,33.1z"/>
			<path class="st0" d="M74.7,33.1c0-4.5,3.1-7.6,7.6-7.6c4.5,0,7.6,3.1,7.6,7.6c0,4.5-3.1,7.5-7.6,7.5
				C77.8,40.7,74.7,37.6,74.7,33.1z M85.9,33.1c0-5-1.1-7.1-3.6-7.1c-2.5,0-3.6,2.1-3.6,7.1s1.1,7.1,3.6,7.1
				C84.8,40.2,85.9,38.1,85.9,33.1z"/>
			<path class="st0" d="M18.9,40.1V26.1l1.3-0.1v-0.2h-4.6l-5,10.6L5.8,25.7H1v0.2l1.3,0.1v13.4l-1.9,0.8v0.2h4.4v-0.2l-1.9-0.8
				V27.3l5.8,12.9h1l5.8-12.7v12.6l-1.3,0.1v0.2h6.1v-0.2L18.9,40.1z"/>
			<path class="st1" d="M107.1,40.1l-2.7-6.9c1.6-0.6,2.7-1.7,2.7-3.3c0-0.1,0-0.4,0-0.5c0-2.1-1.8-3.3-4.1-3.6
				c-0.5-0.1-1-0.1-1.5-0.1h-2h-1.3h-4.8v0.2l1.3,0.1v14.1l-1.3,0.1v0.2h6.1v-0.2l-1.3-0.1v-14h2.5c0.4,0,0.7,0.1,1.1,0.2
				c0.9,0.3,1.5,1,1.7,2.3c0,0,0,0,0,0c0.1,0.3,0.1,0.7,0.1,1.1c0,0.4,0,0.7-0.1,1c0,0,0,0,0,0c-0.2,1.3-0.8,2-1.7,2.3
				c-0.3,0.1-0.7,0.2-1.1,0.2h-1.9v0.5h2.1l2.5,6.5l-1.3,0.1v0.2h6.4v-0.2L107.1,40.1z"/>
			<g>
				<polygon class="st0" points="37.4,40.1 31.8,25.7 30.8,25.7 30.2,25.7 24.8,39.4 22.9,40.3 22.9,40.5 24.4,40.5 24.9,40.5 
					27.3,40.5 27.3,40.3 25.3,39.4 29.4,29.1 33.6,40.1 32.3,40.3 32.3,40.5 38.7,40.5 38.7,40.3 				"/>
				<polygon class="st0" points="32.9,35 32.9,35.4 27.5,35.4 27.7,35 				"/>
			</g>
		</g>
	</g>
	<g>
		<path class="st2" d="M3.2,49.8H0.4v-4h2.8v0.6h-2v1.1h1.9V48H1.2v1.2h2V49.8z"/>
		<path class="st2" d="M5.6,48.6c0,0.4,0.4,0.6,1,0.6c0.5,0,0.9-0.2,0.9-0.6c0-0.3-0.2-0.5-0.8-0.6L6.1,48C5.3,47.8,5,47.4,5,46.9
			c0-0.7,0.7-1.2,1.6-1.2c0.9,0,1.6,0.5,1.6,1.2H7.4c0-0.4-0.4-0.6-0.9-0.6c-0.5,0-0.8,0.2-0.8,0.6c0,0.3,0.2,0.4,0.7,0.5L7,47.5
			c0.9,0.2,1.2,0.5,1.2,1.1c0,0.8-0.7,1.3-1.7,1.3c-1,0-1.6-0.5-1.7-1.2H5.6z"/>
		<path class="st2" d="M11.7,45.7c0.9,0,1.4,0.5,1.4,1.4s-0.6,1.4-1.5,1.4h-0.9v1.3H10v-4H11.7z M10.8,47.9h0.7
			c0.5,0,0.9-0.3,0.9-0.8c0-0.5-0.3-0.8-0.9-0.8h-0.7V47.9z"/>
		<path class="st2" d="M17.6,49.8h-2.8v-4h2.8v0.6h-2v1.1h1.9V48h-1.9v1.2h2V49.8z"/>
		<path class="st2" d="M19.3,47.8c0-1.3,0.8-2.1,2-2.1c1,0,1.7,0.6,1.8,1.5h-0.8c-0.1-0.5-0.5-0.8-1.1-0.8c-0.7,0-1.2,0.6-1.2,1.5
			c0,0.9,0.5,1.5,1.2,1.5c0.6,0,1-0.3,1.1-0.8h0.7c-0.1,0.9-0.8,1.4-1.8,1.4C20.1,49.8,19.3,49.1,19.3,47.8z"/>
		<path class="st2" d="M25,49.8v-4h0.8v4H25z"/>
		<path class="st2" d="M30.1,48.7h-1.6l-0.4,1h-0.8l1.5-4h0.9l1.5,4h-0.8L30.1,48.7z M28.7,48.2h1.2l-0.6-1.7h0L28.7,48.2z"/>
		<path class="st2" d="M35.7,49.8H33v-4h0.8v3.4h1.9V49.8z"/>
		<path class="st2" d="M37.4,49.8v-4h0.8v4H37.4z"/>
		<path class="st2" d="M41.7,45.7c1.3,0,2,0.7,2,2s-0.8,2-2,2h-1.6v-4H41.7z M40.9,49.2h0.7c0.9,0,1.3-0.5,1.3-1.4
			c0-0.9-0.5-1.4-1.3-1.4h-0.7V49.2z"/>
		<path class="st2" d="M47.8,48.7h-1.6l-0.4,1h-0.8l1.5-4h0.9l1.5,4h-0.8L47.8,48.7z M46.4,48.2h1.2L47,46.4h0L46.4,48.2z"/>
		<path class="st2" d="M52.2,45.7c1.3,0,2,0.7,2,2s-0.8,2-2,2h-1.6v-4H52.2z M51.4,49.2h0.7c0.9,0,1.3-0.5,1.3-1.4
			c0-0.9-0.5-1.4-1.3-1.4h-0.7V49.2z"/>
		<path class="st2" d="M58.8,49.8h-2.8v-4h2.8v0.6h-2v1.1h1.9V48h-1.9v1.2h2V49.8z"/>
		<path class="st2" d="M61.3,48.6c0,0.4,0.4,0.6,1,0.6c0.5,0,0.9-0.2,0.9-0.6c0-0.3-0.2-0.5-0.8-0.6L61.8,48
			c-0.8-0.2-1.2-0.5-1.2-1.1c0-0.7,0.7-1.2,1.6-1.2c0.9,0,1.6,0.5,1.6,1.2h-0.7c0-0.4-0.4-0.6-0.9-0.6c-0.5,0-0.8,0.2-0.8,0.6
			c0,0.3,0.2,0.4,0.7,0.5l0.5,0.1c0.9,0.2,1.2,0.5,1.2,1.1c0,0.8-0.7,1.3-1.7,1.3c-1,0-1.6-0.5-1.7-1.2H61.3z"/>
		<path class="st2" d="M70.8,49.8h-2.8v-4h2.8v0.6h-2v1.1h1.9V48h-1.9v1.2h2V49.8z"/>
		<path class="st2" d="M73.3,48.6c0,0.4,0.4,0.6,1,0.6c0.5,0,0.9-0.2,0.9-0.6c0-0.3-0.2-0.5-0.8-0.6L73.8,48
			c-0.8-0.2-1.2-0.5-1.2-1.1c0-0.7,0.7-1.2,1.6-1.2c0.9,0,1.6,0.5,1.6,1.2h-0.7c0-0.4-0.4-0.6-0.9-0.6c-0.5,0-0.8,0.2-0.8,0.6
			c0,0.3,0.2,0.4,0.7,0.5l0.5,0.1c0.9,0.2,1.2,0.5,1.2,1.1c0,0.8-0.7,1.3-1.7,1.3c-1,0-1.6-0.5-1.7-1.2H73.3z"/>
		<path class="st2" d="M78.7,49.8v-3.4h-1.3v-0.6h3.3v0.6h-1.3v3.4H78.7z"/>
		<path class="st2" d="M85.2,49.8h-2.8v-4h2.8v0.6h-2v1.1h1.9V48h-1.9v1.2h2V49.8z M83.6,45.4l0.7-0.8H85l-0.8,0.8H83.6z"/>
		<path class="st2" d="M88.2,49.8v-3.4h-1.3v-0.6h3.3v0.6h-1.3v3.4H88.2z"/>
		<path class="st2" d="M91.9,49.8v-4h0.8v4H91.9z"/>
		<path class="st2" d="M94.5,47.8c0-1.3,0.8-2.1,2-2.1c1,0,1.7,0.6,1.8,1.5h-0.8c-0.1-0.5-0.5-0.8-1.1-0.8c-0.7,0-1.2,0.6-1.2,1.5
			c0,0.9,0.5,1.5,1.2,1.5c0.6,0,1-0.3,1.1-0.8h0.7c-0.1,0.9-0.8,1.4-1.8,1.4C95.3,49.8,94.5,49.1,94.5,47.8z"/>
		<path class="st2" d="M102.5,48.7h-1.6l-0.4,1h-0.8l1.5-4h0.9l1.5,4h-0.8L102.5,48.7z M101.1,48.2h1.2l-0.6-1.7h0L101.1,48.2z"/>
		<path class="st2" d="M105.8,48.6c0,0.4,0.4,0.6,1,0.6c0.5,0,0.9-0.2,0.9-0.6c0-0.3-0.2-0.5-0.8-0.6l-0.6-0.1
			c-0.8-0.2-1.2-0.5-1.2-1.1c0-0.7,0.7-1.2,1.6-1.2c0.9,0,1.6,0.5,1.6,1.2h-0.7c0-0.4-0.4-0.6-0.9-0.6c-0.5,0-0.8,0.2-0.8,0.6
			c0,0.3,0.2,0.4,0.7,0.5l0.5,0.1c0.9,0.2,1.2,0.5,1.2,1.1c0,0.8-0.7,1.3-1.7,1.3c-1,0-1.6-0.5-1.7-1.2H105.8z"/>
	</g>
</g>
</svg>
