<?xml version="1.0" encoding="utf-8"?>
<!-- Generator: Adobe Illustrator 23.1.1, SVG Export Plug-In . SVG Version: 6.00 Build 0)  -->
<svg version="1.1" id="Layer_1" xmlns="http://www.w3.org/2000/svg" xmlns:xlink="http://www.w3.org/1999/xlink" x="0px" y="0px"
	 viewBox="0 0 300.8 166.2" style="enable-background:new 0 0 300.8 166.2;" xml:space="preserve">
<style type="text/css">
	.st0{fill:#ECE9E7;}
</style>
<g>
	<g>
		<path class="st0" d="M38,45l-6.9-2.7v-0.6h15.2v0.6L39,45v24.5c0,11.7-5.6,18.1-16.2,18.1c-12.2,0-18.2-6.9-18.2-18.1V42.6L0,42.3
			v-0.6h17.7v0.6l-4.6,0.3v28.6c0,10.4,4.7,14.6,12.1,14.6c8.5,0,12.8-6.7,12.8-16.2V45z"/>
		<path class="st0" d="M98.3,72.4L98.1,45l-7.3-2.7v-0.6H106v0.6L99.1,45v42.3h-1.3L70.7,47.7H70l0.3,35.9l7.3,2.7V87H62.4v-0.6
			l6.9-2.7v-41l-6.9-0.3v-0.6h14.8l20.5,30.7H98.3z"/>
		<path class="st0" d="M131.4,86V42.6l-4.6-0.3v-0.6h17.7v0.6l-4.6,0.3V86l4.6,0.3V87h-17.7v-0.6L131.4,86z"/>
		<path class="st0" d="M188.5,87.6c-13.1,0-22.2-9.7-22.2-23.3c0-13.6,9.1-23.3,22.2-23.3c6.5,0,12.1,2.3,14.7,3.9l0.3,10.8h-0.7
			l-3.9-7.4c-1.4-2.9-5.1-6.7-9.6-6.7c-8.8,0-13.8,7.8-13.8,22.7c0,14.9,4.5,22.7,13.8,22.7c4.5,0,8.4-3.6,9.8-6.7l4-7.4h0.6
			l-0.6,10.8C200.6,85.4,195,87.6,188.5,87.6z"/>
		<path class="st0" d="M248.3,41c12.2,0,22.9,9.7,22.9,23.3c0,13.6-10.7,23.3-22.9,23.3c-12.2,0-22.9-9.7-22.9-23.3
			C225.5,50.7,236.2,41,248.3,41z M248.3,87c8.6,0,13.6-8,13.6-22.7c0-14.7-5-22.7-13.6-22.7c-8.6,0-13.6,8-13.6,22.7
			C234.7,79,239.7,87,248.3,87z"/>
	</g>
	<g>
		<path class="st0" d="M67.5,9.2h3.7v1.4h-6.7L68,6.4c0.3-0.4,0.6-0.8,0.8-1.1c0.2-0.3,0.4-0.6,0.5-0.8c0.2-0.4,0.4-0.8,0.4-1.1
			c0-0.5-0.2-0.9-0.5-1.2C68.9,2,68.5,1.9,68,1.9c-1,0-1.6,0.6-1.7,1.8h-1.5c0.2-2.1,1.3-3.1,3.2-3.1c0.9,0,1.7,0.3,2.3,0.9
			c0.6,0.6,0.9,1.3,0.9,2.1c0,0.5-0.1,1.1-0.4,1.6c-0.1,0.3-0.4,0.6-0.6,1c-0.3,0.4-0.6,0.8-1.1,1.3L67.5,9.2z"/>
		<path class="st0" d="M80.7,5.6c0-1.6,0.4-2.8,1.1-3.8c0.7-0.9,1.5-1.3,2.4-1.3c0.9,0,1.7,0.4,2.4,1.3c0.7,0.9,1.1,2.2,1.1,3.9
			c0,1.6-0.4,2.9-1.1,3.8c-0.7,0.9-1.5,1.3-2.4,1.3c-0.9,0-1.7-0.4-2.4-1.3C81,8.5,80.7,7.2,80.7,5.6z M82.1,5.6
			c0,1.1,0.2,2,0.6,2.7c0.4,0.7,0.9,1.1,1.5,1.1c0.6,0,1.1-0.4,1.5-1.1c0.4-0.7,0.6-1.6,0.6-2.7c0-1.1-0.2-2-0.6-2.7
			c-0.4-0.7-0.9-1.1-1.5-1.1c-0.6,0-1.1,0.4-1.4,1.1C82.3,3.6,82.1,4.5,82.1,5.6z"/>
		<path class="st0" d="M100.2,0.5c0.5,0,1,0.2,1.4,0.6c0.4,0.4,0.6,0.8,0.6,1.4c0,0.5-0.2,1-0.6,1.4c-0.4,0.4-0.9,0.6-1.4,0.6
			c-0.6,0-1-0.2-1.4-0.6c-0.4-0.4-0.6-0.9-0.6-1.4c0-0.6,0.2-1,0.6-1.4C99.2,0.7,99.7,0.5,100.2,0.5z M100.2,1.5
			c-0.3,0-0.5,0.1-0.7,0.3c-0.2,0.2-0.3,0.4-0.3,0.7c0,0.3,0.1,0.6,0.3,0.8c0.2,0.2,0.5,0.3,0.7,0.3c0.3,0,0.5-0.1,0.7-0.3
			c0.2-0.2,0.3-0.5,0.3-0.8c0-0.3-0.1-0.5-0.3-0.7C100.7,1.6,100.5,1.5,100.2,1.5z"/>
		<path class="st0" d="M113.4,10.6V0l7.2,7.6V0.7h1.5v10.5l-7.2-7.5v6.9H113.4z"/>
		<path class="st0" d="M145.2,5.4c-0.7-0.5-1.1-1.2-1.1-2.1c0-0.8,0.3-1.5,0.8-2c0.6-0.5,1.3-0.8,2.1-0.8c0.8,0,1.5,0.3,2.1,0.8
			c0.5,0.5,0.8,1.2,0.8,2c0,0.9-0.4,1.6-1.1,2.1c0.4,0.2,0.7,0.5,0.9,0.9c0.2,0.4,0.4,0.9,0.4,1.4c0,0.9-0.3,1.6-0.9,2.2
			c-0.6,0.6-1.3,0.8-2.2,0.8c-0.9,0-1.7-0.3-2.3-0.8c-0.6-0.6-0.9-1.3-0.9-2.1C143.8,6.7,144.3,5.9,145.2,5.4z M145.3,7.7
			c0,0.5,0.2,0.9,0.5,1.2c0.3,0.3,0.7,0.5,1.2,0.5c0.5,0,0.8-0.2,1.2-0.5c0.3-0.3,0.5-0.7,0.5-1.2c0-0.5-0.2-0.8-0.5-1.2
			c-0.3-0.3-0.7-0.5-1.2-0.5c-0.4,0-0.8,0.2-1.2,0.5C145.5,6.9,145.3,7.3,145.3,7.7z M145.5,3.3c0,0.4,0.1,0.8,0.4,1.1
			c0.3,0.3,0.6,0.4,1.1,0.4c0.4,0,0.7-0.1,1-0.4c0.3-0.3,0.4-0.6,0.4-1c0-0.4-0.2-0.8-0.4-1c-0.3-0.3-0.7-0.4-1-0.4
			c-0.4,0-0.8,0.1-1.1,0.4C145.6,2.6,145.5,2.9,145.5,3.3z"/>
		<path class="st0" d="M163.9,2.1H159V0.7h7.4l-6.3,10.3l-1.2-0.8L163.9,2.1z"/>
		<path class="st0" d="M178.4,0.5c0.5,0,1,0.2,1.4,0.6c0.4,0.4,0.6,0.8,0.6,1.4c0,0.5-0.2,1-0.6,1.4c-0.4,0.4-0.9,0.6-1.4,0.6
			c-0.5,0-1-0.2-1.4-0.6c-0.4-0.4-0.6-0.9-0.6-1.4c0-0.6,0.2-1,0.6-1.4C177.4,0.7,177.9,0.5,178.4,0.5z M178.4,1.5
			c-0.3,0-0.5,0.1-0.7,0.3c-0.2,0.2-0.3,0.4-0.3,0.7c0,0.3,0.1,0.6,0.3,0.8c0.2,0.2,0.5,0.3,0.7,0.3c0.3,0,0.5-0.1,0.7-0.3
			c0.2-0.2,0.3-0.5,0.3-0.8c0-0.3-0.1-0.5-0.3-0.7C178.9,1.6,178.7,1.5,178.4,1.5z"/>
		<path class="st0" d="M192,0.7l2.6,6.6l2.7-7.1l2.6,7.1l2.8-6.6h1.6l-4.4,10.5l-2.6-7l-2.7,7l-4.2-10.6H192z"/>
	</g>
	<g>
		<path class="st0" d="M191.9,123.3c-0.1,0-0.1,0-0.2,0c-0.2,0-0.4,0.2-0.5,0.4c-0.1,0.2-0.2,0.4-0.3,0.6c-0.5,0.8-0.9,1.5-1.3,2.2
			c-0.4,0.5-0.8,1.2-1.2,1.7c-0.6,0.7-1.2,1.2-1.8,1.6c-0.8,0.5-1.5,1-2.4,1c-0.3,0-0.5,0-0.8-0.1c0-0.1,0-0.1,0-0.2
			c0-0.2,0-0.3,0-0.5c0.2-0.6,0.4-1.2,0.6-1.8c0.1-0.2,0.1-0.3,0.2-0.5c0.1-0.2,0.2-0.5,0.3-0.7c0.1-0.2,0-0.5-0.2-0.7
			c-0.1-0.1-0.1-0.1-0.2-0.1c-0.1,0-0.2,0.1-0.4,0.3c-0.1,0.1-0.2,0.2-0.2,0.4c-0.2,0.3-0.4,0.6-0.6,0.9c-1.1,1.4-2.3,2.3-3.8,2.8
			c-0.4,0.1-0.9,0.3-1.3,0.3c-0.2,0-0.4,0-0.6-0.1c-0.1-0.5-0.2-1.1,0.1-1.6c0.5-0.9,1-1.7,1.4-2.5c0.1-0.1,0.1-0.4,0.1-0.5
			c-0.1-0.1-0.3-0.3-0.4-0.3c0,0,0,0,0,0c-0.2,0-0.3,0.2-0.5,0.4c-0.1,0.1-0.1,0.2-0.2,0.3c0,0.1-0.1,0.2-0.1,0.2
			c-0.3,0.4-0.6,0.9-1,1.3c-0.2,0.2-0.4,0.5-0.5,0.7c-1,1.3-2,2.3-3.2,2.9c-0.5,0.3-0.9,0.3-1.3,0.2c0-0.6,0.1-1,0.4-1.5
			c0.1-0.1,0.1-0.2,0.2-0.3c0.2-0.3,0.5-0.7,0.7-1c0.7-0.8,1.4-1.7,2.2-2.5c0.2-0.3,0.6-0.5,0.8-0.7c0.2-0.1,0.3-0.2,0.5-0.4
			c0.1-0.1,0.3-0.3,0.4-0.4c0,0,0.1-0.1,0.1-0.1l0,0l0-0.1c0,0,0-0.1-0.1-0.1l0,0l0,0c-0.1,0-0.2,0-0.3,0c-0.2,0-0.4,0-0.5,0.1
			l-0.2,0.1c-0.5,0.3-1,0.6-1.4,1.1c-1,1.2-2,2.3-3,3.6c-0.5,0.7-0.8,1.4-0.8,2.1c0,0.3,0.1,0.6,0.4,0.9c0.2,0.2,0.5,0.3,0.8,0.3
			c0.2,0,0.3,0,0.4-0.1c0.8-0.4,1.4-0.8,2-1.2c0.5-0.5,1-1,1.5-1.6c0.2-0.2,0.4-0.4,0.6-0.6c0,0,0,0,0,0c0,0.1,0,0.2,0,0.4
			c0,0.1,0,0.2,0,0.2c0,0.3,0,0.5,0.1,0.7c0.2,0.7,0.7,1.1,1.2,1.1c0.1,0,0.2,0,0.2,0c1.1-0.3,2.2-0.8,3.2-1.6
			c0.4-0.3,0.8-0.7,1.2-1.1c0.2-0.2,0.4-0.4,0.5-0.5c0,0,0.1,0,0.1,0c0,0,0,0,0,0c0,0.1-0.1,0.2-0.1,0.3c-0.1,0.3-0.2,0.6-0.2,0.9
			l0,0c0,0.5-0.1,1.1,0.1,1.5c0.1,0.3,0.5,0.5,0.9,0.5c0.2,0,0.3,0,0.5-0.1c1.2-0.4,2.3-0.9,3.1-1.7c0.1,0,0.1-0.1,0.2-0.1
			c0,0,0,0,0,0c0,0.1-0.1,0.2-0.2,0.3l0,0c-0.3,0.4-0.5,0.9-0.8,1.3c-0.5,0.8-1,1.7-1.6,2.5c-0.4,0.7-0.9,1.4-1.3,2.2l-0.3,0.5
			c-0.3,0.5-0.5,1-0.8,1.4c-0.5,1-1,2.1-1.5,3.2c-0.1,0.3-0.2,0.6-0.3,0.9c0,0.1-0.1,0.3-0.1,0.4c-0.1,0.3-0.1,0.7,0.2,0.9
			c0,0,0.1,0,0.2,0c0.2,0,0.4-0.1,0.6-0.2c0.4-0.3,0.9-0.7,1.3-1l0.1-0.1c0.4-0.3,0.8-0.7,1.2-1.1c0.1-0.1,0.1-0.2,0.1-0.3
			c0-0.1,0-0.1,0-0.2l0-0.1l-0.1,0c0,0-0.1,0-0.1,0c-0.1,0-0.2,0.1-0.3,0.1c-0.3,0.2-0.6,0.4-0.9,0.7c-0.2,0.2-0.5,0.4-0.7,0.5
			c-0.1,0.1-0.2,0.1-0.3,0.1c0,0-0.1,0-0.1,0c0-0.1,0-0.2,0-0.3c0-0.3,0.1-0.5,0.1-0.7c0.2-0.4,0.4-0.8,0.6-1.2
			c0.1-0.2,0.2-0.4,0.3-0.5c0.2-0.3,0.3-0.7,0.5-1c0.4-0.8,0.8-1.5,1.2-2.3c0.4-0.7,0.9-1.5,1.4-2.2c0.2-0.4,0.5-0.8,0.7-1.2
			c0.3-0.4,0.5-0.9,0.8-1.3c0.2-0.4,0.4-0.8,0.7-1.1c0.2-0.3,0.4-0.5,0.5-0.8c0.2-0.3,0.4-0.6,0.6-0.9c0.2-0.3,0.4-0.6,0.5-0.9
			c0.1-0.2,0.2-0.4,0.3-0.6c0.6-1.1,1.3-2.2,2-3.3c0.1-0.1,0.2-0.4,0.1-0.5C192.1,123.4,192,123.3,191.9,123.3z"/>
		<path class="st0" d="M207.9,131L207.9,131L207.9,131c-0.5,0-0.9,0.1-1.3,0.1c-1,0.1-2.2,0.3-3.3,0.4c-1.4,0.1-2.6,0.2-3.8,0.2h0
			c-0.3,0-0.5-0.1-0.6-0.3c-0.1-0.2-0.2-0.4-0.1-0.7c0.1-0.6,0.3-1,0.5-1.4c0.4-0.7,0.8-1.4,1.2-2c0.1-0.2,0.3-0.4,0.4-0.6
			c0.1-0.1,0.2-0.2,0.2-0.3c0.1-0.2,0.3-0.3,0.3-0.6c0.1-0.1,0-0.3,0-0.5c0-0.1,0-0.2,0-0.3V125l-0.2,0c-0.1,0-0.3,0-0.4,0
			c0,0,0,0,0,0c0,0,0,0,0,0c0-0.1,0-0.1,0-0.2c0-0.2-0.1-0.4-0.1-0.6c0-0.4-0.1-0.6-0.4-0.6c-0.1,0-0.2,0-0.3,0.1
			c-0.1,0-0.1,0-0.2,0.1c-0.4,0.1-0.8,0.3-1.2,0.5l-0.2,0.2c-0.9,0.6-1.9,1.2-2.7,1.9c-0.9,0.8-1.9,1.8-2.4,3.1
			c-0.2,0.5-0.4,1.1-0.3,1.8c0.1,0.4,0.2,0.8,0.7,0.8c0.1,0,0.1,0,0.2,0c0.6,0,1.1-0.1,1.4-0.2c1.3-0.6,2.2-1.3,2.9-2.3
			c0-0.1,0.1-0.1,0.2-0.2c0,0,0,0,0.1,0c0,0,0,0,0,0c0,0.1-0.1,0.2-0.1,0.3c-0.2,0.6-0.4,1.3-0.2,2.1c0.1,0.4,0.8,0.9,1.3,0.9
			c0,0,0,0,0.1,0c0.6-0.1,1.2-0.1,1.8-0.2c0.3,0,0.5,0,0.8,0c0.4,0,0.8,0,1.1-0.1c0.4-0.1,0.9-0.1,1.3-0.2c0.9-0.1,1.7-0.3,2.6-0.3
			c0.2,0,0.3,0,0.5-0.1c0.1,0,0.2,0,0.3,0l0,0c0.2-0.1,0.3-0.3,0.3-0.5C208,131,207.9,131,207.9,131z M200.4,125.4
			c0,0.1,0,0.2-0.1,0.3l-0.4,0.5c-0.7,0.9-1.4,1.8-2.2,2.7c-0.7,0.9-1.6,1.5-2.7,2c-0.2,0.1-0.5,0.2-0.8,0.2c-0.2,0-0.4,0-0.6-0.1
			c0.1-1.2,0.7-2.2,1.8-3.2c0.2-0.2,0.4-0.4,0.5-0.5c0.2-0.2,0.4-0.4,0.6-0.6c0.5-0.4,1-0.8,1.6-1.2c0.5-0.3,1-0.5,1.5-0.7
			c0,0,0,0,0.1,0c0.1,0,0.3,0.1,0.3,0.1C200.2,124.9,200.3,125.1,200.4,125.4z"/>
		<path class="st0" d="M171.1,118.1c0-0.2,0-0.4,0-0.6c0-0.5,0.1-1,0-1.5c-0.3-1.5-0.6-1.8-1.9-1.8c-0.1,0-0.2,0-0.4,0
			c-0.5,0-0.9,0.2-1.3,0.4c-0.1,0.1-0.2,0.1-0.3,0.1c0,0-1,0.5-1.1,0.7l0,0c-1.1,0.8-1.7,1.2-1.7,1.2l-0.4,0.4
			c-0.6,0.5-1.2,1.1-1.8,1.7c-0.3,0.3-0.6,0.6-0.8,0.9c-0.1,0.1-0.2,0.3-0.4,0.4c0,0,0,0,0,0c0.1-0.2,0.2-0.4,0.2-0.7
			c0.1-0.3,0.3-0.7,0.4-1c0.1-0.2,0.2-0.5,0.3-0.7c0.2-0.7,0.5-1.4,0.7-2.1c0.1-0.5,0.2-1-0.2-1.3c-0.2-0.2-0.4-0.3-0.7-0.3
			c-0.2,0-0.4,0.1-0.7,0.2c-0.1,0-0.2,0.1-0.3,0.1c-0.3,0.1-0.6,0.2-0.8,0.4c-0.2,0.1-0.4,0.3-0.6,0.4c-0.6,0.3-1.2,0.7-1.6,1.3
			c-0.1,0.1-0.1,0.1-0.2,0.2c0,0-0.1,0-0.1,0.1c-0.1,0-0.1,0.1-0.2,0.1c-0.1,0.1-0.3,0.2-0.4,0.3c-0.3,0.2-0.5,0.5-0.7,0.8
			c-0.2,0.2-0.4,0.4-0.6,0.6c-0.3,0.3-0.6,0.6-0.9,0.9c-0.3,0.3-0.6,0.6-0.8,0.8c-0.3,0.3-0.7,0.7-1,1c-0.3,0.3-0.5,0.6-0.7,0.9
			c-0.1,0.2-0.3,0.3-0.4,0.5c-0.1,0.1-0.1,0.2-0.2,0.2c-0.2,0.2-0.4,0.5-0.6,0.7c-0.2,0.3-0.4,0.6-0.6,0.8c-0.1,0.1-0.1,0.2-0.2,0.3
			c0-0.1,0-0.1,0-0.1c0.1-0.2,0.3-0.5,0.4-0.7c0.3-0.5,0.6-1,0.9-1.5c0.2-0.4,0.4-0.7,0.6-1.1c0.3-0.7,0.7-1.3,1.1-2
			c0.3-0.5,0.5-1,0.6-1.6c0-0.1,0.1-0.2,0.1-0.3c0.1-0.2,0-0.5-0.1-0.6c-0.1-0.2-0.4-0.3-0.7-0.2c-0.6,0.1-1.1,0.1-1.7,0.2
			c-0.9,0.1-2,0.3-3.1,0.5c-0.5,0.1-1,0.2-1.5,0.3c-0.8,0.2-1.7,0.3-2.6,0.5c-0.6,0.1-1.2,0.1-1.7,0.1c-0.3,0-0.7,0-1,0
			c-0.7,0.1-1.3-0.1-1.7-0.5c-0.1-0.1-0.3-0.2-0.4-0.2c-0.1,0-0.2,0-0.3,0.1c-0.3,0.3-0.1,0.5,0.1,0.8c0.3,0.5,0.9,0.7,1.6,0.7
			c0.5,0,1.1,0,1.8-0.1c0.7-0.1,1.4-0.1,1.9-0.2c0.6-0.1,1.2-0.2,1.8-0.4c0.3-0.1,0.6-0.1,1-0.2c0.2,0,0.3-0.1,0.5-0.1
			c0.5-0.1,1-0.2,1.4-0.3c0.8-0.1,1.6-0.2,2.4-0.3c0.4-0.1,0.9-0.1,1.3-0.2c0,0,0,0.1,0,0.1c0,0.1,0,0.2,0,0.3l0,0.1
			c-0.1,0.5-0.3,0.9-0.5,1.4c-0.4,0.7-0.8,1.5-1.2,2.2l-0.3,0.5c-0.3,0.6-0.7,1.2-1.1,1.8c-0.4,0.7-0.8,1.4-1.2,2.1
			c-0.9,1.6-1.7,3.2-2.5,4.7c-0.2,0.4-0.4,0.9-0.6,1.3c-0.1,0.2-0.2,0.5-0.3,0.8c-0.1,0.2-0.2,0.4-0.3,0.6c-0.2,0.4-0.4,0.7-0.5,1.1
			c-0.1,0.3-0.2,0.6-0.2,0.9c0,0.2,0,0.3,0.1,0.4c0.1,0.1,0.2,0.1,0.3,0.1h0c0.3,0,0.6,0,0.6-0.4l0-0.1c0-0.3,0.1-0.6,0.2-0.8l0,0
			c0.4-0.9,0.7-1.8,1.2-2.7c0.1-0.2,0.2-0.4,0.3-0.6c0.5-1.1,1.1-2.3,1.7-3.3c0.8-1.3,1.7-2.5,2.8-3.9c1-1.3,1.9-2.3,2.7-3.2
			c1.3-1.4,2.5-2.6,3.7-3.6c0.6-0.5,1.3-0.9,2-1.3c0.2-0.1,0.3-0.2,0.5-0.3c0.3-0.2,0.7-0.3,1-0.4c0.2-0.1,0.5,0,0.6,0.2
			c0,0.1,0.1,0.1,0,0.3c-0.2,0.8-0.5,1.6-0.7,2.4c-0.3,0.9-0.7,1.8-1.1,3c-0.1,0.2-0.2,0.4-0.3,0.6c-0.3,0.7-0.6,1.4-0.9,2
			c-0.3,0.6-0.7,1.2-1.1,1.8c-0.4,0.7-0.8,1.3-1.2,2c-0.8,1.4-1.7,3.3-1.9,5.4c0,0.3,0.1,0.5,0.2,0.6c0,0,0,0.1,0.1,0.1
			c0.1,0.1,0.2,0.1,0.3,0.1c0.2,0,0.3-0.1,0.4-0.3c0.1-0.1,0.1-0.2,0.1-0.4c0.1-0.2,0.1-0.4,0.2-0.6c0.1-0.3,0.2-0.5,0.4-0.8
			c0.2-0.4,0.4-0.8,0.5-1.1c0.1-0.3,0.3-0.6,0.4-0.9c0.1-0.3,0.2-0.6,0.4-0.9c0.1-0.3,0.3-0.6,0.4-0.9c0.2-0.3,0.3-0.7,0.5-1.1
			c0.2-0.5,0.4-1,0.6-1.5c0.4-0.9,0.7-1.8,1.2-2.6c0.8-1.5,2-2.8,3.2-4l0.1-0.1c0.2-0.2,0.4-0.5,0.7-0.8c0,0,0,0,0,0c0,0,0,0,0,0
			c0.9-0.9,2.3-1.6,2.3-1.6c0.7-0.3,1.3-0.7,2.1-0.7c0.1,0,0.2,0,0.3,0c0.5,0.1,1.2,0.5,1.3,1c0,0.8,0,1.6,0,2.3c0,0.2,0,0.3,0,0.5
			c0,0.3,0,0.5-0.1,0.7c-0.5,1.7-1,3.1-1.8,4.6c-0.6,1.1-1.2,2.3-1.8,3.4c-0.4,0.8-0.9,1.7-1.3,2.6c-0.2,0.3-0.4,0.7-0.6,1
			c-0.3,0.5-0.6,1.1-0.9,1.6c-0.2,0.5-0.4,1-0.6,1.5c-0.1,0.4-0.3,0.7-0.5,1.1c-0.2,0.4-0.1,0.8,0.2,1.1c0.1,0.1,0.2,0.1,0.4,0.1
			c0.2,0,0.5-0.2,0.7-0.3c0,0,0,0,0,0c0,0,0,0,0,0c0.1-0.1,0.2-0.2,0.2-0.3c0-0.1-0.1-0.2-0.2-0.3c-0.1-0.1-0.2-0.1-0.3-0.1
			c0,0-0.1,0-0.1,0c0-0.1,0.1-0.2,0.1-0.4c0.1-0.3,0.1-0.5,0.3-0.8c1-2,2.1-4.1,3.2-6.1l0-0.1c0.1-0.2,0.2-0.3,0.3-0.5
			c0.1-0.2,0.3-0.4,0.4-0.6c0.4-0.9,0.8-1.8,1.2-2.7c0.1-0.2,0.2-0.5,0.3-0.7c0.5-1.1,0.9-2.3,1.3-3.4
			C171,119.5,171.1,118.8,171.1,118.1z M157.5,127c-0.3,0.7-0.6,1.3-0.9,2c-0.2,0.4-0.4,0.8-0.6,1.3
			C156.2,129.3,157,127.6,157.5,127z"/>
		<path class="st0" d="M96.2,124.6c0-0.1-0.2-0.2-0.4-0.2c0,0-0.1,0-0.1,0c-0.2,0.1-0.5,0.3-0.7,0.4c-0.7,0.4-1.5,0.8-2.1,1.3
			c-1.4,1.1-2.9,2.3-4.2,3.7c-0.2,0.2-0.4,0.4-0.6,0.6c-0.1,0.1-0.2,0.2-0.2,0.2c0,0,0,0,0,0l0-0.1c0-0.2,0.1-0.4,0.1-0.6
			c0.3-1.3,0.6-2.3,0.8-3.2c0-0.1,0.1-0.2,0.1-0.3c0.1-0.2,0.1-0.4,0.2-0.6l0,0l0,0c-0.1,0-0.1-0.1-0.2-0.1l0,0l0,0
			c-0.1,0.1-0.1,0.1-0.2,0.2c-0.2,0.1-0.3,0.3-0.4,0.4c-0.3,0.6-0.4,1.2-0.6,1.9c-0.2,0.5-0.3,1.1-0.4,1.7c-0.1,0.7-0.3,1.4-0.5,2.1
			c-0.1,0.2,0.1,0.6,0.3,0.7c0,0,0.1,0,0.2,0c0.2,0,0.4-0.1,0.5-0.2c0.1-0.1,0.2-0.3,0.3-0.5c0.1-0.1,0.1-0.2,0.2-0.3
			c0.8-1,1.5-1.8,2.2-2.6c0.4-0.5,0.9-1,1.5-1.5c0.7-0.6,1.4-1.1,2.1-1.6l0.4-0.3c0.2-0.1,0.4-0.3,0.6-0.3c0.2-0.1,0.5-0.1,0.7-0.2
			c0.1,0,0.2,0,0.3-0.1C96.3,125.1,96.2,124.8,96.2,124.6C96.2,124.6,96.2,124.6,96.2,124.6z"/>
		<path class="st0" d="M99.8,125.7L99.8,125.7L99.8,125.7c-0.1,0.1-0.2,0.2-0.2,0.2c-0.2,0.2-0.4,0.4-0.5,0.6
			c-0.2,0.4-0.3,0.8-0.4,1.1c-0.1,0.2-0.2,0.5-0.3,0.7c-0.1,0.3-0.3,0.7-0.4,1c-0.2,0.4-0.3,0.8-0.5,1.2c-0.2,0.5-0.3,1-0.5,1.6
			c0,0.2,0,0.4,0.1,0.5c0.1,0.1,0.2,0.2,0.4,0.2c0,0,0.1,0,0.1,0c0.4,0,0.4-0.4,0.5-0.6c0,0,0,0,0-0.1c0,0,0,0,0-0.1
			c0.2-1.4,0.7-2.8,1.2-4.1l0.1-0.3c0.2-0.5,0.3-1,0.4-1.4c0.1-0.2,0.1-0.4,0.2-0.7l0,0l0,0C99.9,125.8,99.9,125.8,99.8,125.7z"/>
		<path class="st0" d="M102.1,118.2c0-0.1-0.1-0.1-0.2-0.2c0,0-0.1-0.1-0.1-0.1l0,0l0,0c-0.1,0.1-0.1,0.1-0.2,0.2
			c-0.1,0.1-0.2,0.2-0.3,0.3c-0.1,0.2-0.1,0.5-0.1,0.7c0,0.1,0,0.3,0,0.4c0,0.2,0,0.3,0.1,0.4c0,0.1,0.1,0.1,0.2,0.1c0,0,0,0,0.1,0
			c0.2,0,0.4-0.3,0.4-0.5c0.1-0.1,0.1-0.2,0.1-0.3c0-0.1,0-0.2,0-0.2c0.2-0.2,0.1-0.5,0.1-0.6C102.1,118.3,102.1,118.2,102.1,118.2z
			"/>
		<path class="st0" d="M84.7,118C84.7,117.9,84.6,117.9,84.7,118l-0.1-0.1l0,0c0,0-0.1,0.1-0.2,0.1c-0.1,0.1-0.3,0.2-0.3,0.3
			c-0.1,0.2-0.1,0.4-0.1,0.6c0,0.1,0,0.1,0,0.2l0,0.1l0,0c0,0,0,0.1,0,0.1c0,0.1,0,0.2,0,0.3c0,0.2,0,0.3,0.1,0.4
			c0.1,0.1,0.1,0.1,0.2,0.1h0c0.3,0,0.5-0.2,0.5-0.5c0-0.1,0-0.3,0.1-0.4c0.2-0.3,0.1-0.5,0.1-0.7C84.8,118.2,84.8,118.1,84.7,118z
			 M84.2,119.9L84.2,119.9L84.2,119.9L84.2,119.9z"/>
		<path class="st0" d="M82.4,126.5c-0.1,0-0.1,0-0.2,0c-0.2,0-0.3,0-0.4,0.1c-0.3,0.2-0.5,0.5-0.7,0.8l-0.1,0.2
			c-0.2,0.2-0.4,0.5-0.6,0.8c-0.3,0.4-0.6,0.9-1,1.3c-0.9,1-2,1.6-3.5,1.9c-0.4,0.1-0.9,0.1-1.5,0.1c-0.3,0-0.7,0-1,0
			c-1.2,0-2.1-0.6-3.1-1.1l-0.2-0.1c-0.6-0.3-1-0.8-1.5-1.2c-0.1-0.1-0.2-0.2-0.4-0.4c-0.3-0.2-0.5-0.5-0.8-0.8
			c-0.1-0.1-0.2-0.2-0.3-0.4c0.1,0,0.2,0,0.4-0.1c0.3,0,0.5-0.1,0.8-0.1c0.3,0,0.6-0.1,0.9-0.1c0.6,0,1.2-0.1,1.7-0.2
			c1.3-0.3,2.6-0.7,3.8-1.1c1.8-0.7,2.9-1.8,3.4-3.4c0.1-0.3,0.1-0.6,0.1-0.8c-0.2-0.9-0.3-1.7-1.1-2.4c-0.6-0.5-1.3-1-2.2-1.4
			c-0.8-0.4-1.8-0.6-3-0.6c-0.1,0-0.3,0-0.4,0c-1.2,0-2,0.3-2.8,0.7c-0.1,0-0.2,0.1-0.3,0.1c0,0-0.1,0-0.1,0c0,0,0,0,0,0
			c0,0,0,0,0,0c0.1-0.3,0.2-0.5,0.3-0.8c0.2-0.7,0.4-1.4,0.7-2.1c0.1-0.2,0.1-0.4,0.2-0.5c0.2-0.5,0.3-1,0.8-1.3l0,0l0,0
			c0-0.1-0.1-0.1-0.1-0.2c0-0.1-0.1-0.2-0.2-0.3l0,0l0,0c-0.1,0.1-0.2,0.2-0.3,0.2c-0.2,0.2-0.5,0.3-0.6,0.5
			c-0.1,0.1-0.1,0.3-0.2,0.4c0,0.1,0,0.2-0.1,0.3l-0.3,0.7c-0.4,1.2-0.8,2.4-1.3,3.5c-0.3,0.7-0.6,1.4-1.2,1.8
			c-0.1,0.1-0.2,0.3-0.4,0.4c-0.1,0.1-0.1,0.1-0.2,0.2l0,0l0,0c0,0,0.1,0.1,0.1,0.1l0.1,0.1l0,0c0.1-0.1,0.2-0.3,0.3-0.4
			c0.1-0.1,0.2-0.2,0.3-0.3c0,0,0,0,0,0c0,0,0,0,0,0c-0.5,1.7-1,3-1.4,4.3c-0.1-0.1-0.2-0.2-0.3-0.3c-0.2-0.2-0.4-0.3-0.6-0.5
			c-0.8-0.7-1.8-1-2.6-1.1c-0.3,0-0.5,0-0.7,0.2c-0.1,0.1-0.1,0.2-0.1,0.3l0,0.1c0.1,0.3,0.1,0.7,0.3,0.9c0.8,1,1.8,2,3.2,2.5
			c-0.8,2.7-1.6,5.5-2.4,8.2c-0.4,1.3-0.8,2.7-1.2,4c0,0,0,0-0.1,0h0l0-0.2c-0.1-0.7-0.3-1.4-0.1-2.2l0-0.1l-0.1,0.1
			c-0.2,0.1-0.3,0.2-0.3,0.3c0,1-0.1,1.9-0.1,2.8c0,0.2,0.1,0.4,0.2,0.5c0.1,0.1,0.3,0.3,0.5,0.3c0,0,0,0,0,0c0.2,0,0.5-0.2,0.6-0.4
			c0.2-0.7,0.4-1.4,0.6-2.1c0.1-0.4,0.2-0.8,0.3-1.3c0.3-1.2,0.7-2.4,1.1-3.7c0.1-0.3,0.2-0.7,0.3-1c0.1-0.4,0.3-0.9,0.4-1.3
			c0.3-0.9,0.5-1.9,0.8-2.8c0.1-0.2,0.1-0.5,0.2-0.7c0.1,0,0.2,0,0.3,0c0.4,0,0.7,0.1,0.9,0.5c0.1,0.2,0.3,0.4,0.5,0.6
			c0.1,0.1,0.2,0.2,0.3,0.3c1,1.3,2.3,2.3,4,3.1c1,0.5,2,0.7,3.1,0.7c0.4,0,0.9,0,1.4-0.1c1.2-0.2,2.3-0.7,3.2-1.4
			c0.7-0.5,1.3-1.2,2-2.1c0.2-0.2,0.3-0.4,0.5-0.6c0.1-0.1,0.1-0.2,0.2-0.2c0,0,0,0,0,0c0,0,0,0,0,0c-0.1,0.3-0.2,0.6-0.3,0.9
			c-0.2,0.5-0.3,1-0.5,1.4c-0.2,0.7-0.3,1.2-0.4,1.8c0,0.2,0.2,0.5,0.4,0.7l0.1,0.1c0,0,0.1,0,0.1,0c0.1,0,0.4-0.1,0.4-0.2
			c0.1-0.3,0.1-0.6,0.1-0.9l0,0c0-0.1,0-0.2,0-0.2c0-0.1,0-0.1,0-0.2c0.1-0.3,0.2-0.6,0.3-0.9c0.2-0.4,0.3-0.9,0.5-1.3
			c0.2-0.8,0.4-1.5,0.5-2.2C82.7,126.8,82.5,126.5,82.4,126.5z M67.9,126.7c-0.1,0-0.2,0-0.3,0c-0.2,0-0.3,0-0.5,0
			c-0.4,0-0.7-0.2-1-0.6c-0.2-0.3-0.3-0.7-0.2-1c0.5-1.6,0.9-3,1.4-4.3c0.2-0.6,0.5-1.1,0.9-1.8c0.1-0.2,0.4-0.4,0.7-0.5
			c1-0.3,1.9-0.4,2.8-0.4c0.9,0,1.8,0.2,2.7,0.5c1.2,0.4,2,1,2.6,1.8c0.5,0.6,0.6,1.4,0.3,2.2c-0.6,1.6-2,2.3-3.3,2.9
			c-1.4,0.6-2.8,0.8-4.2,1.1l-0.3,0.1c-0.3,0.1-0.6,0.1-0.9,0.1C68.3,126.7,68.1,126.7,67.9,126.7L67.9,126.7L67.9,126.7z
			 M64.8,126.2c0,0.1,0,0.2,0,0.2c-1.3-0.4-2.4-1.3-2.9-2.3c0.4,0,0.7,0.1,1,0.3c0.1,0.1,0.2,0.1,0.3,0.1c0.1,0,0.2,0,0.2,0.1
			c0.5,0.4,1,0.8,1.4,1.2C64.8,125.8,64.8,126,64.8,126.2z"/>
		<path class="st0" d="M138,130.1c-0.1-0.1-0.2-0.1-0.3-0.1c-0.1,0-0.2,0-0.4,0.1c-0.1,0-0.2,0.1-0.3,0.1c-0.6,0.1-1.3,0.2-2,0.2
			c-0.6,0-1.1,0.1-1.6,0.2c-0.8,0.1-1.6,0.3-2.4,0.3c0,0,0,0,0,0c0,0-0.1,0-0.1,0c-0.4,0-0.8-0.1-1-0.4c-0.2-0.2-0.2-0.6-0.1-1
			c0.2-0.9,0.7-1.6,1.2-2.3c0.2-0.3,0.5-0.7,0.7-1c0.1-0.1,0.1-0.3,0.1-0.4c-0.1-0.2-0.2-0.4-0.4-0.5c0,0,0,0-0.1,0
			c-0.1,0-0.3,0.1-0.4,0.3c-0.4,0.7-0.7,1.1-1.2,1.9c0-0.1,0-0.2,0-0.4c0-0.2,0.1-0.4,0.1-0.6c0.1-0.5,0.2-1.1,0.2-1.6
			c0-0.5-0.3-0.9-0.7-0.9c-0.1,0-0.3,0-0.4,0.1c-0.1,0.1-0.3,0.2-0.4,0.3c-0.7,0.4-1.4,0.8-1.9,1.4c-0.8,0.8-1.5,1.8-2.2,2.8
			c-0.6,0.9-1.2,2-1,3.4c0.1,0.6,0.4,0.9,0.9,0.9h0c0.2,0,0.4,0,0.6-0.1c1.3-0.4,2.2-1.3,3-2.1c0.2-0.3,0.5-0.5,0.7-0.8
			c0.1-0.1,0.2-0.2,0.3-0.3c0,0.1,0,0.2,0,0.2c0,0.3,0,0.5,0.1,0.8c0.3,0.9,1,1.3,1.9,1.3c0.2,0,0.4,0,0.6-0.1
			c1-0.2,1.9-0.3,2.9-0.4c0.5-0.1,0.9-0.1,1.4-0.2l0.1,0c0.7-0.1,1.5-0.2,2.1-0.6c0.1,0,0.1-0.1,0.1-0.2c0,0,0-0.1,0.1-0.1l0,0
			L138,130.1C138,130.1,138,130.1,138,130.1z M129.5,125.3c0,0.3-0.1,0.5-0.1,0.8c-0.1,0.4-0.2,0.8-0.2,1.3c0,0.9-0.5,1.4-1.1,2
			l-0.1,0.1c-0.5,0.5-1.1,1.1-1.8,1.5c-0.3,0.2-0.7,0.4-1.2,0.6c-0.2,0.1-0.3,0.1-0.5,0.2c-0.3-0.1-0.4-0.1-0.4-0.5
			c0-0.8,0.3-1.6,0.7-2.2c0.4-0.6,0.8-1.2,1.2-1.7l0.1-0.2c0.6-0.8,1.3-1.5,2.1-1.9c0.2-0.1,0.4-0.2,0.6-0.3c0.1,0,0.2-0.1,0.3-0.1
			c0,0,0,0,0,0C129.5,125,129.5,125.2,129.5,125.3z"/>
		<path class="st0" d="M120.7,131.4L120.7,131.4c-0.1,0-0.1,0-0.2,0c-0.1,0-0.2,0-0.2,0.1c-0.1,0.1-1.4,0.3-1.9,0.3
			c-0.1,0-0.3,0-0.4,0l-0.1,0c-0.1,0-0.3-0.1-0.4-0.2c0,0-0.1-0.1-0.1-0.1c0-0.3,0.4-1.4,0.4-1.5c0.1-0.2,0.7-1,0.9-1.4l0.1-0.1
			c0.3-0.5,0.5-1,0.5-1.5c0-0.3,0-0.6-0.1-0.9c-0.1-0.2-0.2-0.3-0.3-0.4c-0.1-0.1-0.1-0.2-0.2-0.3c0,0,0-0.1-0.1-0.1
			c-0.1-0.1-0.1-0.2-0.1-0.3c0-0.1,0-0.1-0.1-0.2c-0.1-0.1-0.3-0.2-0.4-0.2c-0.1,0-0.3,0.1-0.4,0.1c-0.1,0-0.3,0.1-0.4,0.1
			c-0.2,0-0.3,0.2-0.3,0.4c0,0.2-0.1,0.4-0.1,0.5c0,0.1-0.1,0.1-0.2,0.2c-0.1,0.1-0.1,0.1-0.2,0.2c-0.1,0.2-0.3,0.3-0.4,0.4
			c-0.1,0-0.1,0.1-0.1,0.1c-0.3,0.2-0.6,0.6-1,1c-0.3,0.3-0.6,0.6-0.9,0.8c-0.5,0.4-1.7,1.1-2.6,1.6l-0.3,0.2
			c-0.8,0.5-1.5,0.8-2.5,1.1l-0.2,0.1c-0.9,0.3-1.7,0.5-2.5,0.5c-0.2,0-0.6-0.3-0.7-0.4c-0.1-0.2-0.2-0.5-0.1-0.8
			c0.1-0.5,0.4-0.9,0.7-1c0.3-0.1,0.6-0.3,0.9-0.4c0.5-0.2,1.1-0.4,1.6-0.8c0.8-0.6,1.6-1.4,1.5-2.8c0-0.4-0.2-0.6-0.5-0.6
			c-0.1,0-0.2,0-0.3,0.1c-1.5,0.5-2.6,1.5-3.4,2.8l0,0.1c-0.3,0.5-0.6,1-1.2,1c-0.1,0-0.3,0-0.4-0.1c0,0,0,0-0.1,0
			c-0.1,0-0.3,0.1-0.3,0.2c-0.1,0.2,0,0.4,0,0.5c0.1,0.2,0.3,0.3,0.5,0.3c0.1,0,0.2,0,0.3,0c0,0,0,0,0,0c0,0,0,0.1,0,0.1l0,0.1
			c-0.1,0.6-0.2,1.2,0,1.8c0.1,0.3,0.7,0.7,0.9,0.7c0.2,0,0.3,0,0.5,0c0.4,0,0.8-0.1,1.3-0.2l0.1,0c0.4-0.1,1.4-0.3,2.8-0.8
			c0.2-0.1,1.6-0.7,1.7-0.8c0,0,0,0,0.1-0.1c1.7-1.1,2.6-1.8,3-2.2c0,0,0.1-0.1,0.2-0.2c0.2-0.2,0.5-0.5,0.8-0.8l0,0l0,0
			c0.1-0.1,0.7-0.7,1-0.8c0.1,0,0.7-0.5,0.9-0.8c0,0,0,0,0,0c0.1,0,0.2,0.2,0.3,0.3l0,0c0.1,0.1,0.1,0.1,0.2,0.2l0,0
			c0.2,0.2,0.2,0.5,0.1,0.7l0,0.1c-0.1,0.2-0.3,0.7-0.4,0.9c-0.2,0.3-0.4,0.6-0.6,0.9c-0.2,0.3-0.4,0.6-0.4,0.9
			c0,0.1-0.1,0.2-0.1,0.3c-0.2,0.5-0.3,0.9-0.3,1c0,0.2,0.3,0.9,0.5,1c0,0,0.1,0,0.2,0.1c0.3,0.1,0.7,0.3,1,0.3c0,0,0.1,0,0.1,0
			l0.2,0c0.2-0.1,0.5-0.1,0.8-0.2l0.2,0c0.2-0.1,0.5-0.1,0.7-0.2c0.2-0.1,0.4-0.2,0.6-0.3l0.1,0c0.1,0,0.1-0.1,0.1-0.2
			C120.8,131.5,120.7,131.4,120.7,131.4z M106.1,128.6c0.6-1,1.4-1.7,2.8-2.4c0.1,0.4-0.1,0.7-0.2,1
			C108.2,127.9,106.9,128.6,106.1,128.6C106.2,128.6,106.2,128.6,106.1,128.6z"/>
	</g>
</g>
</svg>
