<?xml version="1.0" encoding="utf-8"?>
<!-- Generator: Adobe Illustrator 26.0.1, SVG Export Plug-In . SVG Version: 6.00 Build 0)  -->
<svg version="1.1" id="Capa_1" xmlns="http://www.w3.org/2000/svg" xmlns:xlink="http://www.w3.org/1999/xlink" x="0px" y="0px"
	 viewBox="0 0 215 90" style="enable-background:new 0 0 215 90;" xml:space="preserve">
<style type="text/css">
	.st0{fill:#04357F;}
	.st1{fill:#606060;}
</style>
<g>
	<g>
		<path class="st0" d="M105.4,53.4c-0.1,0-0.3-0.1-0.3-0.2c-3.3-5.6-2.6-11.8-1.3-14.5c1-2.1,2.3-4.4,3.5-6.6
			c0.8-1.5,1.6-2.9,2.3-4.1c1.6-3,0.2-5.5-1.1-7.4c-1.2-1.6,1-6.7,1.8-8.1c0.6-1,0.8-1.9,0.5-2.4c-0.2-0.4-0.7-0.5-1-0.5
			c-0.4,0-0.8,0.1-1.2,0.2c-0.6,0.1-1.2,0.3-2.2,0.3c-0.7,0-1.3-0.1-1.8-0.3c-1.5-0.3-2.4-0.5-3.4,1.6c-0.8,1.7-1.4,2.6-1.9,3.4
			c-0.5,0.7-0.8,1.3-1.1,2.1c-0.2,0.8,0.8,1.4,2,2.1c0.3,0.2,0.6,0.3,0.9,0.5c0.2,0.2,0.5,0.5,0.6,0.5c0.1,0.2,0.1,0.4,0,0.5
			c-0.2,0.1-0.4,0.1-0.5,0c-0.1-0.1-0.3-0.3-0.4-0.4c-0.2-0.1-0.5-0.3-0.8-0.5c-1.2-0.7-2.8-1.5-2.4-3c0.2-0.9,0.6-1.5,1.2-2.3
			c0.5-0.8,1.1-1.7,1.9-3.3c1.2-2.7,2.8-2.3,4.3-2c0.5,0.1,1.1,0.2,1.7,0.2c0.9,0,1.5-0.1,2-0.3c0.4-0.1,0.8-0.2,1.3-0.2
			c0.7,0,1.3,0.3,1.6,0.9c0.3,0.5,0.5,1.5-0.5,3.2c-1.1,1.7-2.5,6.2-1.8,7.2c1.4,1.9,2.9,4.8,1.2,8.2c-0.7,1.3-1.5,2.7-2.3,4.2
			c-1.2,2.2-2.5,4.4-3.5,6.5c-0.7,1.5-1.1,3.6-1,5.8c0.1,2,0.5,5,2.3,8c0.1,0.2,0.1,0.4-0.1,0.5C105.6,53.4,105.5,53.4,105.4,53.4z"
			/>
	</g>
	<g>
		<path class="st0" d="M105.4,53.4c-0.1,0-0.1,0-0.2-0.1c-0.2-0.1-0.2-0.4-0.1-0.5l0,0c0,0,1.2-1.8,1.9-4.5
			c0.6-2.5,0.9-6.4-1.2-10.4c-2.7-5.3-4.2-8.8-4.7-11.2c-0.5-2.3-0.2-3.8,1-5.1c0.4-0.5,0.8-0.7,1.2-1c0.8-0.5,1.3-0.9,1.1-2.5
			c-0.1-0.9-0.5-1.2-0.9-1.6c-0.8-0.7-1.2-1.3-0.3-3c0.2-0.4,0.4-0.7,0.6-1c1.1-2,1.7-3.2,0.7-8.5c-0.4-2.1,0.5-3,1-3.3
			c0.9-0.6,2.1-0.5,3,0.1c0.9,0.6,1.3,1.6,1,2.7c-0.2,1-0.1,1.7,0,2.2c0,0.1,0,0.2,0,0.3c0.1,0.8-0.9,2.5-1.9,2.7
			c-0.3,0-0.8,0-0.9,0c-0.2,0-0.4-0.2-0.4-0.4s0.2-0.4,0.4-0.4c0.1,0,0.5,0,0.7,0c0.4-0.1,1.2-1.4,1.2-1.8c0-0.1,0-0.1,0-0.2
			c-0.1-0.5-0.2-1.3,0-2.4c0.2-1.1-0.3-1.7-0.7-1.9c-0.7-0.4-1.6-0.5-2.2-0.1c-0.7,0.4-0.9,1.3-0.7,2.5c1.1,5.6,0.4,6.9-0.8,9
			c-0.2,0.3-0.4,0.7-0.5,1c-0.7,1.4-0.4,1.6,0.2,2.1c0.4,0.4,1.1,0.9,1.2,2.1c0.2,2.1-0.6,2.7-1.5,3.3c-0.4,0.2-0.7,0.5-1.1,0.9
			c-1.7,1.9-1.6,4.8,3.9,15.4c2.2,4.3,1.9,8.4,1.3,11c-0.7,2.9-1.9,4.7-2,4.8C105.7,53.3,105.6,53.4,105.4,53.4z"/>
	</g>
	<g>
		<path class="st0" d="M108.4,53.4c-0.1,0-0.1,0-0.2-0.1c-0.1-0.1-0.2-0.2-0.2-0.3c0-3,0.9-5.9,2.4-8.4c1.5-2.5,3.7-4.4,6.3-5.7
			c0.1-0.1,0.3-0.1,0.4,0c0.1,0.1,0.2,0.2,0.2,0.3c0,3-0.8,5.9-2.4,8.4c-1.5,2.5-3.7,4.4-6.3,5.7C108.5,53.4,108.5,53.4,108.4,53.4z
			 M108.8,53C108.8,53,108.8,53,108.8,53C108.8,53,108.8,53,108.8,53z M116.5,39.8c-4.6,2.6-7.5,7.3-7.7,12.5
			C113.4,49.8,116.3,45.1,116.5,39.8z M117.1,39.5C117.1,39.5,117.1,39.5,117.1,39.5C117.1,39.5,117.1,39.5,117.1,39.5z"/>
	</g>
	<g>
		<path class="st0" d="M102.4,53.4c-0.1,0-0.1,0-0.2,0C99.7,52,97.5,50,96,47.6c-1.6-2.5-2.4-5.4-2.4-8.4c0-0.1,0.1-0.3,0.2-0.3
			c0.1-0.1,0.3-0.1,0.4,0c2.6,1.3,4.8,3.3,6.3,5.7c1.6,2.5,2.4,5.4,2.4,8.4c0,0.1-0.1,0.3-0.2,0.3C102.6,53.4,102.5,53.4,102.4,53.4
			z M102.6,52.6L102.6,52.6L102.6,52.6z M94.3,39.8c0.2,5.3,3.1,10,7.7,12.5C101.8,47.1,98.9,42.4,94.3,39.8z M93.8,39.5
			C93.8,39.5,93.8,39.5,93.8,39.5C93.8,39.5,93.8,39.5,93.8,39.5z M94.3,39.2C94.3,39.2,94.3,39.2,94.3,39.2
			C94.3,39.2,94.3,39.2,94.3,39.2z"/>
	</g>
</g>
<g>
	<g>
		<path class="st0" d="M61.5,62.7c4.1,0,8.4,2.5,8.4,8c0,5.6-4.4,8.1-8.2,8.1h-7.4v-0.2l1.3-0.1V63l-1.4-0.1v-0.2H61.5z M65.9,70.7
			c0-5.8-2.1-7.5-4.7-7.5h-2v15.1c1.1,0,1.5,0,2.4,0C64.3,78.2,65.9,76.3,65.9,70.7z"/>
		<path class="st0" d="M97.6,74h0.1l0.2,3.6c-1.2,0.7-3.1,1.4-5,1.4c-4.9,0-8-3.4-8-8.2c0-5,3.2-8.3,8.1-8.3c1.6,0,3.5,0.5,4.8,1.1
			l-0.2,3.9h-0.1l-2.8-4.2C94.5,63,93.4,63,93,63c-2.7,0-3.9,2.4-3.9,7.6c0,5.4,1.3,7.8,3.9,7.8c0.5,0,1.6,0,1.9-0.2L97.6,74z"/>
		<path class="st0" d="M130.4,78.3l1.4,0.1v0.2h-6.3v-0.2l1.4-0.1V64.6h0l-6.1,13.8h-1.1l-5.9-14.1h0v13.1l2.2,1v0.2h-4.8v-0.2
			l2.1-1V63l-1.8-0.1v-0.2h5.4l4.9,11.6l5.2-11.6h4.7v0.2l-1.3,0.1V78.3z"/>
		<polygon class="st0" points="49.6,74 46.8,78.2 42.6,78.2 42.6,71 45.6,71 46.6,73.1 46.8,73.1 46.8,68.3 46.6,68.3 45.6,70.5 
			42.6,70.5 42.6,63.1 46.8,63.1 49.6,67.4 49.8,67.4 49.9,62.7 37.7,62.7 37.7,62.9 39.1,63 39.1,78.3 37.7,78.5 37.7,78.7 
			49.9,78.7 49.8,74 		"/>
		<path class="st0" d="M32,78.3l1.4,0.1v0.2h-6.3v-0.2l1.4-0.1V64.6h0l-6.1,13.8h-1.1l-5.9-14.1h0v13.1l2.2,1v0.2h-4.8v-0.2l2.1-1
			V63l-1.8-0.1v-0.2h5.4l4.9,11.6l5.2-11.6h4.7v0.2L32,63V78.3z"/>
		<path class="st0" d="M167.3,70.7c0-4.8,3.2-8.3,7.8-8.3c4.6,0,7.8,3.4,7.8,8.3c0,4.8-3.2,8.2-7.8,8.2
			C170.5,78.9,167.3,75.6,167.3,70.7z M178.9,70.7c0-5.4-1.2-7.7-3.7-7.7c-2.6,0-3.7,2.3-3.7,7.7c0,5.4,1.1,7.7,3.7,7.7
			C177.7,78.3,178.9,76.1,178.9,70.7z"/>
		<path class="st0" d="M158,78.3V63l-1.4-0.1v-0.2h6.3v0.2l-1.4,0.1v15.3l1.4,0.1v0.2h-6.3v-0.2L158,78.3z"/>
		<path class="st0" d="M75.7,78.3V63l-1.4-0.1v-0.2h6.3v0.2L79.2,63v15.3l1.4,0.1v0.2h-6.3v-0.2L75.7,78.3z"/>
		<path class="st0" d="M201.2,78.3l-3.5-7.6c1.5-0.6,2.6-1.8,2.6-3.5v-0.5c0-2.7-2.7-4.1-5.8-4.1h-7.2v0.2l1.4,0.1v15.3l-1.4,0.1
			v0.2h6.3v-0.2l-1.4-0.1V63.1h1.5c0.4,0,0.8,0.1,1.1,0.2c0.9,0.3,1.6,1.2,1.9,2.6c0,0,0,0,0,0c0,0.3,0.1,0.6,0.1,0.9c0,0,0,0,0,0.1
			v0c0,0,0,0.1,0,0.1c0,0.3,0,0.6-0.1,0.9c0,0,0,0,0,0c0,0.1,0,0.3-0.1,0.4c-0.3,1.2-0.9,1.9-1.8,2.2c-0.2,0.1-0.4,0.1-0.6,0.1
			c-0.1,0-0.2,0-0.4,0l0.2,0.4l3.3,7.1l-1.4,0.1v0.2h6.3v-0.2L201.2,78.3z"/>
		<polygon class="st0" points="150.9,78.3 145.2,62.7 143.7,62.7 138.1,77.5 136.2,78.5 136.2,78.7 140.8,78.7 140.8,78.5 
			138.6,77.5 142.8,66.4 147.1,78.3 145.3,78.5 145.3,78.7 152.2,78.7 152.2,78.5 		"/>
	</g>
	<g>
		<path class="st1" d="M49.1,89.1v-4.5H52v0.6h-2.2v1.3h2v0.6h-2v1.4H52v0.6H49.1z"/>
		<path class="st1" d="M55.6,89.2c-0.3,0-0.6-0.1-0.9-0.2c-0.3-0.1-0.5-0.3-0.6-0.5c-0.1-0.2-0.2-0.5-0.2-0.8h0.8
			c0,0.2,0,0.3,0.1,0.4c0.1,0.1,0.2,0.2,0.3,0.3c0.1,0.1,0.3,0.1,0.5,0.1c0.2,0,0.3,0,0.4-0.1c0.1,0,0.2-0.1,0.3-0.2
			s0.1-0.2,0.1-0.3c0-0.1,0-0.3-0.1-0.4c-0.1-0.1-0.2-0.2-0.3-0.2c-0.1-0.1-0.3-0.1-0.4-0.2c-0.2,0-0.3-0.1-0.5-0.2
			c-0.4-0.1-0.6-0.3-0.8-0.5c-0.2-0.2-0.3-0.4-0.3-0.8c0-0.3,0.1-0.5,0.2-0.7c0.1-0.2,0.3-0.3,0.5-0.4c0.2-0.1,0.5-0.2,0.8-0.2
			c0.3,0,0.6,0.1,0.8,0.2c0.2,0.1,0.4,0.3,0.5,0.5c0.1,0.2,0.2,0.4,0.2,0.7h-0.8c0-0.1,0-0.2-0.1-0.3c-0.1-0.1-0.1-0.2-0.2-0.2
			c-0.1-0.1-0.2-0.1-0.4-0.1c-0.1,0-0.2,0-0.3,0.1c-0.1,0-0.2,0.1-0.2,0.2c-0.1,0.1-0.1,0.2-0.1,0.3c0,0.1,0,0.2,0.1,0.3
			c0.1,0.1,0.1,0.1,0.2,0.2c0.1,0.1,0.2,0.1,0.4,0.2c0.1,0,0.3,0.1,0.5,0.2c0.2,0.1,0.4,0.2,0.6,0.3c0.2,0.1,0.3,0.2,0.4,0.4
			c0.1,0.2,0.2,0.4,0.2,0.7c0,0.2-0.1,0.5-0.2,0.7c-0.1,0.2-0.3,0.4-0.5,0.5C56.3,89.1,56,89.2,55.6,89.2z"/>
		<path class="st1" d="M59.3,89.1v-4.5h1.6c0.4,0,0.7,0.1,0.9,0.2c0.2,0.1,0.4,0.3,0.5,0.5c0.1,0.2,0.2,0.4,0.2,0.7
			c0,0.3-0.1,0.5-0.2,0.7c-0.1,0.2-0.3,0.4-0.5,0.5c-0.2,0.1-0.5,0.2-0.9,0.2h-0.9v1.8H59.3z M60.1,86.7h0.8c0.3,0,0.5-0.1,0.7-0.2
			c0.1-0.1,0.2-0.3,0.2-0.5c0-0.2-0.1-0.4-0.2-0.6c-0.1-0.1-0.4-0.2-0.7-0.2h-0.8V86.7z"/>
		<path class="st1" d="M64.5,89.1v-4.5h2.9v0.6h-2.2v1.3h2v0.6h-2v1.4h2.2v0.6H64.5z"/>
		<path class="st1" d="M71.6,89.2c-0.5,0-0.8-0.1-1.2-0.3c-0.3-0.2-0.6-0.5-0.8-0.8c-0.2-0.4-0.3-0.8-0.3-1.2c0-0.5,0.1-0.9,0.3-1.2
			c0.2-0.4,0.4-0.6,0.8-0.8c0.3-0.2,0.7-0.3,1.2-0.3c0.5,0,1,0.1,1.3,0.4c0.3,0.3,0.6,0.6,0.6,1.1h-0.9c-0.1-0.3-0.2-0.5-0.4-0.6
			c-0.2-0.1-0.4-0.2-0.8-0.2c-0.3,0-0.5,0.1-0.7,0.2c-0.2,0.1-0.4,0.3-0.5,0.6c-0.1,0.2-0.2,0.5-0.2,0.9c0,0.3,0.1,0.6,0.2,0.9
			c0.1,0.2,0.3,0.4,0.5,0.6c0.2,0.1,0.5,0.2,0.7,0.2c0.3,0,0.6-0.1,0.8-0.2c0.2-0.1,0.3-0.3,0.4-0.6h0.9c-0.1,0.5-0.3,0.8-0.6,1.1
			C72.6,89,72.1,89.2,71.6,89.2z"/>
		<path class="st1" d="M75.6,89.1v-4.5h0.8v4.5H75.6z"/>
		<path class="st1" d="M78.3,89.1l1.7-4.5h0.9l1.7,4.5h-0.8l-1.3-3.6l-1.3,3.6H78.3z M79,88l0.2-0.6h2.2l0.2,0.6H79z"/>
		<path class="st1" d="M84.4,89.1v-4.5h0.8v3.9h2v0.6H84.4z"/>
		<path class="st1" d="M89.3,89.1v-4.5h0.8v4.5H89.3z"/>
		<path class="st1" d="M92.3,89.1v-4.5h1.5c0.5,0,1,0.1,1.3,0.3c0.3,0.2,0.6,0.4,0.8,0.8c0.2,0.3,0.3,0.7,0.3,1.2
			c0,0.5-0.1,0.9-0.3,1.2c-0.2,0.3-0.4,0.6-0.8,0.8c-0.3,0.2-0.8,0.3-1.3,0.3H92.3z M93,88.4h0.6c0.4,0,0.7-0.1,0.9-0.2
			c0.2-0.1,0.4-0.3,0.5-0.6c0.1-0.2,0.1-0.5,0.1-0.9c0-0.3,0-0.6-0.1-0.9c-0.1-0.2-0.3-0.4-0.5-0.6c-0.2-0.1-0.5-0.2-0.9-0.2H93
			V88.4z"/>
		<path class="st1" d="M97.5,89.1l1.7-4.5h0.9l1.7,4.5h-0.8l-1.3-3.6l-1.3,3.6H97.5z M98.3,88l0.2-0.6h2.2l0.2,0.6H98.3z"/>
		<path class="st1" d="M103.6,89.1v-4.5h1.5c0.5,0,1,0.1,1.3,0.3c0.3,0.2,0.6,0.4,0.8,0.8c0.2,0.3,0.3,0.7,0.3,1.2
			c0,0.5-0.1,0.9-0.3,1.2c-0.2,0.3-0.4,0.6-0.8,0.8c-0.3,0.2-0.8,0.3-1.3,0.3H103.6z M104.4,88.4h0.6c0.4,0,0.7-0.1,0.9-0.2
			c0.2-0.1,0.4-0.3,0.5-0.6c0.1-0.2,0.1-0.5,0.1-0.9c0-0.3,0-0.6-0.1-0.9s-0.3-0.4-0.5-0.6c-0.2-0.1-0.5-0.2-0.9-0.2h-0.6V88.4z"/>
		<path class="st1" d="M109.5,89.1v-4.5h2.9v0.6h-2.2v1.3h2v0.6h-2v1.4h2.2v0.6H109.5z"/>
		<path class="st1" d="M116.1,89.2c-0.3,0-0.6-0.1-0.9-0.2s-0.5-0.3-0.6-0.5c-0.1-0.2-0.2-0.5-0.2-0.8h0.8c0,0.2,0,0.3,0.1,0.4
			c0.1,0.1,0.2,0.2,0.3,0.3c0.1,0.1,0.3,0.1,0.5,0.1c0.2,0,0.3,0,0.4-0.1c0.1,0,0.2-0.1,0.3-0.2c0.1-0.1,0.1-0.2,0.1-0.3
			c0-0.1,0-0.3-0.1-0.4c-0.1-0.1-0.2-0.2-0.3-0.2c-0.1-0.1-0.3-0.1-0.4-0.2c-0.2,0-0.3-0.1-0.5-0.2c-0.4-0.1-0.6-0.3-0.8-0.5
			c-0.2-0.2-0.3-0.4-0.3-0.8c0-0.3,0.1-0.5,0.2-0.7c0.1-0.2,0.3-0.3,0.5-0.4c0.2-0.1,0.5-0.2,0.8-0.2c0.3,0,0.6,0.1,0.8,0.2
			s0.4,0.3,0.5,0.5c0.1,0.2,0.2,0.4,0.2,0.7h-0.8c0-0.1,0-0.2-0.1-0.3c-0.1-0.1-0.1-0.2-0.2-0.2c-0.1-0.1-0.2-0.1-0.4-0.1
			c-0.1,0-0.2,0-0.3,0.1c-0.1,0-0.2,0.1-0.2,0.2c-0.1,0.1-0.1,0.2-0.1,0.3c0,0.1,0,0.2,0.1,0.3c0.1,0.1,0.1,0.1,0.2,0.2
			c0.1,0.1,0.2,0.1,0.4,0.2c0.1,0,0.3,0.1,0.5,0.2c0.2,0.1,0.4,0.2,0.6,0.3c0.2,0.1,0.3,0.2,0.4,0.4c0.1,0.2,0.2,0.4,0.2,0.7
			c0,0.2-0.1,0.5-0.2,0.7c-0.1,0.2-0.3,0.4-0.5,0.5C116.7,89.1,116.4,89.2,116.1,89.2z"/>
		<path class="st1" d="M122.6,89.1v-4.5h2.9v0.6h-2.2v1.3h2v0.6h-2v1.4h2.2v0.6H122.6z"/>
		<path class="st1" d="M129.2,89.2c-0.3,0-0.6-0.1-0.9-0.2c-0.3-0.1-0.5-0.3-0.6-0.5c-0.1-0.2-0.2-0.5-0.2-0.8h0.8
			c0,0.2,0,0.3,0.1,0.4c0.1,0.1,0.2,0.2,0.3,0.3c0.1,0.1,0.3,0.1,0.5,0.1c0.2,0,0.3,0,0.4-0.1c0.1,0,0.2-0.1,0.3-0.2
			c0.1-0.1,0.1-0.2,0.1-0.3c0-0.1,0-0.3-0.1-0.4c-0.1-0.1-0.2-0.2-0.3-0.2c-0.1-0.1-0.3-0.1-0.4-0.2c-0.2,0-0.3-0.1-0.5-0.2
			c-0.4-0.1-0.6-0.3-0.8-0.5c-0.2-0.2-0.3-0.4-0.3-0.8c0-0.3,0.1-0.5,0.2-0.7c0.1-0.2,0.3-0.3,0.5-0.4c0.2-0.1,0.5-0.2,0.8-0.2
			c0.3,0,0.6,0.1,0.8,0.2c0.2,0.1,0.4,0.3,0.5,0.5c0.1,0.2,0.2,0.4,0.2,0.7h-0.8c0-0.1,0-0.2-0.1-0.3s-0.1-0.2-0.2-0.2
			c-0.1-0.1-0.2-0.1-0.4-0.1c-0.1,0-0.2,0-0.3,0.1c-0.1,0-0.2,0.1-0.2,0.2c-0.1,0.1-0.1,0.2-0.1,0.3c0,0.1,0,0.2,0.1,0.3
			c0.1,0.1,0.1,0.1,0.2,0.2c0.1,0.1,0.2,0.1,0.4,0.2c0.1,0,0.3,0.1,0.5,0.2c0.2,0.1,0.4,0.2,0.6,0.3c0.2,0.1,0.3,0.2,0.4,0.4
			c0.1,0.2,0.2,0.4,0.2,0.7c0,0.2-0.1,0.5-0.2,0.7c-0.1,0.2-0.3,0.4-0.5,0.5C129.8,89.1,129.5,89.2,129.2,89.2z"/>
		<path class="st1" d="M133.8,89.1v-3.9h-1.3v-0.6h3.4v0.6h-1.3v3.9H133.8z"/>
		<path class="st1" d="M137.9,89.1v-4.5h2.9v0.6h-2.2v1.3h2v0.6h-2v1.4h2.2v0.6H137.9z M138.7,84.3l-0.1-0.5l1.4-0.8l0.1,0.6
			L138.7,84.3z"/>
		<path class="st1" d="M144,89.1v-3.9h-1.3v-0.6h3.4v0.6h-1.3v3.9H144z"/>
		<path class="st1" d="M148,89.1v-4.5h0.8v4.5H148z"/>
		<path class="st1" d="M153,89.2c-0.5,0-0.8-0.1-1.2-0.3c-0.3-0.2-0.6-0.5-0.8-0.8c-0.2-0.4-0.3-0.8-0.3-1.2c0-0.5,0.1-0.9,0.3-1.2
			c0.2-0.4,0.4-0.6,0.8-0.8c0.3-0.2,0.7-0.3,1.2-0.3c0.5,0,1,0.1,1.3,0.4c0.3,0.3,0.6,0.6,0.6,1.1h-0.9c-0.1-0.3-0.2-0.5-0.4-0.6
			c-0.2-0.1-0.4-0.2-0.8-0.2c-0.3,0-0.5,0.1-0.7,0.2c-0.2,0.1-0.4,0.3-0.5,0.6c-0.1,0.2-0.2,0.5-0.2,0.9c0,0.3,0.1,0.6,0.2,0.9
			c0.1,0.2,0.3,0.4,0.5,0.6c0.2,0.1,0.5,0.2,0.7,0.2c0.3,0,0.6-0.1,0.8-0.2c0.2-0.1,0.3-0.3,0.4-0.6h0.9c-0.1,0.5-0.3,0.8-0.6,1.1
			C154,89,153.6,89.2,153,89.2z"/>
		<path class="st1" d="M156.7,89.1l1.7-4.5h0.9l1.7,4.5h-0.8l-1.3-3.6l-1.3,3.6H156.7z M157.5,88l0.2-0.6h2.2l0.2,0.6H157.5z"/>
		<path class="st1" d="M164.4,89.2c-0.3,0-0.6-0.1-0.9-0.2c-0.3-0.1-0.5-0.3-0.6-0.5c-0.1-0.2-0.2-0.5-0.2-0.8h0.8
			c0,0.2,0,0.3,0.1,0.4c0.1,0.1,0.2,0.2,0.3,0.3c0.1,0.1,0.3,0.1,0.5,0.1c0.2,0,0.3,0,0.4-0.1c0.1,0,0.2-0.1,0.3-0.2
			c0.1-0.1,0.1-0.2,0.1-0.3c0-0.1,0-0.3-0.1-0.4c-0.1-0.1-0.2-0.2-0.3-0.2c-0.1-0.1-0.3-0.1-0.4-0.2c-0.2,0-0.3-0.1-0.5-0.2
			c-0.4-0.1-0.6-0.3-0.8-0.5c-0.2-0.2-0.3-0.4-0.3-0.8c0-0.3,0.1-0.5,0.2-0.7c0.1-0.2,0.3-0.3,0.5-0.4c0.2-0.1,0.5-0.2,0.8-0.2
			c0.3,0,0.6,0.1,0.8,0.2c0.2,0.1,0.4,0.3,0.5,0.5c0.1,0.2,0.2,0.4,0.2,0.7H165c0-0.1,0-0.2-0.1-0.3s-0.1-0.2-0.2-0.2
			c-0.1-0.1-0.2-0.1-0.4-0.1c-0.1,0-0.2,0-0.3,0.1c-0.1,0-0.2,0.1-0.2,0.2c-0.1,0.1-0.1,0.2-0.1,0.3c0,0.1,0,0.2,0.1,0.3
			c0.1,0.1,0.1,0.1,0.2,0.2c0.1,0.1,0.2,0.1,0.4,0.2c0.1,0,0.3,0.1,0.5,0.2c0.2,0.1,0.4,0.2,0.6,0.3c0.2,0.1,0.3,0.2,0.4,0.4
			c0.1,0.2,0.2,0.4,0.2,0.7c0,0.2-0.1,0.5-0.2,0.7c-0.1,0.2-0.3,0.4-0.5,0.5C165,89.1,164.7,89.2,164.4,89.2z"/>
	</g>
</g>
</svg>
